<?xml version="1.0" encoding="utf-8"?>
<!-- Generator: Adobe Illustrator 15.1.0, SVG Export Plug-In . SVG Version: 6.00 Build 0)  -->
<!DOCTYPE svg PUBLIC "-//W3C//DTD SVG 1.1//EN" "http://www.w3.org/Graphics/SVG/1.1/DTD/svg11.dtd">
<svg version="1.1" id="Layer_1" xmlns="http://www.w3.org/2000/svg" xmlns:xlink="http://www.w3.org/1999/xlink" x="0px" y="0px"
	 width="800px" height="230px" viewBox="0 0 800 230" enable-background="new 0 0 800 230" xml:space="preserve">
<path fill="#F7A09F" d="M474.333,278.36c-36.574,0.532-66.108,30.066-66.641,66.641h66.641V278.36z"/>
<path fill="#F7A09F" d="M542.975,345.001c-0.532-36.574-30.067-66.108-66.642-66.641v66.641H542.975z"/>
<path fill="#F7A09F" d="M407.692,347.001c0.532,36.574,30.066,66.108,66.641,66.641v-66.641H407.692z"/>
<path fill="#F7A09F" d="M476.333,413.642c36.574-0.532,66.109-30.066,66.642-66.641h-66.642V413.642z"/>
<linearGradient id="SVGID_1_" gradientUnits="userSpaceOnUse" x1="182.6133" y1="105.6123" x2="789.4863" y2="105.6123" gradientTransform="matrix(-1 0 0 1 800.9717 0)">
	<stop  offset="0" style="stop-color:#DAEADC"/>
	<stop  offset="1" style="stop-color:#DAEADC;stop-opacity:0"/>
</linearGradient>
<polyline fill="url(#SVGID_1_)" points="11.485,203 583.095,203 618.358,104.729 583.095,8.225 11.485,8.225 "/>
<g>
	<g>
		
			<line fill="none" stroke="#39AB7D" stroke-width="2" stroke-miterlimit="10" x1="618.358" y1="104.729" x2="707.681" y2="110.333"/>
		<g>
			<circle fill="#39AB7D" cx="618.358" cy="104.729" r="7.52"/>
		</g>
	</g>
</g>
<g>
	
		<linearGradient id="SVGID_2_" gradientUnits="userSpaceOnUse" x1="182.0127" y1="56.377" x2="715.6533" y2="56.377" gradientTransform="matrix(-1 0 0 1 800.9717 0)">
		<stop  offset="0.1818" style="stop-color:#38AF7F"/>
		<stop  offset="0.1961" style="stop-color:#3EB081;stop-opacity:0.9826"/>
		<stop  offset="0.4748" style="stop-color:#86C5A2;stop-opacity:0.6419"/>
		<stop  offset="0.7113" style="stop-color:#B1D8BF;stop-opacity:0.3529"/>
		<stop  offset="0.8937" style="stop-color:#CBE6D2;stop-opacity:0.13"/>
		<stop  offset="1" style="stop-color:#D5EBD9;stop-opacity:0"/>
	</linearGradient>
	<polygon fill="url(#SVGID_2_)" points="617.758,105.529 618.959,103.93 583.429,7.225 85.318,7.225 85.318,9.225 582.761,9.225 	
		"/>
</g>
<linearGradient id="SVGID_3_" gradientUnits="userSpaceOnUse" x1="181.9873" y1="153.9746" x2="714.6533" y2="153.9746" gradientTransform="matrix(-1 0 0 1 800.9717 0)">
	<stop  offset="0.1818" style="stop-color:#38AF7F"/>
	<stop  offset="0.1961" style="stop-color:#3EB081;stop-opacity:0.9826"/>
	<stop  offset="0.4748" style="stop-color:#86C5A2;stop-opacity:0.6419"/>
	<stop  offset="0.7113" style="stop-color:#B1D8BF;stop-opacity:0.3529"/>
	<stop  offset="0.8937" style="stop-color:#CBE6D2;stop-opacity:0.13"/>
	<stop  offset="1" style="stop-color:#D5EBD9;stop-opacity:0"/>
</linearGradient>
<polygon fill="url(#SVGID_3_)" points="86.318,204 583.446,204 618.984,105.51 617.732,103.949 582.743,202 86.318,202 "/>
<text transform="matrix(1 0 0 1 654.666 282.1563)" font-family="'MyriadPro-Regular'" font-size="18">Voice</text>
<text transform="matrix(1 0 0 1 654.667 326.668)" font-family="'MyriadPro-Regular'" font-size="18">Fax</text>
<text transform="matrix(1 0 0 1 654.666 304.1563)" font-family="'MyriadPro-Regular'" font-size="18">Text</text>
<text transform="matrix(1 0 0 1 654.666 347.001)" font-family="'MyriadPro-Regular'" font-size="18">Logs</text>
<g>
	
		<rect x="725.915" y="30.906" transform="matrix(0.7071 0.7071 -0.7071 0.7071 243.9499 -509.8283)" fill="#69BD45" width="22.981" height="17.319"/>
	<path id="XMLID_1082_" fill="#020202" d="M728.778,18.657c-16.943,0-30.671,13.727-30.671,30.653
		c0,16.943,13.728,30.67,30.671,30.67s30.67-13.727,30.67-30.67C759.448,32.384,745.722,18.657,728.778,18.657z M729.587,33.121
		c1.563-0.036,3.09,0.162,4.581,0.611c1.222,0.359,2.39,0.862,3.468,1.527c0.323,0.198,0.647,0.431,0.952,0.701
		c0.252,0.198,0.737,0.629,0.988,0.827c0.288,0.233,0.845,0.719,1.132,0.952c1.313,1.168,2.229,2.623,2.983,4.205
		c0.61,1.257,0.97,2.587,1.203,3.953c0.055,0.27,0.162,0.575-0.107,0.827c-0.755,0.054-1.491,0.072-2.228,0.144
		c-0.288,0.036-0.378-0.036-0.414-0.323c-0.341-2.569-1.383-4.833-3.162-6.72c-2.587-2.731-5.768-4.079-9.541-3.971
		c-0.09,0-0.197,0.018-0.484,0.018c-0.019-0.844-0.036-1.689-0.072-2.533C729.029,33.067,729.335,33.121,729.587,33.121z
		 M734.653,41.386c-1.438-1.006-3.072-1.491-4.833-1.438c-0.288,0.018-0.378-0.054-0.396-0.341c-0.036-0.683-0.09-1.366-0.18-2.03
		c-0.018-0.234,0.036-0.306,0.27-0.306c2.821-0.09,5.318,0.791,7.511,2.624c2.066,1.779,3.323,4.024,3.755,6.756
		c0.054,0.323-0.018,0.431-0.359,0.449c-0.665,0.036-1.329,0.09-1.977,0.162c-0.197,0.018-0.287-0.018-0.306-0.251
		C737.779,44.638,736.594,42.751,734.653,41.386z M736.756,47.153c0.018,0.198-0.054,0.215-0.216,0.233
		c-0.755,0.054-1.51,0.126-2.317,0.198c-0.306-2.21-1.995-3.719-4.169-3.755c-0.197,0-0.287-0.018-0.306-0.251
		c-0.036-0.665-0.107-1.348-0.18-2.012c-0.018-0.198,0.019-0.27,0.233-0.288C733.09,41.063,736.433,43.883,736.756,47.153z
		 M745.919,59.102c-0.27,3.594-2.965,5.354-6.163,6.253c-0.7,0.18-1.455,0.215-2.191,0.18c-1.204,0.054-2.372-0.216-3.521-0.557
		c-7.799-2.228-13.62-7.079-18.327-13.494c-1.779-2.426-3.414-4.923-3.971-7.941c-0.647-3.594,0.395-6.666,3.072-9.128
		c0.862-0.808,3.468-1.15,4.51-0.628c0.377,0.179,0.629,0.539,0.791,0.898c0.987,2.318,1.958,4.654,2.91,6.99
		c0.18,0.431,0.107,0.88-0.107,1.33c-0.485,1.078-1.294,1.94-2.103,2.785c-0.611,0.629-0.629,1.204-0.18,1.958
		c2.749,4.564,6.559,7.888,11.535,9.882c0.736,0.305,1.312,0.198,1.797-0.431c0.826-1.024,1.707-2.03,2.497-3.108
		c0.539-0.737,1.15-0.845,1.905-0.521c1.652,0.754,3.288,1.545,4.94,2.318c0.378,0.179,0.737,0.359,1.097,0.539
		C746.081,57.233,746.063,57.269,745.919,59.102z"/>
</g>
<g>
	<circle fill="#010101" cx="710.959" cy="179.454" r="32.78"/>
	<rect x="690.824" y="172.307" fill="#D6EACC" width="39.693" height="19.433"/>
	<path fill="#010101" d="M697.96,191.421h-5.794c-0.649-0.001-1.175-0.527-1.177-1.176v-16.423c0.002-0.649,0.527-1.176,1.177-1.177
		h4.336c-0.166-0.248-0.25-0.549-0.249-0.851h-4.087c-1.121,0-2.028,0.909-2.028,2.028v16.422c0,1.12,0.908,2.029,2.028,2.029h5.979
		C698.003,192.018,697.942,191.717,697.96,191.421z"/>
	<path fill="#010101" d="M729.418,171.794h-4.297c0.075,0.275,0.076,0.575,0.002,0.851h4.295c0.648,0.001,1.175,0.527,1.176,1.177
		v16.422c-0.001,0.65-0.525,1.176-1.176,1.178h-6.69c0.138,0.256,0.196,0.557,0.177,0.851h6.514c1.12,0,2.027-0.909,2.028-2.029
		v-16.422C731.445,172.703,730.538,171.794,729.418,171.794z"/>
	<path fill="#010101" d="M697.262,179.457c-0.486,0-0.899-0.275-1.163-0.647l0,0c-0.269-0.373-0.418-0.857-0.418-1.382l0,0v-16.422
		c0-0.525,0.149-1.008,0.418-1.382l0,0c0.264-0.37,0.677-0.647,1.163-0.647l0,0h26.862c0.485,0,0.897,0.275,1.162,0.647l0,0
		c0.268,0.373,0.418,0.856,0.418,1.382l0,0v15.998h0.001v0.425c-0.001,0.525-0.15,1.009-0.418,1.382l0,0
		c-0.264,0.371-0.677,0.648-1.162,0.648l0,0L697.262,179.457L697.262,179.457z M696.789,160.121c-0.15,0.206-0.26,0.525-0.259,0.884
		l0,0v16.422c-0.001,0.359,0.108,0.678,0.259,0.884l0,0c0.153,0.21,0.318,0.293,0.473,0.293l0,0h26.862
		c0.152,0,0.318-0.083,0.472-0.293l0,0c0.143-0.197,0.249-0.497,0.258-0.837l0,0v-16.47c0-0.36-0.108-0.679-0.258-0.885l0,0
		c-0.155-0.208-0.319-0.292-0.473-0.292l0,0h-26.861c-0.001,0-0.002,0-0.002,0l0,0C697.106,159.829,696.942,159.912,696.789,160.121
		L696.789,160.121z"/>
	<path fill="#010101" d="M697.262,179.457c-0.486,0-0.899-0.275-1.163-0.647l0,0c-0.269-0.373-0.418-0.857-0.418-1.382l0,0v-16.422
		c0-0.525,0.149-1.008,0.418-1.382l0,0c0.264-0.37,0.677-0.647,1.163-0.647l0,0h26.862c0.485,0,0.897,0.275,1.162,0.647l0,0
		c0.268,0.373,0.418,0.856,0.418,1.382l0,0v15.998h0.001v0.425c-0.001,0.525-0.15,1.009-0.418,1.382l0,0
		c-0.264,0.371-0.677,0.648-1.162,0.648l0,0L697.262,179.457L697.262,179.457z"/>
	<path fill="#FFFFFF" d="M696.789,160.121c-0.15,0.206-0.26,0.525-0.259,0.884l0,0v16.422c-0.001,0.359,0.108,0.678,0.259,0.884l0,0
		c0.153,0.21,0.318,0.293,0.473,0.293l0,0h26.862c0.152,0,0.318-0.083,0.472-0.293l0,0c0.143-0.197,0.249-0.497,0.258-0.837l0,0
		v-16.47c0-0.36-0.108-0.679-0.258-0.885l0,0c-0.155-0.208-0.319-0.292-0.473-0.292l0,0h-26.861c-0.001,0-0.002,0-0.002,0l0,0
		C697.106,159.829,696.942,159.912,696.789,160.121L696.789,160.121z"/>
	<path fill="#010101" d="M697.482,197.911v-10.724c0.001-0.793,0.613-1.469,1.413-1.472l0,0h22.991
		c0.799,0.003,1.413,0.679,1.414,1.472l0,0v10.724c-0.001,0.795-0.614,1.468-1.414,1.472l0,0h-22.991
		C698.096,199.379,697.483,198.706,697.482,197.911L697.482,197.911z"/>
	<path fill="#FFFFFF" d="M698.333,187.187v10.724c0.002,0.363,0.271,0.621,0.563,0.621l0,0h22.991c0.291,0,0.561-0.259,0.563-0.621
		l0,0v-10.724c-0.002-0.361-0.271-0.62-0.563-0.62l0,0h-22.991C698.604,186.567,698.335,186.825,698.333,187.187L698.333,187.187z"
		/>
	<g>
		<g>
			<polygon fill="#010101" points="700.702,166.038 700.702,165.186 720.681,165.186 720.681,166.038 			"/>
		</g>
	</g>
	<g>
		<g>
			<polygon fill="#010101" points="700.702,170.443 700.702,169.591 720.681,169.591 720.681,170.443 			"/>
		</g>
	</g>
	<g>
		<g>
			<polygon fill="#010101" points="700.702,174.849 700.702,173.997 720.681,173.997 720.681,174.849 			"/>
		</g>
	</g>
</g>
<g>
	<circle fill="#010101" cx="767.22" cy="122.334" r="32.78"/>
	<g>
		<rect x="755.233" y="104.09" fill="#FFFFFF" width="22.807" height="36.298"/>
		<path fill="#78C043" d="M776.277,102.87h-19.448c-1.293,0-2.336,1.043-2.336,2.335v34.257c0,1.292,1.043,2.335,2.336,2.335h19.448
			c1.293,0,2.336-1.043,2.336-2.335v-34.257C778.613,103.913,777.57,102.87,776.277,102.87z M763.019,104.66h7.069
			c0.156,0,0.28,0.125,0.28,0.28s-0.124,0.28-0.28,0.28h-7.069c-0.155,0-0.28-0.125-0.28-0.28S762.863,104.66,763.019,104.66z
			 M762.162,139.586h-2.748c-0.412,0-0.74-0.334-0.74-0.739s0.335-0.74,0.74-0.74h2.748c0.412,0,0.739,0.335,0.739,0.74
			S762.574,139.586,762.162,139.586z M768.095,139.447c0,0.521-0.421,0.942-0.942,0.942h-1.206c-0.521,0-0.942-0.42-0.942-0.942
			v-1.207c0-0.522,0.421-0.942,0.942-0.942h1.206c0.521,0,0.942,0.42,0.942,0.942V139.447z M773.685,139.586h-2.748
			c-0.412,0-0.739-0.334-0.739-0.739s0.335-0.74,0.739-0.74h2.748c0.413,0,0.74,0.335,0.74,0.74S774.098,139.586,773.685,139.586z
			 M777.406,135.951H755.7v-28.838h21.706V135.951z"/>
	</g>
	<path fill="#4580C2" d="M771.962,113.457h-10.884c-1.073,0-1.942,0.97-1.942,2.18v5.477c0,1.21,0.869,2.203,1.942,2.203h8.849
		l1.84,4.06l-0.014-4.06h0.209c1.073,0,1.942-0.993,1.942-2.203v-5.477C773.904,114.427,773.035,113.457,771.962,113.457z
		 M761.521,115.708h9.997v0.901h-9.997V115.708z M761.521,118.049h9.997v0.945h-9.997V118.049z M761.521,120.391h9.997v0.855h-9.997
		V120.391z"/>
</g>
<g>
	<line fill="none" stroke="#39AB7D" stroke-miterlimit="10" x1="707.681" y1="110.333" x2="723.681" y2="79.551"/>
</g>
<g>
	<line fill="none" stroke="#39AB7D" stroke-miterlimit="10" x1="707.681" y1="110.333" x2="734.501" y2="120.417"/>
</g>
<g>
	<line fill="none" stroke="#39AB7D" stroke-miterlimit="10" x1="707.681" y1="110.333" x2="713.959" y2="146.674"/>
</g>
</svg>
