<?xml version="1.0" encoding="utf-8"?>
<!-- Generator: Adobe Illustrator 15.1.0, SVG Export Plug-In . SVG Version: 6.00 Build 0)  -->
<!DOCTYPE svg PUBLIC "-//W3C//DTD SVG 1.1//EN" "http://www.w3.org/Graphics/SVG/1.1/DTD/svg11.dtd">
<svg version="1.1" id="Layer_1" xmlns="http://www.w3.org/2000/svg" xmlns:xlink="http://www.w3.org/1999/xlink" x="0px" y="0px"
	 width="800px" height="150px" viewBox="0 0 800 150" enable-background="new 0 0 800 150" xml:space="preserve">
<path fill="#31AF7F" d="M632.277,257.589l-0.027-0.063l0.016-0.012l-0.197-0.378l-10.621-20.221
	c-0.289-0.528-1.299-2.078-3.24-2.078h-35.576c-2.166,0-3.25,2.134-3.273,2.184l-10.431,19.859l-0.004,0.009l-0.074,0.14
	c-0.175,0.346-0.563,1.286-0.178,2.215c2.649,4.301,7.374,7.188,12.797,7.188c5.302,0,9.927-2.766,12.606-6.908
	c0.41-0.941-0.16-2.119-0.16-2.119l-9.868-18.793l-0.097-0.182c-0.133-0.307-0.25-0.889,0.808-0.889h12.938
	c0.366,0.012,1.39,0.193,1.39,1.906v44.519c-0.024,0.44-0.191,1.334-1.108,1.899l-6.477,4.006c0,0-1.699,1.072,0,1.072h18.379
	c1.253,0,0-0.869,0-0.869l-6.672-4.084c-0.004-0.002-0.004-0.004-0.006-0.006c-1.098-0.672-1.303-1.518-1.332-1.945v-44.781
	c0-1.549,1.109-1.708,1.5-1.717h12.65c0.331,0.006,1.34,0.115,0.705,1.33l-9.906,18.858c0,0-0.311,0.742,0.039,1.556
	c2.652,4.278,7.358,7.146,12.764,7.146c5.416,0,10.139-2.874,12.789-7.166C632.675,258.574,632.377,257.806,632.277,257.589z
	 M590.71,256.994l0.001,0.002l0.136,0.261c0.21,0.434,0.526,1.26-0.136,1.26l-18.809-0.002c-0.623,0-0.5-0.571-0.301-1.032
	l0.299-0.566l0.002-0.004l8.967-17.072c0,0,0.457-0.708,0.83,0l0,0L590.71,256.994z M610.09,257.201l0.133-0.252
	c0-0.002,0.005-0.011,0.005-0.011l8.767-16.69c0.012-0.019,0.606-1.15,1.213,0.002l8.74,16.64c0.181,0.358,0.733,1.629-0.563,1.629
	l-17.455-0.003c-0.003,0-0.003,0-0.003,0C609.654,258.515,609.884,257.648,610.09,257.201z"/>
<linearGradient id="SVGID_1_" gradientUnits="userSpaceOnUse" x1="182.6133" y1="69.6123" x2="789.4863" y2="69.6123" gradientTransform="matrix(-1 0 0 1 800.9717 0)">
	<stop  offset="0" style="stop-color:#DAEADC"/>
	<stop  offset="1" style="stop-color:#DAEADC;stop-opacity:0"/>
</linearGradient>
<polyline fill="url(#SVGID_1_)" points="11.485,97 583.095,97 618.358,68.729 583.095,42.225 11.485,42.225 "/>
<g>
	<g>
		<line fill="none" stroke="#39AB7D" stroke-width="2" stroke-miterlimit="10" x1="618.358" y1="68.729" x2="668.514" y2="79.489"/>
		<g>
			<circle fill="#39AB7D" cx="618.358" cy="68.729" r="7.52"/>
		</g>
	</g>
</g>
<g>
	
		<linearGradient id="SVGID_2_" gradientUnits="userSpaceOnUse" x1="182.0127" y1="55.377" x2="715.6533" y2="55.377" gradientTransform="matrix(-1 0 0 1 800.9717 0)">
		<stop  offset="0.1818" style="stop-color:#38AF7F"/>
		<stop  offset="0.1961" style="stop-color:#3EB081;stop-opacity:0.9826"/>
		<stop  offset="0.4748" style="stop-color:#86C5A2;stop-opacity:0.6419"/>
		<stop  offset="0.7113" style="stop-color:#B1D8BF;stop-opacity:0.3529"/>
		<stop  offset="0.8937" style="stop-color:#CBE6D2;stop-opacity:0.13"/>
		<stop  offset="1" style="stop-color:#D5EBD9;stop-opacity:0"/>
	</linearGradient>
	<polygon fill="url(#SVGID_2_)" points="617.758,69.529 618.959,67.93 583.429,41.225 85.318,41.225 85.318,43.225 582.761,43.225 	
		"/>
</g>
<linearGradient id="SVGID_3_" gradientUnits="userSpaceOnUse" x1="181.9873" y1="82.9746" x2="714.6533" y2="82.9746" gradientTransform="matrix(-1 0 0 1 800.9717 0)">
	<stop  offset="0.1818" style="stop-color:#38AF7F"/>
	<stop  offset="0.1961" style="stop-color:#3EB081;stop-opacity:0.9826"/>
	<stop  offset="0.4748" style="stop-color:#86C5A2;stop-opacity:0.6419"/>
	<stop  offset="0.7113" style="stop-color:#B1D8BF;stop-opacity:0.3529"/>
	<stop  offset="0.8937" style="stop-color:#CBE6D2;stop-opacity:0.13"/>
	<stop  offset="1" style="stop-color:#D5EBD9;stop-opacity:0"/>
</linearGradient>
<polygon fill="url(#SVGID_3_)" points="86.318,98 583.446,98 618.984,69.51 617.732,67.949 582.743,96 86.318,96 "/>
<g>
	<path fill="#5BBA47" d="M673.869,119.32h60v-50h-60V119.32z M675.869,107.32h9v10h-9V107.32z M708.869,95.32v10h-10v-10H708.869z
		 M698.869,93.32v-10h10v10H698.869z M696.869,105.32h-10v-10h10V105.32z M696.869,107.32v10h-10v-10H696.869z M698.869,107.32h10
		v10h-10V107.32z M710.869,107.32h10v10h-10V107.32z M710.869,105.32v-10h10v10H710.869z M722.869,95.32h9v10h-9V95.32z
		 M722.869,93.32v-10h9v10H722.869z M720.869,93.32h-10v-10h10V93.32z M710.869,81.32v-10h10v10H710.869z M708.869,81.32h-10v-10h10
		V81.32z M696.869,81.32h-10v-10h10V81.32z M696.869,83.32v10h-10v-10H696.869z M684.869,93.32h-9v-10h9V93.32z M684.869,95.32v10
		h-9v-10H684.869z M722.869,117.32v-10h9v10H722.869z M731.869,81.32h-9v-10h9V81.32z M684.869,71.32v10h-9v-10H684.869z"/>
	<path fill="#5BBA47" d="M725.869,54.32h-2v-6.5c0-1.104-0.896-2-2-2s-2,0.896-2,2v6.5h-32v-6.5c0-1.104-0.896-2-2-2s-2,0.896-2,2
		v6.5h-2c-4.418,0-8,3.082-8,7.5v4.5h60v-4.5C733.869,57.402,730.287,54.32,725.869,54.32z M685.867,63.82c-2.21,0-4-1.79-4-4
		c0-1.479,0.811-2.754,2.002-3.447v3.447c0,1.104,0.896,2,2,2s2-0.896,2-2v-3.444c1.189,0.693,1.998,1.968,1.998,3.444
		C689.867,62.03,688.077,63.82,685.867,63.82z M721.867,63.82c-2.21,0-4-1.79-4-4c0-1.479,0.811-2.754,2.002-3.447v3.447
		c0,1.104,0.896,2,2,2s2-0.896,2-2v-3.444c1.189,0.693,1.998,1.968,1.998,3.444C725.867,62.03,724.077,63.82,721.867,63.82z"/>
	<rect x="688.869" y="73.32" fill="#5BBA47" width="6" height="6"/>
	<rect x="712.869" y="97.32" fill="#5BBA47" width="6" height="6"/>
	<rect x="700.869" y="97.32" fill="#5BBA47" width="6" height="6"/>
</g>
<circle fill="#FFFFFF" cx="676.908" cy="113.027" r="16.961"/>
<g>
	<path fill="#1A66B0" d="M676.908,95.529c-9.328,0-16.962,7.633-16.962,16.961s7.634,16.962,16.962,16.962
		c9.327,0,16.961-7.634,16.961-16.962S686.235,95.529,676.908,95.529z M676.908,126.626c-7.774,0-14.135-6.36-14.135-14.136
		c0-7.774,6.36-14.135,14.135-14.135c7.773,0,14.134,6.36,14.134,14.135C691.042,120.266,684.682,126.626,676.908,126.626z"/>
	<path fill="#1A66B0" d="M679.594,113.197c0-0.283,0.141-0.424,0.141-0.707c0-0.989-0.566-1.979-1.413-2.403v-8.904
		c0-0.849-0.566-1.413-1.413-1.413c-0.848,0-1.414,0.564-1.414,1.413v8.904c-0.847,0.425-1.414,1.414-1.414,2.403
		c0,1.555,1.273,2.827,2.828,2.827c0.282,0,0.424,0,0.706-0.141l2.544,2.544c0.565,0.564,1.414,0.564,1.979,0
		c0.564-0.565,0.564-1.414,0-1.979L679.594,113.197z M676.908,113.904c-0.848,0-1.414-0.566-1.414-1.414s0.566-1.413,1.414-1.413
		c0.847,0,1.413,0.565,1.413,1.413S677.755,113.904,676.908,113.904z"/>
	<circle fill="#1A66B0" cx="688.216" cy="112.491" r="1.414"/>
	<circle fill="#1A66B0" cx="665.6" cy="112.491" r="1.414"/>
	<circle fill="#1A66B0" cx="684.965" cy="120.547" r="1.414"/>
	<circle fill="#1A66B0" cx="668.851" cy="104.434" r="1.413"/>
	<circle fill="#1A66B0" cx="676.908" cy="123.799" r="1.413"/>
	<circle fill="#1A66B0" cx="668.851" cy="120.547" r="1.414"/>
	<circle fill="#1A66B0" cx="684.965" cy="104.434" r="1.413"/>
</g>
</svg>
