<?xml version="1.0" encoding="utf-8"?>
<!-- Generator: Adobe Illustrator 15.1.0, SVG Export Plug-In . SVG Version: 6.00 Build 0)  -->
<!DOCTYPE svg PUBLIC "-//W3C//DTD SVG 1.1//EN" "http://www.w3.org/Graphics/SVG/1.1/DTD/svg11.dtd">
<svg version="1.1" id="Layer_1" xmlns="http://www.w3.org/2000/svg" xmlns:xlink="http://www.w3.org/1999/xlink" x="0px" y="0px"
	 width="800px" height="150px" viewBox="0 0 800 150" enable-background="new 0 0 800 150" xml:space="preserve">
<linearGradient id="SVGID_1_" gradientUnits="userSpaceOnUse" x1="183.127" y1="109.623" x2="790" y2="109.623">
	<stop  offset="0" style="stop-color:#DAEADC"/>
	<stop  offset="1" style="stop-color:#DAEADC;stop-opacity:0"/>
</linearGradient>
<polyline fill="url(#SVGID_1_)" points="790,137.011 218.391,137.011 183.127,108.74 218.391,82.235 790,82.235 "/>
<g>
	<circle fill="#FFFFFF" cx="132.543" cy="-76.999" r="56.999"/>
	<circle fill="none" stroke="#35AB7D" stroke-miterlimit="10" cx="132.543" cy="-76.999" r="56.999"/>
</g>
<g>
	<g>
		<path fill="#557EBF" d="M304.08,241.588c-3.353,0-5.427-2.764-5.427-5.326c0-2.873,2.452-5.301,5.353-5.301
			c2.345,0,3.631,1.402,3.685,1.463l0.156,0.172l-1.31,1.355l-0.179-0.191c-0.009-0.01-0.874-0.917-2.303-0.917
			c-1.902,0-3.392,1.513-3.392,3.444c0,1.92,1.489,3.422,3.388,3.422c1.239,0,2.727-0.6,3.007-2.26h-3.302v-1.877h5.131l0.046,0.188
			c0.004,0.016,0.092,0.371,0.092,0.976C309.026,239.593,306.992,241.588,304.08,241.588z"/>
		<path fill="#FFFFFF" d="M304.006,231.21c2.261,0,3.5,1.381,3.5,1.381l-0.967,0.999c0,0-0.921-0.998-2.484-0.998
			c-2.025,0-3.641,1.607-3.641,3.695c0,2.144,1.694,3.671,3.638,3.671c1.517,0,3.126-0.825,3.289-2.759h-3.335v-1.379h4.686
			c0,0,0.085,0.335,0.084,0.914c0,2.746-1.984,4.604-4.696,4.604c-3.083,0-5.177-2.508-5.177-5.078
			C298.903,233.64,301.129,231.21,304.006,231.21 M304.006,230.713c-3.037,0-5.603,2.541-5.603,5.549
			c0,2.682,2.17,5.576,5.676,5.576c3.011,0,5.196-2.146,5.196-5.103c0-0.623-0.089-0.995-0.1-1.035l-0.095-0.376h-0.388h-4.687
			h-0.499v0.497v1.378v0.499h0.499h2.741c-0.374,1.289-1.633,1.761-2.694,1.761c-1.76,0-3.138-1.393-3.138-3.171
			c0-1.791,1.38-3.195,3.141-3.195c1.312,0,2.088,0.806,2.12,0.839l0.359,0.379l0.366-0.374l0.966-0.999l0.323-0.334l-0.311-0.346
			C307.821,232.193,306.461,230.713,304.006,230.713L304.006,230.713z"/>
	</g>
	<g>
		<path fill="#EA4535" d="M312.681,241.582c-2.021,0-3.544-1.519-3.544-3.531c0-1.95,1.547-3.478,3.522-3.478
			c0.877,0,1.748,0.322,2.387,0.887c0.516,0.455,1.13,1.279,1.129,2.628C316.176,240.048,314.641,241.582,312.681,241.582z
			 M312.68,236.352c-0.921,0-1.614,0.738-1.614,1.719c0,0.989,0.691,1.736,1.609,1.736c0.777,0,1.581-0.646,1.581-1.727
			C314.255,236.958,313.443,236.352,312.68,236.352z"/>
		<path fill="#FFFFFF" d="M312.659,234.822c1.568,0,3.268,1.11,3.267,3.266c0,1.881-1.461,3.244-3.245,3.244
			c-1.97,0-3.295-1.52-3.295-3.281C309.386,236.313,310.754,234.822,312.659,234.822 M312.675,240.056c0.946,0,1.83-0.78,1.83-1.976
			c0-1.22-0.889-1.979-1.825-1.979c-1.054,0-1.864,0.842-1.864,1.969C310.816,239.224,311.637,240.056,312.675,240.056
			 M312.659,234.323c-2.115,0-3.771,1.637-3.771,3.728c0,2.155,1.63,3.78,3.793,3.78c2.099,0,3.744-1.644,3.744-3.743
			c0-1.442-0.66-2.326-1.214-2.814C314.526,234.67,313.596,234.323,312.659,234.323L312.659,234.323z M312.675,239.557
			c-0.789,0-1.359-0.626-1.359-1.486c0-0.839,0.585-1.47,1.365-1.47c0.643,0,1.326,0.519,1.326,1.479
			C314.006,239.005,313.33,239.557,312.675,239.557L312.675,239.557z"/>
	</g>
	<g>
		<path fill="#F9BC15" d="M319.761,241.582c-2.022,0-3.544-1.519-3.544-3.531c0-1.95,1.547-3.478,3.523-3.478
			c1.704,0,3.515,1.232,3.515,3.515C323.253,240.048,321.718,241.582,319.761,241.582z M319.757,236.352
			c-0.92,0-1.615,0.738-1.615,1.719c0,0.989,0.693,1.736,1.61,1.736c0.777,0,1.581-0.646,1.581-1.727
			C321.333,236.958,320.521,236.352,319.757,236.352z"/>
		<path fill="#FFFFFF" d="M319.738,234.822c1.567,0,3.267,1.11,3.267,3.266c0,1.881-1.461,3.244-3.244,3.244
			c-1.97,0-3.295-1.52-3.295-3.281C316.464,236.313,317.831,234.822,319.738,234.822 M319.752,240.056c0.946,0,1.83-0.78,1.83-1.976
			c0-1.22-0.888-1.979-1.825-1.979c-1.055,0-1.865,0.842-1.865,1.969C317.893,239.224,318.714,240.056,319.752,240.056
			 M319.738,234.323c-2.115,0-3.771,1.637-3.771,3.728c0,2.155,1.631,3.78,3.793,3.78c2.099,0,3.743-1.644,3.743-3.743
			C323.502,235.643,321.562,234.323,319.738,234.323L319.738,234.323z M319.752,239.557c-0.789,0-1.361-0.626-1.361-1.486
			c0-0.839,0.586-1.47,1.366-1.47c0.643,0,1.326,0.519,1.326,1.479C321.084,239.005,320.407,239.557,319.752,239.557
			L319.752,239.557z"/>
	</g>
	<g>
		<path fill="#557EBF" d="M326.772,244.515c-1.896,0-2.789-1.291-3.153-2.061l-0.112-0.234l1.723-0.722l0.095,0.231
			c0.098,0.236,0.489,1.005,1.438,1.005c0.916,0,1.462-0.578,1.462-1.546v-0.062c-0.343,0.256-0.822,0.46-1.535,0.46
			c-1.616,0-3.346-1.41-3.346-3.508c0-1.898,1.545-3.502,3.375-3.502c0.572,0.001,1.076,0.152,1.506,0.451v-0.337h1.864v6.181
			C330.088,243.118,328.817,244.515,326.772,244.515z M326.846,236.352c-0.398,0-0.791,0.165-1.078,0.454
			c-0.225,0.229-0.492,0.636-0.492,1.29c0,1.113,0.8,1.712,1.551,1.712c0.749,0,1.507-0.591,1.507-1.721
			C328.334,236.999,327.577,236.352,326.846,236.352z"/>
		<path fill="#FFFFFF" d="M326.719,234.825c0.761,0.001,1.336,0.296,1.755,0.748v-0.632h1.365v5.931
			c0,2.298-1.326,3.395-3.065,3.395c-1.589,0-2.483-0.979-2.928-1.918l1.251-0.522c0.174,0.419,0.673,1.157,1.668,1.157
			c1.028,0,1.711-0.674,1.711-1.797v-0.64c-0.363,0.424-0.858,0.789-1.785,0.789c-1.503,0-3.096-1.299-3.096-3.257
			C323.593,236.357,324.968,234.825,326.719,234.825 M326.827,240.057c0.88,0,1.757-0.7,1.757-1.973c0-1.25-0.881-1.983-1.738-1.983
			c-0.919,0-1.82,0.745-1.819,1.994C325.026,239.301,325.893,240.057,326.827,240.057 M326.719,234.327L326.719,234.327
			c-1.965,0-3.625,1.717-3.625,3.752c0,1.484,0.811,2.646,1.86,3.264l-0.052,0.021l-1.251,0.522l-0.481,0.203l0.221,0.471
			c0.391,0.822,1.347,2.204,3.379,2.204c2.197,0,3.563-1.491,3.563-3.894v-5.93v-0.499h-0.499h-1.365h-0.499v0.156
			C327.596,234.42,327.172,234.327,326.719,234.327L326.719,234.327z M326.827,239.558c-0.631,0-1.301-0.512-1.301-1.463
			c0-0.569,0.228-0.921,0.42-1.114c0.24-0.242,0.569-0.381,0.9-0.381c0.602,0,1.24,0.52,1.24,1.484
			C328.086,239.053,327.452,239.558,326.827,239.558L326.827,239.558z M326.689,241.837c0.515,0,0.922-0.104,1.247-0.253
			c-0.124,0.578-0.536,0.9-1.173,0.9c-0.794,0-1.125-0.65-1.207-0.85l-0.003-0.008C325.924,241.765,326.31,241.837,326.689,241.837
			L326.689,241.837z"/>
	</g>
	<g>
		<path fill="#EA4535" d="M335.945,241.586c-1.669,0-3.443-1.232-3.443-3.517c0-1.996,1.412-3.5,3.286-3.5
			c1.278,0,2.43,0.811,2.938,2.063l0.324,0.758l-4.332,1.798c0.228,0.334,0.576,0.618,1.234,0.618c0.584,0,1.051-0.265,1.386-0.783
			l0.136-0.213l1.555,1.035l-0.158,0.211C338.113,241.072,337.128,241.586,335.945,241.586z M335.845,236.319
			c-0.385,0-0.793,0.202-1.089,0.541c-0.199,0.228-0.325,0.487-0.368,0.747l2.285-0.955
			C336.5,236.47,336.225,236.319,335.845,236.319z"/>
		<path fill="#FFFFFF" d="M335.786,234.818c1.303,0,2.287,0.868,2.708,1.907l0.227,0.531l-4.365,1.813
			c0.259,0.484,0.681,0.986,1.595,0.986c0.815,0,1.302-0.444,1.595-0.896l1.125,0.748c-0.505,0.675-1.35,1.428-2.728,1.428
			c-1.65,0-3.194-1.216-3.194-3.267C332.75,236.131,334.136,234.818,335.786,234.818 M334.133,237.984l2.917-1.219
			c-0.183-0.38-0.612-0.696-1.206-0.696C334.902,236.069,334.007,237.042,334.133,237.984 M335.786,234.319
			c-2.015,0-3.536,1.611-3.536,3.75c0,2.445,1.902,3.766,3.693,3.766c1.266,0,2.317-0.548,3.127-1.629l0.316-0.421l-0.439-0.293
			l-1.125-0.748l-0.421-0.281l-0.275,0.426c-0.291,0.448-0.676,0.668-1.176,0.668c-0.378,0-0.633-0.109-0.819-0.271l3.779-1.567
			l0.467-0.193l-0.199-0.465l-0.228-0.53C338.411,235.192,337.167,234.319,335.786,234.319L335.786,234.319z M334.849,237.145
			c0.03-0.04,0.061-0.08,0.095-0.12c0.25-0.285,0.587-0.456,0.901-0.456c0.107,0,0.204,0.015,0.288,0.04L334.849,237.145
			L334.849,237.145z"/>
	</g>
	<g>
		<rect x="330.502" y="231.297" fill="#36A852" width="1.834" height="10.096"/>
		<path fill="#FFFFFF" d="M332.086,231.547v9.598h-1.336v-9.598H332.086 M332.584,231.047h-0.499h-1.336h-0.499v0.5v9.598v0.497
			h0.499h1.336h0.499v-0.497v-9.598V231.047L332.584,231.047z"/>
	</g>
</g>
<g>
	<path fill="#0A82C5" d="M319.526,218.461c-1.684,0-3.146,0.947-3.885,2.338c-0.739-1.391-2.201-2.338-3.884-2.338
		c-0.991,0-1.904,0.328-2.638,0.879v-3.703h-0.001c-0.011-0.479-0.4-0.862-0.88-0.862s-0.87,0.384-0.879,0.862l0,0v7.296h0.002
		c0.039,2.395,1.991,4.325,4.396,4.325c1.684,0,3.146-0.946,3.884-2.338c0.739,1.391,2.201,2.338,3.885,2.338
		c2.427,0,4.397-1.968,4.397-4.396C323.923,220.43,321.953,218.461,319.526,218.461z M311.757,225.496
		c-1.458,0-2.638-1.181-2.638-2.637c0-1.457,1.18-2.638,2.638-2.638c1.456,0,2.637,1.181,2.637,2.638
		C314.394,224.315,313.213,225.496,311.757,225.496z M319.526,225.496c-1.458,0-2.638-1.181-2.638-2.637
		c0-1.457,1.181-2.638,2.638-2.638c1.457,0,2.637,1.181,2.637,2.638C322.163,224.315,320.982,225.496,319.526,225.496z"/>
	<path fill="#0A82C5" d="M329.84,225.873l-2.256-3.011l2.256-3.011h-0.001c0.279-0.388,0.197-0.929-0.186-1.217
		c-0.385-0.288-0.926-0.215-1.22,0.16l0,0l-1.945,2.6l-1.943-2.6l0,0c-0.295-0.375-0.836-0.447-1.221-0.16
		c-0.384,0.288-0.464,0.83-0.186,1.218l0,0l2.253,3.011l-2.253,3.011l0,0c-0.279,0.388-0.197,0.929,0.186,1.217
		c0.384,0.288,0.926,0.215,1.221-0.161l0,0l1.943-2.598l1.945,2.598l0,0c0.293,0.376,0.836,0.449,1.22,0.161
		C330.036,226.803,330.117,226.262,329.84,225.873L329.84,225.873z"/>
</g>
<g>
	<path id="path243" fill="#201C1D" d="M304.264,202.182c-0.704,0-1.487,0.271-1.652,1.163c-0.018,0.094,0.044,0.139,0.104,0.153
		l0.721,0.086c0.066-0.004,0.112-0.076,0.125-0.144c0.062-0.308,0.313-0.451,0.595-0.451c0.152,0,0.323,0.052,0.414,0.191
		c0.103,0.156,0.095,0.368,0.095,0.548v0.105c-0.427,0.049-0.991,0.078-1.392,0.26c-0.464,0.205-0.788,0.625-0.788,1.238
		c0,0.789,0.483,1.182,1.104,1.182c0.525,0,0.815-0.123,1.22-0.547c0.134,0.199,0.177,0.289,0.422,0.499
		c0.055,0.028,0.124,0.027,0.172-0.021v0.01c0.147-0.133,0.416-0.379,0.567-0.508c0.059-0.051,0.046-0.133,0-0.203
		c-0.136-0.19-0.278-0.344-0.278-0.699v-1.183c0-0.5,0.042-0.962-0.317-1.306C305.095,202.277,304.623,202.182,304.264,202.182z
		 M313.946,202.182c-0.705,0-1.487,0.271-1.652,1.163c-0.018,0.094,0.045,0.139,0.105,0.153l0.722,0.086
		c0.065-0.004,0.112-0.076,0.124-0.144c0.063-0.308,0.315-0.451,0.595-0.451c0.155,0,0.324,0.052,0.415,0.191
		c0.103,0.156,0.085,0.368,0.085,0.548v0.105c-0.428,0.049-0.982,0.078-1.383,0.26c-0.463,0.205-0.787,0.625-0.787,1.238
		c0,0.789,0.482,1.182,1.103,1.182c0.526,0,0.816-0.123,1.221-0.547c0.133,0.199,0.177,0.289,0.423,0.499
		c0.055,0.028,0.124,0.027,0.173-0.021v0.01c0.147-0.133,0.416-0.379,0.567-0.508c0.061-0.051,0.046-0.133,0-0.203
		c-0.135-0.19-0.279-0.344-0.279-0.699v-1.183c0-0.5,0.033-0.962-0.326-1.306C314.767,202.277,314.305,202.182,313.946,202.182z
		 M308.5,202.22c-0.455,0-0.791,0.229-0.971,0.722h-0.009v-0.51c-0.005-0.072-0.063-0.132-0.135-0.136h-0.691
		c-0.079,0-0.145,0.065-0.145,0.145v3.89c0.006,0.068,0.063,0.131,0.134,0.136h0.74c0.079,0,0.144-0.067,0.144-0.144v-2.066
		c0-0.451-0.022-1.066,0.51-1.066c0.523,0,0.451,0.633,0.451,1.066v2.066c0,0.072,0.06,0.139,0.134,0.144h0.739
		c0.08,0,0.144-0.067,0.144-0.144v-2.066c0-0.221-0.008-0.543,0.067-0.74c0.076-0.195,0.262-0.326,0.442-0.326
		c0.213,0,0.377,0.075,0.433,0.336c0.033,0.156,0.019,0.567,0.019,0.73v2.066c0,0.073,0.06,0.139,0.135,0.144h0.739
		c0.08,0,0.145-0.067,0.145-0.144v-2.46c0-0.417,0.042-0.892-0.192-1.22c-0.206-0.293-0.545-0.422-0.855-0.422
		c-0.434,0-0.838,0.229-1.019,0.721C309.253,202.449,308.962,202.22,308.5,202.22z M321.073,202.22c-1.068,0-1.661,0.94-1.661,2.15
		c0,1.204,0.586,2.173,1.661,2.173c1.035,0,1.69-0.946,1.69-2.134C322.763,203.182,322.169,202.22,321.073,202.22z M325.29,202.22
		c-0.51,0-0.801,0.255-1.008,0.788h-0.011v-0.596c-0.012-0.061-0.07-0.104-0.133-0.105h-0.683c-0.074,0-0.137,0.053-0.144,0.125
		v3.891c0,0.072,0.061,0.139,0.134,0.144h0.731c0.078,0,0.142-0.067,0.144-0.144v-2.095c0-0.263,0.022-0.502,0.125-0.739
		c0.083-0.189,0.242-0.309,0.423-0.309c0.509,0,0.462,0.621,0.462,1.048v2.112c0.006,0.067,0.066,0.122,0.135,0.126h0.738
		c0.073,0,0.135-0.056,0.144-0.126v-2.449c0-0.375,0-0.9-0.193-1.21C325.949,202.346,325.621,202.22,325.29,202.22L325.29,202.22z
		 M316.414,202.287c-0.075,0-0.133,0.06-0.134,0.145v0.557c0,0.084,0.058,0.145,0.134,0.145h1.269l-1.45,2.142
		c-0.089,0.138-0.096,0.295-0.096,0.384v0.566c0,0.082,0.088,0.172,0.172,0.125c0.827-0.45,1.818-0.41,2.565-0.01
		c0.09,0.05,0.183-0.043,0.183-0.125v-0.595c-0.007-0.079-0.039-0.156-0.135-0.212c-0.424-0.244-0.917-0.318-1.383-0.307
		l1.259-1.844c0.115-0.166,0.18-0.266,0.181-0.346v-0.48c0-0.082-0.057-0.145-0.134-0.145H316.414L316.414,202.287z
		 M321.073,203.016c0.234,0,0.406,0.105,0.49,0.376c0.096,0.312,0.105,0.7,0.105,1.027c0,0.499-0.022,1.325-0.596,1.325
		c-0.578,0-0.576-1.021-0.576-1.498C320.497,203.772,320.529,203.016,321.073,203.016z M304.658,204.439v0.162
		c0,0.295,0.011,0.543-0.135,0.807c-0.117,0.214-0.301,0.347-0.509,0.347c-0.283,0-0.451-0.23-0.451-0.558
		C303.563,204.551,304.124,204.439,304.658,204.439z M314.34,204.439v0.162c0,0.295,0.011,0.543-0.135,0.807
		c-0.117,0.214-0.301,0.347-0.51,0.347c-0.282,0-0.452-0.23-0.452-0.558C313.245,204.551,313.805,204.439,314.34,204.439z"/>
	<path id="path257" fill="#010101" d="M319.132,206.59v0.558h0.375v-0.558H319.132z M308.269,206.686v3.967h0.346v-0.355
		c0.074,0.141,0.158,0.246,0.26,0.316c0.102,0.072,0.218,0.107,0.346,0.107c0.253,0,0.472-0.131,0.662-0.395
		c0.191-0.264,0.289-0.647,0.289-1.133c0-0.319-0.041-0.584-0.125-0.809c-0.084-0.222-0.197-0.389-0.337-0.498
		c-0.14-0.11-0.299-0.172-0.47-0.172c-0.122,0-0.237,0.031-0.335,0.095c-0.101,0.063-0.181,0.169-0.26,0.298v-1.422H308.269
		L308.269,206.686z M311.824,207.617c-0.26,0-0.468,0.078-0.616,0.23c-0.146,0.154-0.22,0.352-0.22,0.596
		c0,0.143,0.032,0.263,0.086,0.374c0.055,0.112,0.132,0.202,0.23,0.27s0.294,0.155,0.586,0.25c0.202,0.063,0.322,0.12,0.375,0.163
		c0.076,0.063,0.116,0.146,0.116,0.26c0,0.131-0.046,0.24-0.135,0.326c-0.089,0.086-0.212,0.125-0.375,0.125
		c-0.162,0-0.296-0.046-0.395-0.145c-0.097-0.098-0.149-0.248-0.172-0.451l-0.375,0.077c0.083,0.616,0.392,0.923,0.921,0.921
		c0.284,0,0.5-0.079,0.664-0.248c0.164-0.17,0.25-0.399,0.25-0.673c0-0.149-0.026-0.276-0.077-0.385
		c-0.051-0.107-0.122-0.187-0.212-0.249c-0.09-0.063-0.294-0.145-0.604-0.25c-0.226-0.078-0.359-0.137-0.404-0.174
		c-0.077-0.061-0.115-0.144-0.115-0.25c0-0.107,0.036-0.199,0.115-0.268c0.08-0.07,0.203-0.107,0.365-0.107
		c0.285,0,0.447,0.158,0.48,0.473l0.365-0.059c-0.025-0.197-0.068-0.355-0.134-0.461c-0.067-0.105-0.164-0.195-0.289-0.261
		C312.131,207.641,311.988,207.617,311.824,207.617z M314.12,207.617c-0.301,0-0.554,0.125-0.75,0.385
		c-0.196,0.26-0.288,0.639-0.288,1.134c0,0.476,0.093,0.851,0.288,1.104c0.194,0.253,0.445,0.373,0.758,0.373
		c0.25,0,0.457-0.074,0.624-0.23c0.169-0.155,0.292-0.383,0.355-0.69l-0.384-0.067c-0.111,0.393-0.313,0.584-0.596,0.586
		c-0.18,0-0.326-0.076-0.452-0.24s-0.195-0.406-0.211-0.729h1.653v-0.136c0-0.485-0.097-0.849-0.288-1.104
		C314.637,207.746,314.405,207.617,314.12,207.617z M316.395,207.617c-0.089,0-0.167,0.031-0.238,0.096
		c-0.074,0.066-0.155,0.202-0.242,0.404v-0.442h-0.335v2.872h0.374v-1.498c0-0.209,0.02-0.41,0.067-0.596
		c0.028-0.106,0.079-0.19,0.144-0.25c0.067-0.059,0.143-0.086,0.222-0.086c0.088,0,0.176,0.035,0.269,0.105l0.126-0.451
		C316.649,207.668,316.521,207.617,316.395,207.617z M320.986,207.617c-0.297,0-0.541,0.125-0.73,0.375
		c-0.188,0.249-0.287,0.624-0.287,1.125c0,0.494,0.1,0.869,0.287,1.123c0.188,0.253,0.421,0.373,0.711,0.373
		c0.24,0,0.446-0.088,0.615-0.268c0.171-0.18,0.274-0.445,0.317-0.788l-0.366-0.058c-0.027,0.245-0.091,0.422-0.191,0.538
		c-0.101,0.115-0.223,0.173-0.365,0.173c-0.181,0-0.336-0.085-0.452-0.26c-0.115-0.174-0.172-0.453-0.172-0.844
		c0-0.38,0.061-0.652,0.182-0.828c0.122-0.173,0.277-0.268,0.463-0.268c0.123,0,0.229,0.048,0.316,0.144
		c0.089,0.097,0.146,0.249,0.182,0.443l0.364-0.077c-0.043-0.303-0.14-0.53-0.297-0.683
		C321.406,207.688,321.216,207.617,320.986,207.617z M323.128,207.617c-0.3,0-0.554,0.125-0.749,0.385
		c-0.196,0.26-0.288,0.639-0.288,1.134c0,0.476,0.094,0.851,0.288,1.104c0.195,0.253,0.446,0.373,0.758,0.373
		c0.25,0,0.457-0.074,0.626-0.23c0.167-0.155,0.29-0.383,0.354-0.69l-0.384-0.067c-0.111,0.393-0.305,0.584-0.586,0.586
		c-0.18,0-0.336-0.076-0.461-0.24c-0.126-0.164-0.196-0.406-0.211-0.729h1.652v-0.136c0-0.485-0.095-0.849-0.288-1.104
		C323.649,207.746,323.415,207.617,323.128,207.617z M325.348,207.617c-0.262,0-0.469,0.078-0.615,0.23
		c-0.148,0.154-0.22,0.352-0.22,0.596c0,0.143,0.022,0.263,0.076,0.374c0.054,0.112,0.133,0.202,0.231,0.27
		c0.097,0.067,0.294,0.155,0.585,0.25c0.202,0.063,0.333,0.12,0.385,0.163c0.076,0.063,0.114,0.146,0.114,0.26
		c0,0.131-0.044,0.24-0.135,0.326c-0.087,0.086-0.212,0.125-0.374,0.125c-0.163,0-0.296-0.046-0.394-0.145
		c-0.097-0.098-0.16-0.248-0.182-0.451l-0.375,0.077c0.086,0.616,0.391,0.923,0.923,0.921c0.282,0,0.508-0.079,0.672-0.248
		c0.164-0.17,0.25-0.399,0.25-0.673c0-0.149-0.025-0.276-0.076-0.385c-0.05-0.107-0.129-0.187-0.221-0.249
		c-0.091-0.063-0.286-0.145-0.595-0.25c-0.226-0.078-0.368-0.137-0.414-0.174c-0.077-0.061-0.115-0.144-0.115-0.25
		c0-0.107,0.044-0.199,0.125-0.268c0.08-0.07,0.203-0.107,0.364-0.107c0.288,0,0.448,0.158,0.481,0.473l0.364-0.059
		c-0.024-0.197-0.068-0.355-0.135-0.461c-0.066-0.105-0.164-0.195-0.288-0.261C325.655,207.641,325.512,207.617,325.348,207.617z
		 M316.779,207.675l0.836,2.873h0.355l0.835-2.873h-0.384l-0.49,1.759c-0.06,0.213-0.111,0.395-0.144,0.547
		c-0.042-0.19-0.08-0.391-0.135-0.586l-0.479-1.72H316.779z M319.132,207.675v2.873h0.375v-2.873H319.132z M306.819,207.715
		c-0.297,0-0.536,0.133-0.729,0.393c-0.194,0.262-0.298,0.639-0.298,1.135c0,0.476,0.096,0.842,0.288,1.094
		c0.192,0.252,0.448,0.385,0.759,0.385c0.246,0,0.448-0.084,0.614-0.24c0.166-0.156,0.281-0.385,0.345-0.691l-0.374-0.059
		c-0.109,0.394-0.307,0.586-0.585,0.586c-0.179,0-0.329-0.074-0.452-0.238c-0.124-0.164-0.196-0.408-0.211-0.732h1.633l0.009-0.133
		c0-0.485-0.098-0.859-0.288-1.113C307.34,207.844,307.102,207.715,306.819,207.715z M302.602,207.781l0.674,2.871h0.394
		l0.441-2.209l0.077,0.49l0.355,1.719h0.385l0.682-2.872h-0.355l-0.375,1.662L304.754,210l-0.115-0.558l-0.327-1.662h-0.384
		l-0.347,1.682l-0.114,0.597l-0.135-0.616l-0.346-1.662L302.602,207.781L302.602,207.781z M326.509,207.81v0.135h0.364v0.96h0.144
		v-0.96h0.366v-0.135H326.509z M327.528,207.81v1.095h0.135v-0.932l0.317,0.932h0.134l0.317-0.912v0.912h0.144v-1.095h-0.202
		l-0.26,0.771c-0.026,0.075-0.044,0.131-0.058,0.172l-0.057-0.164l-0.26-0.778H327.528L327.528,207.81L327.528,207.81z
		 M314.109,208.012c0.188,0,0.34,0.09,0.461,0.268c0.083,0.123,0.136,0.31,0.154,0.559h-1.239c0.011-0.253,0.083-0.447,0.202-0.597
		C313.805,208.094,313.941,208.012,314.109,208.012z M323.12,208.012c0.185,0,0.34,0.09,0.46,0.268
		c0.083,0.123,0.137,0.31,0.154,0.559h-1.239c0.011-0.253,0.083-0.447,0.201-0.597C322.814,208.094,322.951,208.012,323.12,208.012z
		 M306.819,208.117c0.186,0,0.332,0.091,0.451,0.268c0.083,0.123,0.138,0.31,0.154,0.558h-1.22c0.012-0.253,0.075-0.456,0.192-0.604
		C306.514,208.189,306.652,208.117,306.819,208.117z M309.201,208.117c0.166,0,0.308,0.093,0.422,0.268
		c0.115,0.178,0.164,0.451,0.164,0.828c0,0.367-0.055,0.639-0.172,0.824c-0.119,0.187-0.26,0.279-0.414,0.279
		c-0.113,0-0.215-0.037-0.307-0.114c-0.093-0.078-0.161-0.188-0.211-0.336c-0.05-0.148-0.078-0.375-0.078-0.673
		c0-0.351,0.063-0.613,0.184-0.798C308.908,208.21,309.048,208.117,309.201,208.117z"/>
	<path id="polygon287" fill="#F6A81C" d="M297.218,205.072l-1.431,0.613l1.326,0.568l1.537-0.568L297.218,205.072z M295.066,205.842
		l-0.048,2.766l2.094,0.922v-2.872L295.066,205.842z M299.37,205.842l-1.893,0.719v2.709l1.893-0.768V205.842z"/>
	<path id="polygon311" fill="#F6A81C" d="M301.626,197.235l-1.441,0.614l1.335,0.566l1.538-0.566L301.626,197.235z M299.629,198.051
		v2.766l1.787,0.52l0.057-2.516L299.629,198.051z M303.625,198.205l-1.69,0.721v2.719l1.69-0.769V198.205L303.625,198.205z"/>
	<path id="use3387" fill="#F6A81C" d="M294.86,201.128l-1.431,0.616l1.326,0.564l1.537-0.564L294.86,201.128z M292.709,201.896
		l-0.047,2.766l2.094,0.922v-2.871L292.709,201.896z M297.012,201.896l-1.892,0.721v2.709l1.892-0.769V201.896z"/>
	<path id="use3389" fill="#F6A81C" d="M299.471,201.025l-1.431,0.615l1.326,0.566l1.537-0.566L299.471,201.025z M297.319,201.794
		l-0.047,2.767l2.095,0.922v-2.873L297.319,201.794z M301.623,201.794l-1.893,0.721v2.709l1.893-0.77V201.794z"/>
	<path id="use3391" fill="#F6A81C" d="M306.13,197.235l-1.431,0.614l1.326,0.566l1.537-0.566L306.13,197.235z M303.979,198.003
		l-0.049,2.767l2.094,0.922v-2.871L303.979,198.003z M308.282,198.003l-1.892,0.721v2.708l1.892-0.769V198.003z"/>
	<g>
		<path fill="#010101" d="M343.802,205.24c-0.282-0.342-0.658-0.562-1.127-0.659c0.787-0.419,1.18-0.978,1.18-1.68
			c0-0.493-0.192-0.937-0.576-1.329c-0.466-0.48-1.084-0.721-1.855-0.721c-0.45,0-0.858,0.084-1.219,0.249
			c-0.364,0.165-0.647,0.392-0.85,0.681c-0.204,0.289-0.355,0.676-0.456,1.16l1.447,0.237c0.04-0.349,0.156-0.613,0.346-0.796
			c0.189-0.181,0.419-0.272,0.687-0.272c0.272,0,0.489,0.081,0.654,0.241c0.163,0.159,0.245,0.373,0.245,0.643
			c0,0.315-0.111,0.569-0.334,0.76c-0.224,0.19-0.548,0.281-0.973,0.27l-0.191,0.001v1.249c0,0,0.006-0.003,0.02-0.006l-0.001,0.006
			c0.033-0.01,0.063-0.016,0.095-0.024c0.336-0.057,1.32-0.126,1.697,0.876c0.015,0.09,0.022,0.186,0.022,0.287
			c0,0.407-0.11,0.731-0.333,0.971c-0.221,0.24-0.493,0.359-0.817,0.359c-0.302,0-0.559-0.1-0.771-0.3
			c-0.213-0.2-0.344-0.489-0.392-0.866l-1.52,0.18c0.078,0.672,0.361,1.215,0.85,1.633c0.488,0.416,1.102,0.623,1.843,0.623
			c0.781,0,1.435-0.246,1.961-0.741c0.525-0.494,0.788-1.092,0.788-1.794C344.223,205.994,344.083,205.582,343.802,205.24z
			 M342.519,205.857c0.031,0.076,0.053,0.158,0.068,0.246L342.519,205.857z"/>
		<path fill="#010101" d="M336.847,204.464c-0.384-0.198-0.981-0.391-1.785-0.576c-0.804-0.185-1.311-0.362-1.519-0.534
			c-0.164-0.135-0.246-0.296-0.246-0.484c0-0.207,0.088-0.373,0.264-0.496c0.271-0.193,0.647-0.29,1.127-0.29
			c0.466,0,0.815,0.091,1.048,0.271c0.231,0.18,0.383,0.473,0.455,0.88l1.547-0.729c-0.125-0.434-0.362-0.799-0.712-1.096
			c-0.52-0.44-1.292-0.66-2.321-0.66c-0.63,0-1.167,0.093-1.612,0.278c-0.446,0.185-0.786,0.455-1.022,0.81
			c-0.237,0.354-0.354,0.734-0.354,1.142c0,0.633,0.252,1.169,0.753,1.608c0.359,0.313,0.98,0.575,1.867,0.791
			c0.689,0.166,1.13,0.283,1.323,0.348c0.283,0.098,0.481,0.215,0.595,0.346c0.113,0.133,0.17,0.295,0.17,0.484
			c0,0.294-0.135,0.55-0.404,0.771c-0.271,0.219-0.672,0.328-1.205,0.328c-0.504,0-0.902-0.123-1.198-0.371
			c-0.296-0.246-0.493-0.633-0.589-1.16l-1.501,0.722c0.162,0.618,0.457,1.11,0.886,1.473c0.555,0.466,1.35,0.7,2.385,0.7
			c0.711,0,1.305-0.097,1.782-0.291c0.476-0.195,0.846-0.492,1.106-0.893c0.26-0.398,0.392-0.828,0.392-1.285
			c0-0.506-0.11-0.93-0.327-1.273C337.535,204.932,337.232,204.662,336.847,204.464z"/>
	</g>
	<rect x="329.552" y="198.633" fill="#201C1D" width="0.374" height="12.074"/>
</g>
<g>
	<g>
		<line fill="none" stroke="#39AB7D" stroke-width="2" stroke-miterlimit="10" x1="183.127" y1="108.74" x2="109.972" y2="101.5"/>
		<g>
			<circle fill="#39AB7D" cx="183.127" cy="108.74" r="7.52"/>
		</g>
	</g>
</g>
<path fill="none" stroke="#37AB7D" stroke-width="2" stroke-miterlimit="10" d="M138.867,190.776
	c13.254,0,24.034,10.78,24.034,24.034c0,0.073-0.007,0.148-0.013,0.223c-0.01,0.177-0.022,0.354-0.025,0.535l-0.09,3.635
	l3.639,0.014c8.808,0.023,15.973,7.213,15.973,16.02c0,8.785-7.151,15.971-15.94,16.016l-0.777,0.004h-65.176
	c-9.808-0.012-17.789-7.994-17.789-17.801c0-7.598,4.838-14.361,12.033-16.83l2.003-0.685l0.353-2.087
	c0.873-5.149,5.295-8.888,10.516-8.888c1.664,0,3.273,0.388,4.78,1.146l3.246,1.63l1.567-3.274
	C121.18,196.148,129.686,190.776,138.867,190.776"/>
<path fill="#37AB7D" d="M497.632-130.296c-17.23,0-32.065,10.088-39.036,24.656c-3.014-1.517-6.408-2.39-10.012-2.39
	c-11.061,0-20.221,8.048-22.01,18.602c-13.172,4.517-22.657,16.979-22.657,31.688c0,18.502,14.996,33.501,33.492,33.518h103.524
	v-0.007c16.896-0.087,30.568-13.804,30.568-30.717c0-16.941-13.704-30.674-30.636-30.725c0.013-0.446,0.067-0.877,0.067-1.326
	C540.934-110.91,521.547-130.296,497.632-130.296L497.632-130.296z"/>
<g>
	<g id="Icon-Lock" transform="translate(284.000000, 430.000000)">
		<path id="Fill-66" fill="#37AB7D" d="M-7.979-250.561h-2.884v-6.15c0-5.96-4.901-10.861-10.861-10.861
			c-5.959,0-10.861,4.901-10.861,10.861v6.15h-2.883v-6.15c0-7.594,6.151-13.746,13.744-13.746c7.594,0,13.745,6.152,13.745,13.746
			V-250.561"/>
		<path id="Fill-67" fill="#37AB7D" d="M-9.42-224.416h-24.606c-2.499,0-4.614-2.115-4.614-4.613v-18.455
			c0-2.499,2.115-4.613,4.614-4.613H-9.42c2.499,0,4.613,2.114,4.613,4.613v18.455C-4.807-226.436-6.921-224.416-9.42-224.416
			L-9.42-224.416z M-34.026-249.022c-0.865,0-1.538,0.673-1.538,1.538v18.455c0,0.863,0.673,1.537,1.538,1.537H-9.42
			c0.864,0,1.537-0.674,1.537-1.537v-18.455c0-0.865-0.673-1.538-1.537-1.538H-34.026L-34.026-249.022z"/>
		<path id="Fill-68" fill="#37AB7D" d="M-18.647-242.871c0,1.73-1.346,3.076-3.076,3.076c-1.729,0-3.075-1.346-3.075-3.076
			s1.346-3.076,3.075-3.076C-19.993-245.947-18.647-244.504-18.647-242.871"/>
		<polyline id="Fill-69" fill="#37AB7D" points="-20.954,-242.871 -22.492,-242.871 -24.03,-233.645 -19.416,-233.645 
			-20.954,-242.871 		"/>
	</g>
</g>
<g>
	<linearGradient id="SVGID_2_" gradientUnits="userSpaceOnUse" x1="182.5264" y1="95.3877" x2="716.167" y2="95.3877">
		<stop  offset="0.1818" style="stop-color:#38AF7F"/>
		<stop  offset="0.1961" style="stop-color:#3EB081;stop-opacity:0.9826"/>
		<stop  offset="0.4748" style="stop-color:#86C5A2;stop-opacity:0.6419"/>
		<stop  offset="0.7113" style="stop-color:#B1D8BF;stop-opacity:0.3529"/>
		<stop  offset="0.8937" style="stop-color:#CBE6D2;stop-opacity:0.13"/>
		<stop  offset="1" style="stop-color:#D5EBD9;stop-opacity:0"/>
	</linearGradient>
	<polygon fill="url(#SVGID_2_)" points="183.728,109.54 182.526,107.94 218.057,81.235 716.167,81.235 716.167,83.235 
		218.725,83.235 	"/>
</g>
<linearGradient id="SVGID_3_" gradientUnits="userSpaceOnUse" x1="182.501" y1="122.9854" x2="715.167" y2="122.9854">
	<stop  offset="0.1818" style="stop-color:#38AF7F"/>
	<stop  offset="0.1961" style="stop-color:#3EB081;stop-opacity:0.9826"/>
	<stop  offset="0.4748" style="stop-color:#86C5A2;stop-opacity:0.6419"/>
	<stop  offset="0.7113" style="stop-color:#B1D8BF;stop-opacity:0.3529"/>
	<stop  offset="0.8937" style="stop-color:#CBE6D2;stop-opacity:0.13"/>
	<stop  offset="1" style="stop-color:#D5EBD9;stop-opacity:0"/>
</linearGradient>
<polygon fill="url(#SVGID_3_)" points="715.167,138.011 218.039,138.011 182.501,109.521 183.753,107.96 218.742,136.011 
	715.167,136.011 "/>
<g>
	<polygon fill="#39AB7D" points="509.728,186.54 508.526,184.94 544.057,158.235 632.167,158.235 632.167,160.235 544.725,160.235 	
		"/>
</g>
<polyline fill="none" stroke="#39AB7D" stroke-width="2" stroke-miterlimit="10" points="631.167,214.011 544.391,214.011 
	509.127,185.74 "/>
<g>
	<g id="Layer_2">
		<g>
			<path fill="#922A8E" d="M50.09,130.208H36.051c-2.111,0-3.829-1.717-3.829-3.828V66.393c0-2.111,1.718-3.829,3.829-3.829H50.09
				c2.111,0,3.829,1.717,3.829,3.829v59.987C53.919,128.491,52.202,130.208,50.09,130.208z M36.051,65.117
				c-0.703,0-1.276,0.572-1.276,1.276v59.987c0,0.704,0.573,1.275,1.276,1.275H50.09c0.703,0,1.276-0.571,1.276-1.275V66.393
				c0-0.704-0.573-1.276-1.276-1.276H36.051z"/>
		</g>
		<g>
			<path fill="#FEBD10" d="M71.788,130.208h-14.04c-2.111,0-3.829-1.717-3.829-3.828V66.393c0-2.111,1.717-3.829,3.829-3.829h14.04
				c2.111,0,3.829,1.717,3.829,3.829v59.987C75.617,128.491,73.899,130.208,71.788,130.208z M57.748,65.117
				c-0.703,0-1.276,0.572-1.276,1.276v59.987c0,0.704,0.573,1.275,1.276,1.275h14.04c0.703,0,1.276-0.571,1.276-1.275V66.393
				c0-0.704-0.573-1.276-1.276-1.276H57.748z"/>
		</g>
		<g>
			<path fill="#922A8E" d="M44.712,108.512h-3.283c-1.558,0-2.826-1.471-2.826-3.278v-33.01c0-1.807,1.268-3.278,2.826-3.278h3.282
				c1.559,0,2.827,1.471,2.827,3.278v33.007C47.538,107.041,46.27,108.512,44.712,108.512z M41.429,70.222
				c-0.854,0-1.549,0.897-1.549,2.001v33.007c0,1.105,0.696,2.004,1.549,2.004h3.282c0.855,0,1.551-0.898,1.551-2.001v-33.01
				c0-1.104-0.696-2.001-1.549-2.001H41.429z"/>
		</g>
		<g>
			<path fill="#922A8E" d="M43.071,121.912c-2.111,0-3.829-1.717-3.829-3.829c0-2.111,1.718-3.828,3.829-3.828
				s3.829,1.717,3.829,3.828C46.9,120.195,45.182,121.912,43.071,121.912z M43.071,115.531c-1.409,0-2.553,1.144-2.553,2.552
				c0,1.409,1.144,2.553,2.553,2.553c1.408,0,2.553-1.144,2.553-2.553C45.624,116.675,44.479,115.531,43.071,115.531z"/>
		</g>
		<g>
			<path fill="#FEBD10" d="M66.409,108.512h-3.282c-1.559,0-2.827-1.471-2.827-3.278v-33.01c0-1.807,1.268-3.278,2.826-3.278h3.282
				c1.559,0,2.827,1.471,2.827,3.278v33.007C69.235,107.041,67.967,108.512,66.409,108.512z M63.126,70.222
				c-0.854,0-1.549,0.897-1.549,2.001v33.007c0,1.105,0.695,2.004,1.549,2.004h3.282c0.855,0,1.55-0.898,1.55-2.001v-33.01
				c0-1.104-0.695-2.001-1.549-2.001H63.126z"/>
		</g>
		<g>
			<path fill="#FEBD10" d="M64.768,121.912c-2.111,0-3.829-1.717-3.829-3.829c0-2.111,1.718-3.828,3.829-3.828
				s3.829,1.717,3.829,3.828C68.597,120.195,66.879,121.912,64.768,121.912z M64.768,115.531c-1.409,0-2.553,1.144-2.553,2.552
				c0,1.409,1.144,2.553,2.553,2.553c1.408,0,2.552-1.144,2.552-2.553C67.32,116.675,66.176,115.531,64.768,115.531z"/>
		</g>
		<path fill="#922A8E" d="M41.794,100.215c-0.352,0-0.638-0.286-0.638-0.638V74.051c0-0.351,0.287-0.638,0.638-0.638
			s0.638,0.287,0.638,0.638v25.526C42.433,99.929,42.146,100.215,41.794,100.215z"/>
		<path fill="#922A8E" d="M44.347,88.729c-0.352,0-0.638-0.287-0.638-0.639V74.051c0-0.351,0.287-0.638,0.638-0.638
			s0.638,0.287,0.638,0.638V88.09C44.985,88.441,44.699,88.729,44.347,88.729z"/>
		<g>
			<path fill="#08A650" d="M94.871,131.01c-1.742,0-3.268-1.179-3.704-2.867L76.08,70.087c-0.258-0.991-0.115-2.021,0.404-2.903
				s1.349-1.509,2.341-1.766l13.587-3.534c2.018-0.524,4.149,0.742,4.667,2.745l15.086,58.056c0.531,2.042-0.699,4.138-2.739,4.671
				l-13.591,3.53C95.519,130.969,95.195,131.01,94.871,131.01z M93.375,64.314c-0.107,0-0.215,0.014-0.321,0.04l-13.588,3.534
				c-0.33,0.086-0.607,0.293-0.778,0.588c-0.174,0.292-0.222,0.638-0.136,0.968l15.086,58.057c0.173,0.668,0.878,1.087,1.557,0.915
				l13.588-3.529c0.681-0.18,1.091-0.878,0.914-1.559L94.61,65.271C94.464,64.708,93.956,64.314,93.375,64.314z"/>
		</g>
		<g>
			<path fill="#08A650" d="M94.96,108.613c-1.341,0-2.547-1.045-2.937-2.543l-8.301-31.944c-0.454-1.75,0.402-3.493,1.912-3.886
				l3.177-0.824c1.497-0.382,3.11,0.729,3.56,2.463l8.3,31.948c0.214,0.826,0.148,1.679-0.189,2.398
				c-0.356,0.764-0.967,1.289-1.721,1.486l-3.177,0.825C95.379,108.588,95.17,108.613,94.96,108.613z M89.434,70.611
				c-0.103,0-0.205,0.015-0.303,0.04l-3.177,0.825c-0.826,0.214-1.274,1.257-0.997,2.326l8.302,31.946
				c0.271,1.045,1.183,1.766,2.003,1.549l3.174-0.824c0.379-0.098,0.693-0.379,0.886-0.789c0.212-0.453,0.252-0.998,0.111-1.537
				l-8.299-31.948C90.897,71.279,90.181,70.611,89.434,70.611z"/>
		</g>
		<g>
			<path fill="#08A650" d="M99.58,121.216c-1.743,0-3.267-1.181-3.706-2.867c-0.258-0.99-0.113-2.021,0.405-2.902
				c0.519-0.882,1.349-1.51,2.338-1.767c0.317-0.081,0.641-0.123,0.967-0.123c1.74,0,3.263,1.178,3.702,2.865
				c0.258,0.988,0.115,2.021-0.404,2.903c-0.516,0.881-1.349,1.511-2.337,1.767C100.228,121.175,99.904,121.216,99.58,121.216z
				 M99.582,114.833c-0.214,0-0.431,0.027-0.643,0.082c-0.662,0.172-1.214,0.589-1.561,1.177s-0.441,1.276-0.269,1.936
				c0.346,1.334,1.757,2.179,3.113,1.831c0.659-0.172,1.214-0.591,1.559-1.179c0.346-0.589,0.443-1.276,0.27-1.937
				C101.758,115.618,100.744,114.833,99.582,114.833z"/>
		</g>
		<path fill="#08A650" d="M92.084,94.258c-0.282,0-0.541-0.189-0.616-0.478l-4.814-18.53c-0.088-0.343,0.115-0.69,0.457-0.779
			c0.341-0.086,0.689,0.116,0.779,0.457l4.815,18.531c0.087,0.342-0.117,0.689-0.459,0.778
			C92.191,94.252,92.139,94.258,92.084,94.258z"/>
		<path fill="#08A650" d="M93.271,88.674c-0.283,0-0.542-0.189-0.617-0.478l-3.53-13.587c-0.087-0.343,0.116-0.69,0.456-0.779
			c0.34-0.087,0.69,0.116,0.778,0.457l3.53,13.587c0.09,0.342-0.115,0.689-0.456,0.779C93.379,88.668,93.325,88.674,93.271,88.674z"
			/>
		<path fill="#FEBD10" d="M63.492,91.281c-0.352,0-0.638-0.287-0.638-0.639V74.051c0-0.351,0.287-0.638,0.638-0.638
			s0.638,0.287,0.638,0.638v16.592C64.13,90.994,63.843,91.281,63.492,91.281z"/>
		<path fill="#FEBD10" d="M66.044,104.044c-0.352,0-0.638-0.286-0.638-0.638V74.051c0-0.351,0.287-0.638,0.638-0.638
			c0.351,0,0.638,0.287,0.638,0.638v29.355C66.682,103.758,66.396,104.044,66.044,104.044z"/>
	</g>
	<g id="Layer_3">
	</g>
</g>
</svg>
