<?xml version="1.0" encoding="utf-8"?>
<!-- Generator: Adobe Illustrator 15.1.0, SVG Export Plug-In . SVG Version: 6.00 Build 0)  -->
<!DOCTYPE svg PUBLIC "-//W3C//DTD SVG 1.1//EN" "http://www.w3.org/Graphics/SVG/1.1/DTD/svg11.dtd">
<svg version="1.1" id="Layer_1" xmlns="http://www.w3.org/2000/svg" xmlns:xlink="http://www.w3.org/1999/xlink" x="0px" y="0px"
	 width="160px" height="35px" viewBox="0 0 160 35" enable-background="new 0 0 160 35" xml:space="preserve">
<g>
	<path d="M40.623,26.733c0,0.079-0.004,0.151-0.011,0.217c-0.007,0.064-0.018,0.122-0.033,0.173s-0.034,0.098-0.06,0.141
		s-0.072,0.1-0.141,0.168c-0.069,0.068-0.218,0.181-0.449,0.336s-0.521,0.309-0.872,0.46s-0.752,0.281-1.207,0.39
		s-0.957,0.162-1.505,0.162c-0.88,0-1.678-0.153-2.393-0.46s-1.323-0.756-1.824-1.348s-0.888-1.321-1.158-2.188
		c-0.271-0.865-0.406-1.854-0.406-2.966c0-1.141,0.145-2.164,0.433-3.069c0.289-0.906,0.695-1.674,1.218-2.306
		c0.523-0.632,1.151-1.115,1.883-1.451c0.732-0.336,1.543-0.503,2.431-0.503c0.418,0,0.824,0.04,1.218,0.119
		c0.394,0.079,0.756,0.18,1.088,0.303c0.332,0.123,0.629,0.264,0.893,0.422c0.263,0.159,0.444,0.287,0.541,0.384
		c0.098,0.098,0.159,0.168,0.184,0.211c0.025,0.043,0.045,0.092,0.06,0.146s0.025,0.115,0.033,0.184
		c0.007,0.068,0.011,0.146,0.011,0.232c0,0.102-0.005,0.189-0.016,0.266c-0.011,0.076-0.029,0.141-0.054,0.195
		c-0.025,0.054-0.056,0.096-0.092,0.125s-0.08,0.043-0.13,0.043c-0.101,0-0.244-0.074-0.428-0.222s-0.426-0.312-0.725-0.493
		c-0.3-0.18-0.666-0.345-1.099-0.493c-0.433-0.148-0.949-0.222-1.548-0.222c-0.657,0-1.26,0.132-1.808,0.395
		c-0.548,0.264-1.02,0.651-1.413,1.164c-0.394,0.513-0.7,1.144-0.92,1.894c-0.22,0.751-0.33,1.613-0.33,2.588
		c0,0.931,0.101,1.758,0.303,2.479c0.202,0.722,0.494,1.33,0.877,1.824c0.382,0.494,0.855,0.871,1.418,1.131s1.202,0.39,1.917,0.39
		c0.584,0,1.095-0.073,1.532-0.222c0.437-0.147,0.81-0.312,1.121-0.492c0.31-0.181,0.564-0.345,0.763-0.493
		c0.198-0.147,0.352-0.222,0.46-0.222c0.043,0,0.08,0.009,0.108,0.027c0.029,0.018,0.052,0.051,0.07,0.098s0.032,0.109,0.043,0.189
		C40.617,26.521,40.623,26.618,40.623,26.733z"/>
	<path d="M51.751,23.421c0,0.779-0.101,1.497-0.303,2.154c-0.202,0.656-0.503,1.227-0.904,1.71s-0.9,0.861-1.5,1.132
		s-1.295,0.405-2.089,0.405c-0.765,0-1.435-0.12-2.008-0.362c-0.574-0.241-1.054-0.588-1.44-1.039
		c-0.386-0.451-0.675-0.998-0.866-1.641c-0.191-0.642-0.287-1.367-0.287-2.176c0-0.779,0.099-1.498,0.298-2.154
		c0.198-0.657,0.498-1.226,0.898-1.705c0.4-0.48,0.9-0.854,1.5-1.121c0.599-0.267,1.299-0.4,2.1-0.4
		c0.765,0,1.435,0.119,2.008,0.357s1.052,0.583,1.435,1.034c0.382,0.451,0.671,0.998,0.866,1.64
		C51.654,21.897,51.751,22.619,51.751,23.421z M50.388,23.54c0-0.557-0.054-1.087-0.163-1.592c-0.108-0.506-0.289-0.951-0.542-1.337
		c-0.252-0.387-0.592-0.693-1.018-0.921c-0.426-0.227-0.956-0.341-1.591-0.341c-0.584,0-1.09,0.104-1.516,0.314
		c-0.426,0.209-0.774,0.499-1.045,0.871c-0.271,0.372-0.471,0.811-0.601,1.315s-0.195,1.05-0.195,1.635
		c0,0.563,0.054,1.099,0.162,1.607c0.108,0.509,0.289,0.955,0.542,1.337c0.252,0.383,0.592,0.687,1.018,0.91
		s0.956,0.335,1.591,0.335c0.585,0,1.09-0.104,1.516-0.313s0.774-0.498,1.045-0.866s0.471-0.805,0.601-1.31
		C50.323,24.68,50.388,24.132,50.388,23.54z"/>
	<path d="M62.588,28.422c0,0.044-0.011,0.083-0.033,0.119s-0.056,0.065-0.103,0.087c-0.047,0.021-0.112,0.039-0.195,0.054
		s-0.186,0.022-0.308,0.022c-0.13,0-0.237-0.008-0.32-0.022s-0.148-0.032-0.195-0.054s-0.081-0.051-0.103-0.087
		c-0.022-0.036-0.033-0.075-0.033-0.119v-5.813c0-0.606-0.047-1.099-0.141-1.478s-0.234-0.704-0.422-0.975
		c-0.188-0.271-0.427-0.479-0.72-0.628c-0.292-0.147-0.633-0.222-1.023-0.222c-0.498,0-0.996,0.177-1.494,0.53
		s-1.021,0.873-1.57,1.559v7.026c0,0.044-0.011,0.083-0.032,0.119c-0.022,0.036-0.056,0.065-0.103,0.087s-0.112,0.039-0.195,0.054
		s-0.189,0.022-0.319,0.022c-0.123,0-0.226-0.008-0.309-0.022s-0.15-0.032-0.2-0.054c-0.051-0.021-0.085-0.051-0.103-0.087
		s-0.027-0.075-0.027-0.119v-9.798c0-0.043,0.009-0.083,0.027-0.119c0.018-0.035,0.052-0.066,0.103-0.092
		c0.05-0.025,0.114-0.043,0.189-0.054s0.175-0.017,0.297-0.017c0.123,0,0.224,0.006,0.303,0.017s0.141,0.028,0.184,0.054
		s0.074,0.057,0.092,0.092c0.018,0.036,0.027,0.076,0.027,0.119v1.386c0.563-0.628,1.115-1.082,1.656-1.363
		c0.542-0.282,1.079-0.423,1.613-0.423c0.642,0,1.184,0.108,1.624,0.325c0.44,0.216,0.795,0.509,1.066,0.877
		c0.271,0.368,0.465,0.797,0.584,1.288s0.179,1.083,0.179,1.775V28.422z"/>
	<path d="M74.107,28.422c0,0.044-0.011,0.083-0.033,0.119s-0.056,0.065-0.103,0.087c-0.047,0.021-0.112,0.039-0.195,0.054
		s-0.186,0.022-0.308,0.022c-0.13,0-0.237-0.008-0.32-0.022s-0.148-0.032-0.195-0.054s-0.081-0.051-0.103-0.087
		c-0.022-0.036-0.033-0.075-0.033-0.119v-5.813c0-0.606-0.047-1.099-0.141-1.478s-0.234-0.704-0.422-0.975
		c-0.188-0.271-0.427-0.479-0.72-0.628c-0.292-0.147-0.633-0.222-1.023-0.222c-0.498,0-0.996,0.177-1.494,0.53
		s-1.021,0.873-1.57,1.559v7.026c0,0.044-0.011,0.083-0.032,0.119c-0.022,0.036-0.056,0.065-0.103,0.087s-0.112,0.039-0.195,0.054
		s-0.189,0.022-0.319,0.022c-0.123,0-0.226-0.008-0.309-0.022s-0.15-0.032-0.2-0.054c-0.051-0.021-0.085-0.051-0.103-0.087
		s-0.027-0.075-0.027-0.119v-9.798c0-0.043,0.009-0.083,0.027-0.119c0.018-0.035,0.052-0.066,0.103-0.092
		c0.05-0.025,0.114-0.043,0.189-0.054s0.175-0.017,0.297-0.017c0.123,0,0.224,0.006,0.303,0.017s0.141,0.028,0.184,0.054
		s0.074,0.057,0.092,0.092c0.018,0.036,0.027,0.076,0.027,0.119v1.386c0.563-0.628,1.115-1.082,1.656-1.363
		c0.542-0.282,1.079-0.423,1.613-0.423c0.642,0,1.184,0.108,1.624,0.325c0.44,0.216,0.795,0.509,1.066,0.877
		c0.271,0.368,0.465,0.797,0.584,1.288s0.179,1.083,0.179,1.775V28.422z"/>
	<path d="M85.67,23.02c0,0.261-0.069,0.438-0.206,0.536s-0.271,0.146-0.4,0.146h-6.68c0,0.606,0.06,1.154,0.179,1.646
		s0.315,0.911,0.59,1.261c0.274,0.351,0.631,0.619,1.072,0.807c0.44,0.188,0.982,0.282,1.624,0.282c0.455,0,0.862-0.04,1.224-0.119
		c0.361-0.08,0.673-0.168,0.937-0.266s0.479-0.186,0.649-0.266c0.17-0.079,0.291-0.119,0.363-0.119c0.043,0,0.082,0.012,0.118,0.033
		s0.065,0.056,0.087,0.103s0.038,0.106,0.049,0.179s0.017,0.162,0.017,0.271c0,0.051-0.004,0.1-0.011,0.146
		c-0.008,0.047-0.017,0.09-0.027,0.13c-0.011,0.039-0.027,0.077-0.049,0.113s-0.051,0.072-0.087,0.108s-0.147,0.1-0.335,0.189
		c-0.188,0.091-0.434,0.181-0.736,0.271c-0.304,0.091-0.655,0.172-1.056,0.244c-0.4,0.071-0.832,0.107-1.294,0.107
		c-0.758,0-1.429-0.113-2.014-0.341c-0.584-0.228-1.075-0.563-1.472-1.007c-0.397-0.443-0.698-0.994-0.904-1.65
		c-0.206-0.657-0.309-1.419-0.309-2.284c0-0.83,0.106-1.574,0.319-2.23c0.213-0.657,0.518-1.215,0.915-1.673s0.875-0.809,1.435-1.05
		c0.559-0.242,1.182-0.363,1.868-0.363c0.736,0,1.364,0.123,1.884,0.368s0.947,0.576,1.282,0.99
		c0.336,0.416,0.581,0.897,0.736,1.445c0.155,0.549,0.233,1.126,0.233,1.732V23.02z M84.338,22.641
		c0.021-1.039-0.217-1.851-0.715-2.436c-0.497-0.585-1.223-0.877-2.176-0.877c-0.491,0-0.922,0.092-1.293,0.276
		c-0.372,0.184-0.686,0.428-0.942,0.73c-0.256,0.303-0.453,0.655-0.59,1.056c-0.137,0.4-0.217,0.817-0.238,1.25H84.338z"/>
	<path d="M95.479,26.972c0,0.086-0.004,0.164-0.012,0.232c-0.007,0.068-0.018,0.128-0.032,0.179s-0.034,0.096-0.06,0.136
		c-0.025,0.039-0.085,0.106-0.179,0.2s-0.251,0.213-0.471,0.357c-0.22,0.144-0.467,0.271-0.741,0.379
		c-0.274,0.107-0.57,0.196-0.888,0.265c-0.318,0.068-0.646,0.103-0.985,0.103c-0.679,0-1.279-0.113-1.803-0.341
		s-0.962-0.563-1.315-1.007c-0.354-0.443-0.622-0.988-0.807-1.635c-0.184-0.646-0.275-1.391-0.275-2.235
		c0-0.953,0.113-1.769,0.341-2.447c0.228-0.678,0.539-1.233,0.937-1.667c0.396-0.433,0.86-0.752,1.391-0.958
		s1.099-0.309,1.705-0.309c0.325,0,0.636,0.031,0.932,0.092c0.296,0.062,0.568,0.143,0.817,0.244
		c0.249,0.101,0.471,0.217,0.665,0.347c0.195,0.13,0.338,0.239,0.428,0.33c0.091,0.09,0.151,0.158,0.185,0.205
		c0.032,0.047,0.058,0.1,0.075,0.157c0.019,0.058,0.031,0.121,0.038,0.189s0.011,0.15,0.011,0.244c0,0.209-0.03,0.355-0.092,0.438
		c-0.062,0.084-0.128,0.125-0.2,0.125c-0.102,0-0.226-0.065-0.374-0.195c-0.147-0.13-0.337-0.271-0.568-0.427
		c-0.23-0.155-0.51-0.298-0.839-0.428c-0.328-0.13-0.72-0.195-1.175-0.195c-0.938,0-1.661,0.361-2.17,1.083
		s-0.764,1.765-0.764,3.129c0,0.686,0.068,1.286,0.206,1.803c0.137,0.516,0.334,0.945,0.59,1.288s0.568,0.599,0.937,0.769
		s0.783,0.254,1.245,0.254c0.433,0,0.815-0.068,1.147-0.205c0.332-0.138,0.62-0.289,0.866-0.455
		c0.245-0.166,0.449-0.317,0.611-0.454c0.162-0.138,0.283-0.206,0.363-0.206c0.043,0,0.081,0.013,0.113,0.038
		s0.06,0.064,0.081,0.119c0.021,0.054,0.038,0.119,0.049,0.194C95.473,26.782,95.479,26.87,95.479,26.972z"/>
	<path d="M106.033,18.397c0.165,0,0.277,0.041,0.335,0.124s0.087,0.196,0.087,0.341v9.56c0,0.044-0.011,0.083-0.032,0.119
		c-0.022,0.036-0.057,0.065-0.104,0.087s-0.111,0.039-0.194,0.054s-0.187,0.022-0.309,0.022c-0.13,0-0.236-0.008-0.319-0.022
		s-0.148-0.032-0.195-0.054s-0.081-0.051-0.103-0.087s-0.032-0.075-0.032-0.119V19.49h-5.413v5.922c0,0.744,0.106,1.311,0.319,1.7
		s0.601,0.585,1.163,0.585c0.174,0,0.331-0.019,0.472-0.055s0.265-0.075,0.373-0.119c0.108-0.043,0.2-0.083,0.276-0.119
		c0.075-0.036,0.143-0.054,0.2-0.054c0.036,0,0.068,0.007,0.098,0.021c0.028,0.015,0.052,0.042,0.07,0.081
		c0.018,0.04,0.032,0.091,0.043,0.151c0.011,0.062,0.017,0.14,0.017,0.233c0,0.151-0.013,0.274-0.038,0.368
		s-0.065,0.167-0.119,0.222c-0.054,0.054-0.134,0.104-0.238,0.151s-0.226,0.087-0.362,0.119c-0.138,0.032-0.281,0.058-0.434,0.076
		c-0.151,0.018-0.299,0.026-0.443,0.026c-0.483,0-0.896-0.064-1.234-0.194s-0.617-0.327-0.834-0.59
		c-0.216-0.264-0.373-0.598-0.471-1.002s-0.146-0.88-0.146-1.429V19.49h-1.462c-0.102,0-0.181-0.045-0.238-0.135
		c-0.058-0.091-0.087-0.226-0.087-0.406c0-0.094,0.008-0.175,0.022-0.243c0.014-0.069,0.035-0.127,0.064-0.174
		c0.028-0.047,0.063-0.081,0.103-0.103c0.04-0.021,0.085-0.032,0.136-0.032h1.462v-2.403c0-0.043,0.009-0.083,0.026-0.119
		c0.019-0.036,0.053-0.067,0.104-0.092c0.05-0.025,0.117-0.043,0.2-0.054s0.186-0.016,0.309-0.016c0.13,0,0.236,0.005,0.319,0.016
		c0.082,0.011,0.147,0.029,0.194,0.054c0.047,0.025,0.081,0.056,0.103,0.092c0.022,0.036,0.033,0.076,0.033,0.119v2.403H106.033z
		 M106.649,15.323c0,0.346-0.061,0.581-0.184,0.704c-0.123,0.123-0.347,0.184-0.671,0.184c-0.318,0-0.536-0.06-0.655-0.179
		s-0.179-0.352-0.179-0.698c0-0.346,0.062-0.581,0.184-0.704c0.123-0.123,0.347-0.184,0.672-0.184c0.317,0,0.536,0.06,0.654,0.179
		C106.59,14.744,106.649,14.976,106.649,15.323z"/>
	<path d="M118.018,28.422c0,0.044-0.011,0.083-0.032,0.119s-0.056,0.065-0.103,0.087s-0.112,0.039-0.195,0.054
		s-0.186,0.022-0.309,0.022c-0.13,0-0.236-0.008-0.319-0.022s-0.147-0.032-0.194-0.054s-0.081-0.051-0.104-0.087
		c-0.021-0.036-0.032-0.075-0.032-0.119v-5.813c0-0.606-0.047-1.099-0.141-1.478s-0.234-0.704-0.422-0.975
		c-0.188-0.271-0.428-0.479-0.721-0.628c-0.292-0.147-0.633-0.222-1.022-0.222c-0.498,0-0.996,0.177-1.494,0.53
		s-1.021,0.873-1.569,1.559v7.026c0,0.044-0.012,0.083-0.033,0.119s-0.056,0.065-0.103,0.087s-0.112,0.039-0.195,0.054
		s-0.189,0.022-0.319,0.022c-0.122,0-0.226-0.008-0.309-0.022s-0.149-0.032-0.2-0.054c-0.05-0.021-0.085-0.051-0.103-0.087
		s-0.027-0.075-0.027-0.119v-9.798c0-0.043,0.01-0.083,0.027-0.119c0.018-0.035,0.053-0.066,0.103-0.092
		c0.051-0.025,0.114-0.043,0.189-0.054c0.076-0.011,0.175-0.017,0.298-0.017s0.224,0.006,0.304,0.017
		c0.079,0.011,0.141,0.028,0.184,0.054s0.074,0.057,0.092,0.092c0.019,0.036,0.027,0.076,0.027,0.119v1.386
		c0.563-0.628,1.115-1.082,1.656-1.363c0.541-0.282,1.079-0.423,1.613-0.423c0.643,0,1.184,0.108,1.624,0.325
		c0.44,0.216,0.796,0.509,1.066,0.877s0.465,0.797,0.584,1.288s0.179,1.083,0.179,1.775V28.422z"/>
	<path d="M129.439,18.949c0,0.202-0.033,0.343-0.098,0.422c-0.065,0.08-0.148,0.119-0.249,0.119h-1.548
		c0.303,0.311,0.514,0.648,0.633,1.013s0.179,0.749,0.179,1.152c0,0.557-0.089,1.051-0.266,1.483c-0.177,0.434-0.428,0.8-0.752,1.1
		c-0.325,0.299-0.711,0.528-1.158,0.688c-0.448,0.158-0.942,0.237-1.483,0.237c-0.44,0-0.859-0.061-1.256-0.184
		c-0.397-0.123-0.707-0.274-0.931-0.455c-0.145,0.145-0.264,0.311-0.357,0.498c-0.094,0.188-0.141,0.404-0.141,0.649
		c0,0.274,0.131,0.506,0.395,0.693s0.604,0.289,1.023,0.303l2.652,0.108c0.447,0.015,0.868,0.076,1.261,0.185
		c0.394,0.108,0.738,0.269,1.034,0.481s0.53,0.475,0.704,0.785c0.173,0.311,0.26,0.675,0.26,1.093c0,0.434-0.089,0.849-0.266,1.245
		c-0.177,0.397-0.451,0.745-0.822,1.045c-0.372,0.3-0.847,0.538-1.424,0.715s-1.267,0.265-2.068,0.265
		c-0.765,0-1.416-0.066-1.954-0.2c-0.537-0.134-0.978-0.317-1.32-0.552s-0.592-0.511-0.747-0.828
		c-0.155-0.318-0.232-0.66-0.232-1.028c0-0.253,0.028-0.491,0.086-0.715c0.059-0.224,0.146-0.437,0.266-0.639
		s0.267-0.396,0.444-0.585c0.177-0.188,0.38-0.379,0.611-0.573c-0.368-0.188-0.639-0.415-0.813-0.683
		c-0.173-0.267-0.26-0.552-0.26-0.854c0-0.448,0.087-0.843,0.26-1.186c0.174-0.343,0.383-0.651,0.628-0.926
		c-0.209-0.274-0.371-0.574-0.486-0.899c-0.116-0.324-0.174-0.714-0.174-1.169c0-0.548,0.091-1.041,0.271-1.478
		c0.181-0.437,0.432-0.807,0.753-1.109c0.321-0.304,0.705-0.536,1.152-0.698c0.448-0.163,0.938-0.244,1.473-0.244
		c0.281,0,0.547,0.017,0.796,0.049s0.478,0.074,0.688,0.125h2.891c0.122,0,0.211,0.047,0.265,0.141
		C129.412,18.632,129.439,18.769,129.439,18.949z M128.054,29.396c0-0.477-0.193-0.841-0.58-1.094
		c-0.386-0.252-0.903-0.39-1.553-0.411l-2.848-0.098c-0.26,0.202-0.473,0.394-0.639,0.574s-0.298,0.355-0.396,0.525
		c-0.097,0.169-0.164,0.335-0.2,0.497c-0.036,0.163-0.054,0.327-0.054,0.493c0,0.534,0.269,0.938,0.807,1.212
		c0.537,0.274,1.286,0.412,2.246,0.412c0.606,0,1.113-0.06,1.521-0.179c0.407-0.119,0.737-0.276,0.99-0.471
		c0.253-0.195,0.433-0.419,0.541-0.672S128.054,29.671,128.054,29.396z M127.024,21.678c0-0.744-0.203-1.325-0.611-1.743
		c-0.408-0.419-0.987-0.628-1.737-0.628c-0.383,0-0.719,0.064-1.007,0.194c-0.289,0.13-0.527,0.308-0.715,0.531
		s-0.328,0.483-0.422,0.779s-0.141,0.609-0.141,0.941c0,0.722,0.203,1.291,0.611,1.705c0.407,0.416,0.979,0.623,1.716,0.623
		c0.39,0,0.73-0.065,1.023-0.195c0.292-0.13,0.532-0.305,0.72-0.524c0.188-0.221,0.328-0.477,0.422-0.77
		C126.978,22.3,127.024,21.995,127.024,21.678z"/>
</g>
</svg>
