<?xml version="1.0" encoding="utf-8"?>
<!-- Generator: Adobe Illustrator 15.1.0, SVG Export Plug-In . SVG Version: 6.00 Build 0)  -->
<!DOCTYPE svg PUBLIC "-//W3C//DTD SVG 1.1//EN" "http://www.w3.org/Graphics/SVG/1.1/DTD/svg11.dtd">
<svg version="1.1" id="Layer_1" xmlns="http://www.w3.org/2000/svg" xmlns:xlink="http://www.w3.org/1999/xlink" x="0px" y="0px"
	 width="19px" height="19px" viewBox="0 0 19 19" enable-background="new 0 0 19 19" xml:space="preserve">
<path fill="#FFFFFF" d="M4.034,2.091c0.188-0.187,0.343-0.456,0.569-0.54C4.889,1.444,5.231,1.489,5.55,1.467
	C5.527,1.784,5.614,2.175,5.46,2.404c-0.491,0.73-1.12,1.368-1.607,2.1c-2.304,3.462-1.947,7.95,0.83,11.033
	c0.367,0.406,1.086,0.857,0.469,1.461c-0.644,0.63-1.04-0.151-1.403-0.54c-3.538-3.78-3.599-9.818-0.16-13.812
	c0.153-0.178,0.314-0.352,0.472-0.526C4.052,2.11,4.043,2.101,4.034,2.091z"/>
<path fill="#FFFFFF" d="M5.216,4.749c0.258-0.258,0.364-0.449,0.513-0.494c0.302-0.091,0.627-0.103,0.943-0.147
	C6.66,4.449,6.755,4.848,6.611,5.118c-0.23,0.433-0.662,0.753-0.934,1.169c-1.396,2.135-1.234,4.625,0.418,6.841
	c0.07,0.095,0.205,0.173,0.219,0.271c0.052,0.361,0.228,0.867,0.06,1.063c-0.385,0.448-0.8,0.113-1.092-0.256
	c-0.948-1.199-1.641-2.521-1.793-4.067C3.282,8.025,3.933,6.189,5.216,4.749z"/>
<path fill="#FFFFFF" d="M7.111,6.613c0.146,0,0.567-0.115,0.782,0.045C8.048,6.774,8.067,7.373,7.91,7.559
	C6.936,8.727,6.84,9.84,7.838,11.05c0.153,0.186,0.001,0.622-0.009,0.941c-0.333-0.065-0.773-0.019-0.985-0.215
	C5.468,10.493,5.528,8.139,7.111,6.613z"/>
<path fill="#FFFFFF" d="M15.384,2.119c0.157,0.175,0.317,0.348,0.471,0.526c3.44,3.994,3.379,10.033-0.159,13.812
	c-0.363,0.389-0.758,1.17-1.403,0.54c-0.617-0.604,0.104-1.055,0.47-1.461c2.776-3.083,3.134-7.57,0.829-11.033
	c-0.487-0.732-1.116-1.369-1.606-2.1c-0.154-0.229-0.065-0.62-0.09-0.937c0.318,0.021,0.661-0.023,0.947,0.084
	c0.226,0.084,0.382,0.353,0.569,0.54C15.402,2.101,15.393,2.11,15.384,2.119z"/>
<path fill="#FFFFFF" d="M15.957,10.14c-0.153,1.545-0.846,2.868-1.795,4.067c-0.291,0.369-0.707,0.704-1.092,0.255
	c-0.168-0.195,0.007-0.701,0.06-1.063c0.015-0.099,0.149-0.177,0.22-0.271c1.65-2.217,1.813-4.707,0.418-6.842
	c-0.273-0.417-0.704-0.736-0.936-1.169c-0.144-0.271-0.049-0.67-0.062-1.011c0.315,0.045,0.642,0.056,0.943,0.147
	c0.149,0.045,0.255,0.236,0.514,0.494C15.511,6.189,16.164,8.025,15.957,10.14z"/>
<path fill="#FFFFFF" d="M12.601,11.776c-0.212,0.198-0.651,0.15-0.984,0.216c-0.011-0.32-0.163-0.756-0.01-0.942
	c0.999-1.209,0.902-2.323-0.072-3.49c-0.155-0.187-0.138-0.785,0.017-0.901c0.215-0.161,0.638-0.044,0.782-0.045
	C13.916,8.139,13.978,10.493,12.601,11.776z"/>
<path fill="#BECFBE" d="M3.554,1.612c0.188-0.187,0.344-0.456,0.569-0.54C4.409,0.965,4.751,1.009,5.07,0.988
	C5.047,1.304,5.135,1.695,4.98,1.924c-0.49,0.73-1.119,1.367-1.607,2.1c-2.304,3.462-1.946,7.949,0.83,11.033
	c0.367,0.406,1.087,0.857,0.469,1.46c-0.645,0.63-1.039-0.151-1.403-0.538c-3.538-3.781-3.6-9.819-0.16-13.812
	C3.264,1.987,3.424,1.815,3.581,1.64C3.572,1.63,3.563,1.621,3.554,1.612z"/>
<path fill="#BECFBE" d="M4.737,4.269C4.995,4.011,5.101,3.82,5.25,3.775c0.301-0.091,0.627-0.103,0.943-0.147
	c-0.013,0.341,0.082,0.74-0.063,1.011C5.901,5.071,5.47,5.392,5.197,5.808c-1.395,2.135-1.233,4.625,0.418,6.841
	c0.07,0.095,0.206,0.173,0.22,0.271c0.052,0.361,0.228,0.867,0.06,1.063c-0.386,0.448-0.801,0.113-1.093-0.256
	c-0.948-1.199-1.642-2.521-1.793-4.067C2.802,7.545,3.454,5.709,4.737,4.269z"/>
<path fill="#BECFBE" d="M6.632,6.133c0.145,0,0.567-0.115,0.782,0.045c0.155,0.116,0.173,0.714,0.017,0.9
	C6.457,8.247,6.36,9.36,7.358,10.57c0.153,0.185,0.001,0.621-0.01,0.942c-0.333-0.066-0.773-0.02-0.984-0.216
	C4.988,10.014,5.049,7.659,6.632,6.133z"/>
<path fill="#BECFBE" d="M14.903,1.64c0.158,0.175,0.318,0.348,0.473,0.527c3.439,3.993,3.378,10.032-0.16,13.812
	c-0.363,0.387-0.758,1.168-1.403,0.538c-0.616-0.603,0.103-1.054,0.47-1.46c2.776-3.084,3.134-7.571,0.829-11.033
	c-0.487-0.732-1.116-1.369-1.606-2.1c-0.154-0.229-0.066-0.62-0.09-0.937c0.318,0.021,0.661-0.023,0.947,0.084
	c0.226,0.084,0.382,0.353,0.569,0.54C14.922,1.621,14.913,1.63,14.903,1.64z"/>
<path fill="#BECFBE" d="M15.477,9.66c-0.153,1.546-0.845,2.869-1.794,4.068c-0.291,0.369-0.706,0.705-1.092,0.255
	c-0.168-0.195,0.007-0.701,0.06-1.063c0.015-0.099,0.149-0.177,0.219-0.271c1.651-2.217,1.814-4.707,0.418-6.842
	c-0.272-0.417-0.704-0.737-0.935-1.169c-0.144-0.271-0.049-0.67-0.062-1.012c0.315,0.045,0.642,0.056,0.944,0.147
	c0.147,0.045,0.254,0.236,0.513,0.494C15.032,5.709,15.684,7.545,15.477,9.66z"/>
<path fill="#BECFBE" d="M12.121,11.297c-0.212,0.197-0.651,0.15-0.985,0.216c-0.01-0.321-0.162-0.756-0.009-0.942
	c0.998-1.21,0.902-2.324-0.072-3.491c-0.155-0.187-0.138-0.785,0.018-0.901c0.214-0.16,0.636-0.044,0.781-0.045
	C13.437,7.659,13.497,10.014,12.121,11.297z"/>
</svg>
