<?xml version="1.0" encoding="utf-8"?>
<!-- Generator: Adobe Illustrator 15.1.0, SVG Export Plug-In . SVG Version: 6.00 Build 0)  -->
<!DOCTYPE svg PUBLIC "-//W3C//DTD SVG 1.1//EN" "http://www.w3.org/Graphics/SVG/1.1/DTD/svg11.dtd">
<svg version="1.1" id="Layer_1" xmlns="http://www.w3.org/2000/svg" xmlns:xlink="http://www.w3.org/1999/xlink" x="0px" y="0px"
	 width="120px" height="100px" viewBox="0 0 120 100" enable-background="new 0 0 120 100" xml:space="preserve">
<path fill="#00633D" d="M38.804,10.09c0.781-0.779,1.432-1.902,2.372-2.253c1.195-0.445,2.623-0.261,3.95-0.349
	c-0.096,1.32,0.269,2.95-0.372,3.905c-2.046,3.045-4.67,5.702-6.704,8.755c-9.608,14.438-8.116,33.147,3.46,46.004
	c1.53,1.697,4.532,3.578,1.958,6.092c-2.688,2.626-4.335-0.63-5.852-2.248c-14.751-15.762-15.008-40.942-0.665-57.594
	c0.641-0.746,1.312-1.466,1.966-2.197C38.88,10.166,38.842,10.128,38.804,10.09z"/>
<path fill="#00633D" d="M43.737,21.171c1.077-1.076,1.517-1.873,2.139-2.061c1.258-0.379,2.616-0.428,3.934-0.614
	c-0.054,1.424,0.342,3.086-0.26,4.217c-0.959,1.804-2.759,3.14-3.893,4.875c-5.819,8.902-5.146,19.285,1.742,28.53
	c0.292,0.393,0.856,0.719,0.916,1.129c0.216,1.505,0.949,3.612,0.249,4.431c-1.607,1.87-3.339,0.475-4.556-1.066
	c-3.953-5.002-6.844-10.511-7.477-16.958C35.667,34.834,38.384,27.176,43.737,21.171z"/>
<path fill="#00633D" d="M51.638,28.944c0.605,0.003,2.363-0.48,3.261,0.189c0.646,0.484,0.722,2.979,0.07,3.757
	c-4.063,4.867-4.464,9.51-0.301,14.555c0.639,0.774,0.005,2.594-0.04,3.931c-1.391-0.276-3.224-0.078-4.106-0.901
	C44.783,45.126,45.036,35.309,51.638,28.944z"/>
<path fill="#00633D" d="M86.133,10.205c0.654,0.731,1.325,1.451,1.967,2.197c14.342,16.651,14.086,41.833-0.666,57.594
	c-1.517,1.618-3.162,4.874-5.852,2.248c-2.574-2.514,0.428-4.395,1.958-6.092C95.115,53.295,96.607,34.585,87,20.148
	c-2.034-3.053-4.658-5.709-6.704-8.755c-0.642-0.955-0.274-2.584-0.372-3.905c1.327,0.088,2.756-0.096,3.95,0.349
	c0.938,0.351,1.591,1.474,2.372,2.253C86.208,10.128,86.17,10.166,86.133,10.205z"/>
<path fill="#00633D" d="M88.521,43.649c-0.639,6.447-3.524,11.96-7.479,16.962c-1.217,1.541-2.948,2.938-4.556,1.063
	c-0.7-0.814,0.031-2.926,0.248-4.431c0.06-0.41,0.623-0.736,0.914-1.129c6.888-9.245,7.563-19.628,1.742-28.53
	c-1.137-1.736-2.937-3.071-3.896-4.875c-0.604-1.131-0.206-2.793-0.262-4.217c1.315,0.186,2.678,0.234,3.937,0.614
	c0.622,0.188,1.063,0.985,2.142,2.061C86.666,27.176,89.384,34.834,88.521,43.649z"/>
<path fill="#00633D" d="M74.527,50.477c-0.883,0.822-2.715,0.625-4.105,0.9c-0.046-1.337-0.679-3.156-0.04-3.931
	c4.163-5.044,3.765-9.688-0.301-14.555c-0.649-0.779-0.576-3.273,0.071-3.757c0.896-0.669,2.654-0.186,3.26-0.189
	C80.016,35.309,80.268,45.126,74.527,50.477z"/>
<g>
	<path fill="#FFFFFF" d="M3.355,93.688c0-0.123,0.005-0.244,0.015-0.359c0.013-0.117,0.023-0.229,0.034-0.329
		c0-0.785,0-1.513,0-2.169c0-0.661,0-1.278,0-1.854c0-0.574,0-1.107,0-1.615c0-0.502,0-0.984,0-1.461
		c0-0.473,0.002-0.936,0.006-1.391c0.002-0.453,0.004-0.919,0.004-1.394c-0.028-0.078-0.056-0.188-0.082-0.329
		c-0.024-0.145-0.037-0.273-0.037-0.396c0-0.119,0.019-0.238,0.054-0.354c0.037-0.118,0.094-0.229,0.171-0.317
		c0.075-0.094,0.17-0.169,0.284-0.226c0.112-0.06,0.243-0.086,0.388-0.086c0.238,0,0.479,0.017,0.722,0.045
		c0.243,0.022,0.517,0.041,0.821,0.041c0.253,0,0.508-0.017,0.763-0.038c0.253-0.021,0.524-0.04,0.813-0.048
		c0.854,0,1.625,0.086,2.317,0.256c0.693,0.169,1.282,0.433,1.771,0.788c0.489,0.354,0.865,0.811,1.131,1.355
		c0.265,0.551,0.396,1.207,0.396,1.971c0,0.727-0.101,1.363-0.3,1.93c-0.2,0.563-0.458,1.053-0.772,1.471
		c-0.313,0.42-0.662,0.771-1.05,1.051c-0.387,0.275-0.764,0.488-1.131,0.639c0.051,0.306,0.132,0.593,0.242,0.859
		c0.109,0.27,0.252,0.506,0.424,0.707c0.171,0.2,0.374,0.361,0.606,0.479c0.229,0.114,0.49,0.179,0.778,0.179
		c0.215,0,0.411-0.029,0.588-0.104c0.179-0.063,0.333-0.196,0.462-0.396c0.079-0.109,0.176-0.212,0.288-0.3
		c0.113-0.088,0.258-0.134,0.432-0.134c0.306,0,0.542,0.088,0.712,0.257c0.169,0.169,0.253,0.384,0.253,0.646
		c0,0.239-0.068,0.477-0.207,0.691c-0.138,0.223-0.333,0.415-0.584,0.58c-0.251,0.168-0.556,0.3-0.911,0.396
		c-0.354,0.102-0.75,0.146-1.185,0.146c-0.403,0-0.765-0.06-1.09-0.174c-0.324-0.116-0.614-0.271-0.872-0.468
		c-0.257-0.192-0.484-0.418-0.681-0.67c-0.199-0.25-0.367-0.516-0.509-0.789c-0.143-0.271-0.257-0.545-0.348-0.813
		c-0.09-0.271-0.162-0.522-0.211-0.762c-0.068,0-0.159,0-0.271,0c-0.114,0-0.23,0-0.349,0c-0.118,0-0.235-0.003-0.352-0.007
		c-0.115-0.004-0.209-0.004-0.283-0.004C6.442,91.184,6.24,91.177,6,91.175c-0.24-0.003-0.459-0.005-0.657-0.005v1.237
		c0.012,0.266,0.045,0.522,0.104,0.774c0.056,0.252,0.084,0.51,0.084,0.771c0,0.164-0.033,0.301-0.098,0.415
		c-0.066,0.11-0.148,0.207-0.25,0.28c-0.102,0.076-0.212,0.134-0.33,0.164c-0.12,0.035-0.233,0.055-0.339,0.055
		c-0.171,0-0.326-0.029-0.467-0.09c-0.14-0.063-0.262-0.145-0.364-0.245s-0.183-0.229-0.241-0.37
		C3.384,94.023,3.355,93.864,3.355,93.688z M5.338,89.352c0.146,0.006,0.317,0.017,0.517,0.021c0.196,0.006,0.387,0.012,0.566,0.021
		c0.181,0.006,0.342,0.01,0.483,0.014c0.141,0.002,0.23,0.004,0.271,0.004c0.762,0,1.387-0.104,1.876-0.313
		c0.488-0.209,0.871-0.486,1.148-0.83c0.277-0.347,0.466-0.74,0.573-1.188c0.103-0.445,0.154-0.901,0.154-1.371
		c0-0.413-0.063-0.762-0.193-1.049c-0.129-0.283-0.303-0.521-0.517-0.706c-0.215-0.188-0.458-0.333-0.729-0.438
		c-0.271-0.105-0.547-0.188-0.826-0.238c-0.281-0.051-0.554-0.082-0.822-0.094c-0.268-0.013-0.504-0.018-0.708-0.018
		c-0.289,0-0.582,0.004-0.877,0.012c-0.296,0.012-0.616,0.018-0.961,0.021c-0.012,0.218-0.02,0.408-0.022,0.587
		c-0.002,0.175-0.006,0.347-0.007,0.512c-0.002,0.168-0.006,0.337-0.006,0.511s0,0.364,0,0.58c0,0.387,0.003,0.74,0.006,1.069
		c0.001,0.332,0.007,0.649,0.013,0.967c0.005,0.313,0.012,0.63,0.021,0.942C5.307,88.678,5.319,89.008,5.338,89.352z M9.31,90.979
		c-0.004,0-0.008,0.002-0.008,0.014L9.31,90.979z"/>
	<path fill="#FFFFFF" d="M17.249,93.952c0-0.288,0.021-0.572,0.063-0.853c0.043-0.279,0.064-0.578,0.064-0.896
		c0-1.438-0.013-2.891-0.039-4.348C17.312,86.4,17.3,84.904,17.3,83.369c0-0.158-0.018-0.317-0.051-0.479
		c-0.034-0.16-0.051-0.334-0.051-0.521c0-0.146,0.02-0.285,0.06-0.415c0.038-0.13,0.107-0.244,0.204-0.345
		c0.096-0.101,0.228-0.176,0.398-0.231c0.169-0.056,0.38-0.085,0.637-0.085c0.253,0,0.453,0.098,0.601,0.288
		c0.146,0.19,0.22,0.448,0.22,0.771c0,0.1-0.01,0.189-0.025,0.283c-0.019,0.094-0.034,0.189-0.052,0.291
		c-0.01,0.486-0.019,1.01-0.026,1.568c-0.005,0.559-0.007,1.199-0.007,1.923c0,0.644,0.002,1.302,0.007,1.974
		c0.007,0.674,0.016,1.318,0.026,1.939c0.012,0.621,0.027,1.202,0.047,1.74c0.021,0.541,0.043,1.005,0.072,1.396v-0.01
		c0.012,0.085,0.021,0.165,0.03,0.242c0.009,0.075,0.013,0.153,0.013,0.231c0,0.137-0.017,0.262-0.047,0.377
		c-0.031,0.112-0.084,0.217-0.156,0.301c-0.075,0.086-0.176,0.146-0.305,0.191c-0.131,0.051-0.292,0.067-0.483,0.067
		c-0.226,0-0.414-0.021-0.563-0.063c-0.149-0.039-0.268-0.099-0.356-0.179c-0.088-0.079-0.151-0.176-0.187-0.292
		C17.267,94.23,17.249,94.098,17.249,93.952z"/>
	<path fill="#FFFFFF" d="M23.381,94.087c0-0.235,0.018-0.437,0.051-0.601c0.034-0.163,0.054-0.24,0.059-0.229
		c0.011-0.614,0.021-1.239,0.03-1.872c0.009-0.632,0.012-1.303,0.012-2.008c0-0.445,0-0.932,0-1.453s-0.003-1.05-0.012-1.584
		c-0.008-0.533-0.021-1.059-0.038-1.574c-0.017-0.518-0.04-0.996-0.068-1.438c-0.022-0.13-0.039-0.246-0.051-0.352
		c-0.012-0.104-0.017-0.221-0.017-0.336c0-0.274,0.059-0.494,0.177-0.656c0.12-0.16,0.311-0.271,0.577-0.334
		c0.113-0.096,0.238-0.161,0.377-0.199c0.138-0.036,0.271-0.055,0.401-0.055c0.137,0,0.258,0.039,0.369,0.119
		c0.111,0.074,0.207,0.172,0.293,0.274c0.084,0.104,0.155,0.224,0.212,0.335c0.056,0.115,0.095,0.21,0.119,0.284
		c0.175,0.259,0.385,0.556,0.63,0.889c0.245,0.335,0.514,0.69,0.805,1.072c0.29,0.382,0.601,0.774,0.928,1.19
		c0.327,0.414,0.66,0.834,0.996,1.262c0.336,0.424,0.67,0.847,1.003,1.267c0.333,0.425,0.65,0.826,0.948,1.22
		c0.3,0.392,0.579,0.758,0.84,1.104c0.258,0.349,0.483,0.658,0.67,0.938c0-1.209-0.005-2.25-0.013-3.123
		c-0.009-0.873-0.019-1.615-0.03-2.229c-0.012-0.609-0.026-1.117-0.043-1.512c-0.017-0.396-0.031-0.729-0.042-0.982
		c-0.012-0.26-0.021-0.475-0.031-0.64c-0.007-0.167-0.013-0.327-0.013-0.479c0-0.228,0.025-0.412,0.073-0.557
		c0.049-0.145,0.116-0.256,0.204-0.334c0.088-0.079,0.196-0.135,0.326-0.162c0.13-0.025,0.279-0.042,0.45-0.042
		c0.22,0,0.391,0.046,0.516,0.138c0.125,0.09,0.217,0.203,0.283,0.342c0.065,0.143,0.105,0.295,0.12,0.471
		c0.013,0.172,0.02,0.34,0.02,0.504v9.717c0,0.203,0.013,0.408,0.035,0.613s0.034,0.426,0.034,0.654
		c0,0.224-0.018,0.401-0.051,0.545c-0.034,0.146-0.088,0.266-0.166,0.354c-0.075,0.09-0.175,0.153-0.297,0.188
		c-0.121,0.037-0.267,0.057-0.435,0.057c-0.318,0-0.57-0.079-0.76-0.237c-0.188-0.155-0.323-0.35-0.402-0.575
		c-0.536-0.729-1.08-1.457-1.63-2.175c-0.551-0.713-1.104-1.428-1.666-2.142c-0.558-0.715-1.121-1.436-1.685-2.161
		c-0.565-0.726-1.127-1.464-1.688-2.216l-0.509-0.795c0.006,0.861,0.01,1.634,0.017,2.308c0.006,0.677,0.012,1.274,0.018,1.808
		c0.004,0.525,0.011,0.992,0.017,1.396c0.006,0.4,0.009,0.77,0.013,1.085c0.003,0.32,0.005,0.606,0.008,0.872
		c0.002,0.266,0.004,0.521,0.004,0.77c0.007,0.146,0.015,0.306,0.029,0.472c0.015,0.168,0.021,0.329,0.021,0.485
		c0,0.146-0.013,0.289-0.038,0.426c-0.024,0.137-0.074,0.255-0.148,0.354c-0.072,0.104-0.176,0.185-0.309,0.241
		c-0.133,0.061-0.307,0.089-0.52,0.089c-0.29,0-0.533-0.067-0.729-0.211C23.481,94.521,23.381,94.33,23.381,94.087z"/>
	<path fill="#FFFFFF" d="M37.52,88.227c0-1.158,0.169-2.17,0.502-3.033c0.333-0.859,0.793-1.584,1.379-2.156
		c0.587-0.577,1.282-1.012,2.084-1.301c0.803-0.283,1.675-0.432,2.618-0.432c0.241,0,0.516,0.004,0.821,0.012
		c0.306,0.014,0.617,0.029,0.936,0.063c0.32,0.034,0.635,0.082,0.944,0.146c0.313,0.063,0.603,0.146,0.865,0.244
		c0.208,0.08,0.384,0.192,0.526,0.34c0.14,0.146,0.212,0.357,0.212,0.64c0,0.317-0.082,0.58-0.243,0.771
		c-0.16,0.195-0.349,0.293-0.564,0.293c-0.043,0-0.103-0.006-0.176-0.019c-0.074-0.011-0.135-0.03-0.187-0.06
		c-0.22-0.117-0.486-0.215-0.8-0.286c-0.314-0.075-0.638-0.136-0.97-0.181c-0.334-0.043-0.658-0.076-0.975-0.097
		c-0.315-0.017-0.586-0.021-0.813-0.021c-0.312,0-0.629,0.037-0.958,0.115c-0.328,0.071-0.646,0.19-0.961,0.354
		c-0.313,0.164-0.61,0.373-0.89,0.628c-0.279,0.254-0.524,0.559-0.734,0.904c-0.208,0.352-0.374,0.752-0.499,1.205
		c-0.124,0.453-0.187,0.969-0.187,1.527c0,0.66,0.078,1.246,0.233,1.754c0.156,0.51,0.369,0.951,0.639,1.326
		s0.591,0.691,0.958,0.948c0.368,0.257,0.763,0.465,1.188,0.623c0.427,0.157,0.873,0.271,1.336,0.338
		c0.463,0.067,0.925,0.103,1.388,0.103c0.205,0,0.434-0.004,0.691-0.012c0.258-0.01,0.514-0.035,0.766-0.082
		c0-0.553-0.001-1.021-0.003-1.414c-0.004-0.391-0.006-0.732-0.013-1.041c-0.006-0.306-0.011-0.584-0.021-0.841
		c-0.008-0.253-0.02-0.524-0.029-0.813c0-0.198-0.014-0.403-0.042-0.609s-0.042-0.432-0.042-0.665c0-0.085,0.017-0.176,0.055-0.272
		c0.038-0.102,0.096-0.189,0.177-0.277c0.083-0.09,0.192-0.161,0.327-0.223c0.136-0.062,0.305-0.093,0.508-0.093
		c0.333,0,0.592,0.078,0.775,0.234c0.183,0.151,0.277,0.362,0.277,0.631c0,0.108-0.003,0.226-0.01,0.326
		c-0.006,0.104-0.009,0.216-0.009,0.335c-0.004,0.181-0.012,0.396-0.02,0.652c-0.008,0.258-0.015,0.584-0.021,0.981
		c-0.007,0.397-0.013,0.882-0.018,1.449c-0.005,0.565-0.008,1.247-0.008,2.036c-0.005,0.32-0.049,0.572-0.126,0.755
		c-0.081,0.183-0.188,0.313-0.323,0.401c-0.134,0.088-0.292,0.141-0.47,0.153c-0.178,0.021-0.361,0.024-0.554,0.024
		c-0.164,0-0.336,0.009-0.517,0.023c-0.181,0.02-0.364,0.035-0.551,0.061c-0.188,0.021-0.369,0.045-0.546,0.063
		c-0.178,0.019-0.346,0.022-0.504,0.022c-1.203,0-2.266-0.182-3.189-0.532c-0.924-0.354-1.699-0.836-2.326-1.438
		c-0.628-0.604-1.101-1.299-1.424-2.094C37.682,89.943,37.52,89.105,37.52,88.227z"/>
	<path fill="#FFFFFF" d="M57.945,88.227c0-0.813,0.089-1.55,0.267-2.209c0.179-0.658,0.423-1.242,0.735-1.757
		c0.31-0.515,0.674-0.958,1.09-1.331c0.419-0.371,0.871-0.68,1.355-0.923c0.482-0.243,0.988-0.423,1.521-0.538
		c0.526-0.115,1.054-0.174,1.58-0.174c0.479,0,0.95,0.044,1.414,0.132c0.464,0.089,0.921,0.21,1.37,0.368
		c0.139,0.051,0.271,0.102,0.41,0.148c0.142,0.048,0.266,0.104,0.375,0.183c0.105,0.072,0.195,0.165,0.268,0.278
		c0.066,0.113,0.104,0.258,0.104,0.433c0,0.203-0.033,0.371-0.099,0.505c-0.063,0.133-0.147,0.237-0.25,0.317
		c-0.103,0.077-0.214,0.135-0.335,0.169c-0.122,0.033-0.238,0.051-0.354,0.051c-0.078,0-0.164-0.012-0.252-0.038
		c-0.096-0.024-0.188-0.058-0.278-0.098c-0.099-0.039-0.19-0.087-0.281-0.14c-0.09-0.059-0.171-0.106-0.246-0.155
		c-0.202-0.087-0.394-0.149-0.571-0.191c-0.18-0.043-0.35-0.073-0.512-0.094c-0.165-0.021-0.324-0.031-0.482-0.033
		c-0.154-0.004-0.313-0.004-0.476-0.004c-0.354,0-0.712,0.04-1.067,0.122c-0.354,0.082-0.694,0.209-1.024,0.381
		s-0.644,0.389-0.931,0.648c-0.287,0.259-0.539,0.565-0.75,0.928c-0.209,0.357-0.376,0.766-0.5,1.223
		c-0.119,0.459-0.181,0.971-0.181,1.534c0,0.938,0.133,1.729,0.402,2.377c0.271,0.646,0.616,1.17,1.05,1.571
		c0.436,0.4,0.919,0.689,1.462,0.867c0.542,0.18,1.093,0.268,1.646,0.268c0.256,0,0.508-0.016,0.75-0.046
		c0.246-0.031,0.477-0.069,0.688-0.119c0.21-0.048,0.398-0.103,0.563-0.161c0.164-0.058,0.289-0.119,0.375-0.182
		c0.169-0.146,0.316-0.258,0.447-0.334s0.277-0.115,0.446-0.115c0.13,0,0.253,0.014,0.369,0.042s0.215,0.078,0.3,0.149
		c0.088,0.07,0.152,0.162,0.204,0.271c0.052,0.113,0.076,0.257,0.076,0.427c0,0.234-0.081,0.453-0.24,0.646
		c-0.161,0.191-0.421,0.378-0.774,0.547v-0.01c-0.115,0.064-0.293,0.146-0.521,0.229c-0.229,0.086-0.482,0.161-0.771,0.232
		c-0.284,0.068-0.588,0.13-0.899,0.177c-0.315,0.05-0.628,0.072-0.937,0.072c-0.69,0-1.334-0.083-1.928-0.249
		c-0.591-0.167-1.127-0.396-1.607-0.693c-0.479-0.299-0.909-0.652-1.282-1.063c-0.372-0.412-0.688-0.864-0.94-1.355
		c-0.252-0.49-0.446-1.015-0.577-1.57C58.014,89.385,57.945,88.813,57.945,88.227z"/>
	<path fill="#FFFFFF" d="M71.363,93.688c0-0.164,0.023-0.32,0.072-0.481s0.068-0.332,0.068-0.517L71.38,82.576
		c0.005-0.432,0.08-0.747,0.226-0.954c0.146-0.206,0.395-0.31,0.742-0.31c0.19,0,0.354,0.018,0.481,0.049
		c0.13,0.035,0.231,0.097,0.313,0.181c0.074,0.085,0.135,0.192,0.166,0.33c0.026,0.136,0.047,0.305,0.047,0.508v1.271
		c0,0.354-0.002,0.771-0.006,1.25c-0.002,0.482-0.008,0.998-0.008,1.551c0,0.548,0,1.109,0,1.693c0,0.586,0,1.154,0,1.711
		c0,0.562,0,1.084,0,1.58c0,0.498,0.008,0.938,0.014,1.31c0.655,0,1.217-0.001,1.672-0.009c0.455-0.002,0.83-0.01,1.123-0.021
		c0.158-0.012,0.313-0.03,0.474-0.055c0.159-0.025,0.329-0.038,0.51-0.038c0.372,0,0.656,0.084,0.851,0.253
		c0.195,0.17,0.293,0.42,0.293,0.746c0,0.221-0.043,0.397-0.127,0.53c-0.086,0.132-0.192,0.231-0.334,0.305
		c-0.141,0.07-0.295,0.117-0.467,0.139c-0.172,0.023-0.347,0.035-0.521,0.035h-4.5c-0.142,0-0.271-0.014-0.39-0.038
		s-0.225-0.071-0.31-0.14c-0.084-0.068-0.147-0.162-0.194-0.284C71.391,94.047,71.363,93.887,71.363,93.688z"/>
	<path fill="#FFFFFF" d="M80.219,88.08c0-1.004,0.145-1.922,0.426-2.752c0.287-0.83,0.689-1.545,1.211-2.145
		c0.524-0.603,1.153-1.063,1.895-1.396c0.734-0.331,1.559-0.496,2.453-0.496c0.945,0,1.781,0.165,2.512,0.496
		c0.729,0.33,1.336,0.795,1.829,1.396c0.495,0.6,0.868,1.313,1.125,2.145c0.252,0.83,0.38,1.748,0.38,2.752
		c0,0.955-0.138,1.847-0.415,2.673c-0.272,0.829-0.672,1.547-1.188,2.156C89.93,93.52,89.309,94,88.58,94.35
		c-0.729,0.354-1.544,0.524-2.448,0.524c-0.599,0-1.159-0.079-1.687-0.237c-0.524-0.156-1.006-0.384-1.443-0.677
		c-0.438-0.294-0.829-0.646-1.173-1.056c-0.347-0.409-0.638-0.864-0.878-1.368c-0.239-0.502-0.422-1.044-0.547-1.626
		C80.279,89.329,80.219,88.719,80.219,88.08z M82.148,88.08c0,0.426,0.041,0.844,0.119,1.259c0.074,0.416,0.19,0.81,0.352,1.187
		c0.154,0.375,0.348,0.728,0.576,1.041c0.229,0.32,0.49,0.602,0.787,0.83c0.297,0.235,0.629,0.42,0.992,0.557
		c0.359,0.133,0.758,0.195,1.182,0.195c0.445,0,0.854-0.063,1.221-0.195c0.365-0.137,0.696-0.316,0.99-0.557
		c0.293-0.229,0.549-0.51,0.767-0.83c0.218-0.313,0.397-0.666,0.542-1.041c0.146-0.377,0.252-0.771,0.322-1.187
		c0.07-0.415,0.105-0.833,0.105-1.259c0-0.678-0.078-1.319-0.236-1.928c-0.158-0.605-0.4-1.146-0.725-1.604
		c-0.326-0.461-0.735-0.83-1.229-1.1c-0.493-0.272-1.081-0.408-1.759-0.408c-0.639,0-1.206,0.121-1.702,0.364
		c-0.496,0.242-0.916,0.585-1.259,1.025c-0.34,0.438-0.604,0.969-0.777,1.588C82.238,86.637,82.148,87.324,82.148,88.08z"/>
	<path fill="#FFFFFF" d="M94.984,94.087c0-0.235,0.016-0.437,0.051-0.601c0.033-0.163,0.053-0.24,0.058-0.229
		c0.013-0.614,0.022-1.239,0.031-1.872c0.008-0.632,0.013-1.303,0.013-2.008c0-0.445,0-0.932,0-1.453s-0.005-1.05-0.013-1.584
		c-0.009-0.533-0.021-1.059-0.038-1.574c-0.018-0.518-0.04-0.996-0.068-1.438c-0.021-0.13-0.039-0.246-0.052-0.352
		c-0.01-0.104-0.017-0.221-0.017-0.336c0-0.274,0.06-0.494,0.179-0.656c0.118-0.16,0.312-0.271,0.574-0.334
		c0.114-0.096,0.239-0.161,0.378-0.199c0.141-0.036,0.273-0.055,0.402-0.055c0.137,0,0.26,0.039,0.369,0.119
		c0.105,0.074,0.207,0.172,0.293,0.274c0.084,0.104,0.15,0.224,0.211,0.335c0.058,0.115,0.097,0.21,0.119,0.284
		c0.174,0.259,0.385,0.556,0.631,0.889c0.246,0.335,0.514,0.69,0.805,1.072c0.292,0.382,0.6,0.774,0.928,1.19
		c0.327,0.414,0.659,0.834,0.995,1.262c0.336,0.424,0.672,0.847,1.005,1.267c0.334,0.425,0.648,0.826,0.948,1.22
		c0.3,0.392,0.579,0.758,0.838,1.104c0.261,0.349,0.481,0.658,0.669,0.938c0-1.209-0.002-2.25-0.012-3.123s-0.021-1.615-0.029-2.229
		c-0.008-0.614-0.025-1.117-0.044-1.512c-0.017-0.396-0.03-0.729-0.042-0.982c-0.01-0.26-0.02-0.475-0.027-0.64
		c-0.01-0.167-0.013-0.327-0.013-0.479c0-0.228,0.022-0.412,0.071-0.557c0.047-0.145,0.113-0.256,0.201-0.334
		c0.088-0.079,0.192-0.135,0.328-0.162c0.129-0.025,0.275-0.042,0.443-0.042c0.225,0,0.396,0.046,0.521,0.138
		c0.123,0.09,0.22,0.203,0.283,0.342c0.063,0.143,0.104,0.295,0.115,0.471c0.018,0.172,0.021,0.34,0.021,0.504v9.717
		c0,0.203,0.013,0.408,0.031,0.613c0.021,0.205,0.032,0.426,0.032,0.654c0,0.224-0.016,0.401-0.049,0.545
		c-0.035,0.146-0.091,0.266-0.166,0.354c-0.076,0.09-0.177,0.153-0.298,0.188c-0.121,0.037-0.268,0.057-0.438,0.057
		c-0.313,0-0.566-0.079-0.761-0.237c-0.188-0.155-0.319-0.35-0.399-0.575c-0.537-0.729-1.08-1.457-1.631-2.175
		c-0.554-0.713-1.104-1.428-1.664-2.142c-0.563-0.715-1.121-1.436-1.688-2.161c-0.563-0.726-1.127-1.464-1.688-2.216l-0.511-0.795
		c0.009,0.861,0.015,1.634,0.019,2.308c0.008,0.677,0.015,1.274,0.021,1.808c0.008,0.525,0.012,0.992,0.018,1.396
		c0.009,0.4,0.012,0.77,0.016,1.085c0.002,0.32,0.004,0.606,0.009,0.872c0.003,0.266,0.007,0.521,0.007,0.77
		c0.004,0.146,0.016,0.306,0.027,0.472c0.016,0.168,0.021,0.329,0.021,0.485c0,0.146-0.018,0.289-0.039,0.426
		c-0.024,0.137-0.074,0.255-0.146,0.354c-0.072,0.104-0.178,0.185-0.311,0.241c-0.135,0.063-0.31,0.089-0.521,0.089
		c-0.287,0-0.529-0.067-0.729-0.211C95.079,94.521,94.984,94.33,94.984,94.087z"/>
	<path fill="#FFFFFF" d="M109.547,93.672c0-0.096,0.014-0.195,0.037-0.305c0.025-0.107,0.053-0.207,0.081-0.297l0.076-0.271
		l-0.194-10.131c0-0.277,0.03-0.492,0.098-0.645c0.064-0.152,0.148-0.271,0.25-0.338c0.104-0.074,0.224-0.117,0.354-0.129
		c0.133-0.016,0.269-0.021,0.399-0.021h4.468c0.102-0.017,0.216-0.022,0.343-0.047s0.217-0.029,0.271-0.029
		c0.213,0,0.389,0.021,0.521,0.063c0.133,0.039,0.237,0.098,0.313,0.174c0.074,0.076,0.127,0.172,0.147,0.283
		c0.021,0.109,0.037,0.246,0.037,0.396c0,0.216-0.021,0.39-0.079,0.521c-0.054,0.131-0.127,0.229-0.22,0.303
		c-0.099,0.068-0.202,0.113-0.327,0.14c-0.124,0.021-0.257,0.034-0.396,0.034c-0.063,0-0.146-0.001-0.246-0.005
		c-0.104-0.003-0.211-0.013-0.319-0.021c-0.552,0-0.99,0-1.326,0s-0.604,0.002-0.808,0.004c-0.198,0.002-0.354,0.004-0.457,0.004
		s-0.194,0-0.273,0h-0.788v2.688c0.034,0,0.075,0.001,0.123,0.005c0.05,0.003,0.123,0.004,0.228,0.004c0.104,0,0.24,0,0.42,0
		s0.416,0,0.718,0c0.3,0,0.67,0,1.106,0c0.438,0,0.978,0,1.604,0c0.063,0,0.131-0.003,0.211-0.009
		c0.078-0.005,0.158-0.016,0.232-0.023c0.104-0.014,0.226-0.021,0.354-0.035c0.136-0.012,0.283-0.018,0.44-0.018
		c0.152,0,0.289,0.031,0.408,0.094c0.114,0.063,0.219,0.145,0.299,0.232c0.082,0.094,0.146,0.191,0.188,0.303
		c0.043,0.106,0.063,0.207,0.063,0.305c0,0.309-0.102,0.527-0.299,0.67c-0.203,0.144-0.461,0.212-0.771,0.212l-5.32,0.012v5.072
		c0.563,0,1.121,0.01,1.688,0.022c0.563,0.019,1.15,0.024,1.771,0.024c0.17,0,0.322-0.009,0.467-0.024
		c0.143-0.018,0.275-0.035,0.404-0.06c0.119-0.019,0.238-0.032,0.359-0.05c0.123-0.012,0.256-0.021,0.398-0.021
		c0.172,0,0.325,0.016,0.475,0.038c0.146,0.022,0.271,0.069,0.377,0.14c0.104,0.063,0.188,0.148,0.254,0.262
		c0.063,0.111,0.094,0.25,0.094,0.421c0,0.247-0.042,0.44-0.127,0.575c-0.084,0.138-0.197,0.232-0.343,0.303
		c-0.146,0.063-0.312,0.104-0.492,0.117c-0.185,0.015-0.373,0.021-0.569,0.021h-5.701c-0.146,0-0.279-0.021-0.4-0.052
		c-0.122-0.033-0.229-0.088-0.318-0.165c-0.09-0.075-0.158-0.175-0.211-0.296C109.573,93.995,109.547,93.848,109.547,93.672z"/>
</g>
<path fill="#FFFFFF" d="M36.804,8.09c0.781-0.779,1.432-1.902,2.372-2.253c1.195-0.445,2.623-0.261,3.95-0.349
	c-0.096,1.32,0.269,2.95-0.372,3.905c-2.046,3.045-4.67,5.702-6.704,8.755c-9.608,14.438-8.116,33.147,3.46,46.004
	c1.53,1.697,4.532,3.578,1.958,6.092c-2.688,2.626-4.335-0.63-5.852-2.248c-14.751-15.762-15.008-40.942-0.665-57.594
	c0.641-0.746,1.312-1.466,1.966-2.197C36.88,8.166,36.842,8.128,36.804,8.09z"/>
<path fill="#FFFFFF" d="M41.737,19.171c1.077-1.076,1.517-1.873,2.139-2.061c1.258-0.379,2.616-0.428,3.934-0.614
	c-0.054,1.424,0.342,3.086-0.26,4.217c-0.959,1.804-2.759,3.14-3.893,4.875c-5.819,8.902-5.146,19.285,1.742,28.53
	c0.292,0.393,0.856,0.719,0.916,1.129c0.216,1.505,0.949,3.612,0.249,4.431c-1.607,1.87-3.339,0.475-4.556-1.066
	c-3.953-5.002-6.844-10.511-7.477-16.958C33.667,32.834,36.384,25.176,41.737,19.171z"/>
<path fill="#FFFFFF" d="M49.638,26.944c0.605,0.003,2.363-0.48,3.26,0.189c0.647,0.484,0.722,2.979,0.071,3.757
	c-4.063,4.867-4.464,9.51-0.301,14.555c0.638,0.774,0.005,2.594-0.04,3.931c-1.391-0.276-3.224-0.078-4.106-0.901
	C42.783,43.126,43.036,33.309,49.638,26.944z"/>
<path fill="#FFFFFF" d="M84.133,8.205c0.654,0.731,1.325,1.451,1.967,2.197c14.342,16.651,14.086,41.833-0.666,57.594
	c-1.517,1.618-3.162,4.874-5.852,2.248c-2.574-2.514,0.428-4.395,1.958-6.092C93.115,51.295,94.607,32.585,85,18.148
	c-2.034-3.053-4.658-5.709-6.704-8.755c-0.642-0.955-0.274-2.584-0.372-3.905c1.327,0.088,2.756-0.096,3.95,0.349
	c0.938,0.351,1.591,1.474,2.372,2.253C84.208,8.128,84.17,8.166,84.133,8.205z"/>
<path fill="#FFFFFF" d="M86.521,41.649c-0.639,6.447-3.524,11.96-7.479,16.962c-1.217,1.541-2.948,2.938-4.556,1.063
	c-0.7-0.814,0.031-2.926,0.248-4.431c0.06-0.41,0.623-0.736,0.914-1.129c6.888-9.245,7.563-19.628,1.742-28.53
	c-1.137-1.736-2.937-3.071-3.896-4.875c-0.604-1.131-0.206-2.793-0.262-4.217c1.315,0.186,2.678,0.234,3.937,0.614
	c0.622,0.188,1.063,0.985,2.142,2.061C84.666,25.176,87.384,32.834,86.521,41.649z"/>
<path fill="#FFFFFF" d="M72.527,48.476c-0.883,0.823-2.715,0.625-4.105,0.901c-0.046-1.337-0.679-3.157-0.04-3.931
	c4.163-5.044,3.765-9.688-0.301-14.555c-0.649-0.779-0.576-3.273,0.071-3.757c0.896-0.669,2.654-0.186,3.26-0.189
	C78.016,33.309,78.268,43.126,72.527,48.476z"/>
</svg>
