<?xml version="1.0" encoding="utf-8"?>
<!-- Generator: Adobe Illustrator 15.1.0, SVG Export Plug-In . SVG Version: 6.00 Build 0)  -->
<!DOCTYPE svg PUBLIC "-//W3C//DTD SVG 1.1//EN" "http://www.w3.org/Graphics/SVG/1.1/DTD/svg11.dtd">
<svg version="1.1" id="Layer_1" xmlns="http://www.w3.org/2000/svg" xmlns:xlink="http://www.w3.org/1999/xlink" x="0px" y="0px"
	 width="65px" height="65px" viewBox="27.5 4.667 65 65" enable-background="new 27.5 4.667 65 65" xml:space="preserve">
<path display="none" fill="#2CB588" d="M43.857,17.176c0.539-0.537,0.987-1.312,1.635-1.554c0.825-0.307,1.809-0.18,2.724-0.241
	c-0.066,0.91,0.186,2.034-0.256,2.693c-1.411,2.1-3.221,3.932-4.624,6.038c-6.625,9.956-5.597,22.858,2.386,31.724
	c1.055,1.171,3.125,2.468,1.35,4.201c-1.854,1.811-2.989-0.435-4.035-1.55c-10.172-10.87-10.35-28.233-0.458-39.717
	c0.442-0.514,0.905-1.011,1.355-1.515C43.909,17.228,43.883,17.202,43.857,17.176z"/>
<path display="none" fill="#2CB588" d="M47.258,24.817c0.743-0.742,1.046-1.292,1.475-1.421c0.868-0.261,1.804-0.295,2.713-0.423
	c-0.038,0.982,0.235,2.128-0.18,2.908c-0.662,1.244-1.902,2.166-2.684,3.362c-4.013,6.139-3.549,13.299,1.201,19.674
	c0.201,0.27,0.59,0.495,0.631,0.778c0.149,1.038,0.654,2.49,0.171,3.056c-1.108,1.289-2.302,0.327-3.142-0.735
	c-2.726-3.449-4.72-7.25-5.156-11.695C41.693,34.239,43.567,28.958,47.258,24.817z"/>
<path display="none" fill="#2CB588" d="M52.707,30.177c0.417,0.002,1.629-0.331,2.249,0.13c0.446,0.334,0.498,2.054,0.048,2.591
	c-2.802,3.355-3.078,6.558-0.208,10.037c0.441,0.534,0.003,1.789-0.027,2.711c-0.959-0.19-2.224-0.054-2.832-0.621
	C47.98,41.335,48.154,34.566,52.707,30.177z"/>
<path display="none" fill="#2CB588" d="M76.494,17.255c0.452,0.504,0.914,1.001,1.356,1.515c9.891,11.482,9.714,28.848-0.459,39.717
	c-1.046,1.115-2.181,3.36-4.035,1.55c-1.775-1.733,0.295-3.03,1.351-4.201c7.981-8.865,9.011-21.768,2.385-31.724
	c-1.401-2.106-3.211-3.938-4.622-6.038c-0.442-0.659-0.189-1.782-0.257-2.693c0.915,0.061,1.9-0.066,2.724,0.241
	c0.647,0.242,1.098,1.017,1.637,1.554C76.546,17.202,76.52,17.228,76.494,17.255z"/>
<path display="none" fill="#2CB588" d="M78.142,40.318c-0.439,4.446-2.431,8.247-5.157,11.697c-0.84,1.062-2.034,2.025-3.143,0.734
	c-0.482-0.564,0.021-2.018,0.172-3.057c0.041-0.282,0.43-0.507,0.63-0.778c4.75-6.375,5.216-13.535,1.202-19.674
	c-0.783-1.197-2.024-2.117-2.687-3.362c-0.416-0.78-0.142-1.926-0.179-2.908c0.906,0.128,1.845,0.161,2.713,0.423
	c0.43,0.129,0.733,0.679,1.476,1.421C76.862,28.958,78.736,34.239,78.142,40.318z"/>
<path display="none" fill="#2CB588" d="M68.491,45.027c-0.608,0.566-1.872,0.431-2.831,0.62c-0.032-0.923-0.468-2.176-0.027-2.711
	c2.87-3.479,2.596-6.68-0.208-10.037c-0.447-0.537-0.397-2.257,0.05-2.591c0.617-0.461,1.83-0.128,2.248-0.13
	C72.276,34.566,72.45,41.335,68.491,45.027z"/>
<path fill="#FFFFFF" d="M42.478,15.796c0.539-0.537,0.987-1.312,1.636-1.554c0.824-0.307,1.809-0.18,2.724-0.241
	c-0.066,0.911,0.186,2.035-0.256,2.693c-1.411,2.1-3.22,3.932-4.623,6.038c-6.625,9.957-5.597,22.859,2.386,31.724
	c1.055,1.171,3.125,2.468,1.351,4.201c-1.854,1.811-2.99-0.435-4.035-1.55c-10.172-10.87-10.35-28.234-0.459-39.717
	c0.442-0.514,0.905-1.011,1.355-1.515C42.53,15.849,42.503,15.823,42.478,15.796z"/>
<path fill="#FFFFFF" d="M45.879,23.438c0.743-0.742,1.046-1.292,1.476-1.421c0.867-0.261,1.804-0.295,2.713-0.423
	c-0.038,0.982,0.235,2.128-0.18,2.908c-0.661,1.244-1.902,2.166-2.684,3.362c-4.013,6.139-3.549,13.299,1.201,19.674
	c0.201,0.271,0.59,0.496,0.631,0.779c0.149,1.038,0.654,2.49,0.172,3.056c-1.108,1.289-2.303,0.327-3.142-0.735
	c-2.726-3.449-4.719-7.251-5.155-11.696C40.314,32.86,42.188,27.579,45.879,23.438z"/>
<path fill="#FFFFFF" d="M51.328,28.798c0.417,0.002,1.629-0.331,2.248,0.13c0.446,0.334,0.498,2.055,0.049,2.591
	c-2.801,3.356-3.078,6.557-0.208,10.037c0.44,0.534,0.004,1.789-0.027,2.711c-0.959-0.19-2.223-0.054-2.832-0.622
	C46.601,39.957,46.775,33.188,51.328,28.798z"/>
<path fill="#FFFFFF" d="M75.115,15.875c0.451,0.504,0.914,1.001,1.356,1.515c9.89,11.482,9.714,28.847-0.459,39.717
	c-1.046,1.115-2.182,3.36-4.035,1.55c-1.775-1.733,0.295-3.03,1.35-4.201c7.982-8.865,9.011-21.769,2.387-31.724
	c-1.403-2.105-3.213-3.937-4.624-6.038c-0.442-0.658-0.189-1.782-0.257-2.693c0.916,0.061,1.901-0.066,2.725,0.241
	c0.647,0.242,1.097,1.017,1.636,1.554C75.168,15.823,75.141,15.849,75.115,15.875z"/>
<path fill="#FFFFFF" d="M76.763,38.938c-0.439,4.446-2.431,8.248-5.158,11.697c-0.839,1.063-2.032,2.026-3.142,0.734
	c-0.482-0.563,0.021-2.018,0.172-3.056c0.041-0.283,0.429-0.508,0.63-0.778c4.75-6.375,5.215-13.536,1.201-19.674
	c-0.782-1.197-2.023-2.118-2.686-3.362c-0.416-0.78-0.142-1.926-0.179-2.908c0.906,0.128,1.845,0.161,2.713,0.423
	c0.429,0.129,0.733,0.679,1.476,1.421C75.482,27.579,77.356,32.86,76.763,38.938z"/>
<path fill="#FFFFFF" d="M67.112,43.646c-0.609,0.567-1.872,0.431-2.831,0.622c-0.031-0.923-0.469-2.178-0.027-2.711
	c2.871-3.479,2.596-6.681-0.208-10.037c-0.447-0.537-0.397-2.257,0.049-2.591c0.618-0.462,1.831-0.128,2.248-0.13
	C70.896,33.188,71.07,39.957,67.112,43.646z"/>
</svg>
