<?xml version="1.0" encoding="utf-8"?>
<!-- Generator: Adobe Illustrator 15.1.0, SVG Export Plug-In . SVG Version: 6.00 Build 0)  -->
<!DOCTYPE svg PUBLIC "-//W3C//DTD SVG 1.1//EN" "http://www.w3.org/Graphics/SVG/1.1/DTD/svg11.dtd">
<svg version="1.1" id="Layer_1" xmlns="http://www.w3.org/2000/svg" xmlns:xlink="http://www.w3.org/1999/xlink" x="0px" y="0px"
	 width="10.854px" height="10.817px" viewBox="0 0 10.854 10.817" enable-background="new 0 0 10.854 10.817" xml:space="preserve">
<rect x="5.953" y="0.028" fill="#939598" width="0.984" height="0.984"/>
<rect x="8.921" y="1.997" fill="#939598" width="0.984" height="0.984"/>
<rect x="4.953" y="0.028" fill="#939598" width="0.984" height="0.984"/>
<rect x="3.969" y="0.028" fill="#939598" width="0.984" height="0.984"/>
<rect x="2.984" y="0.028" fill="#939598" width="0.984" height="0.984"/>
<rect x="2" y="1.012" fill="#939598" width="0.984" height="0.984"/>
<rect x="0.031" y="2.981" fill="#939598" width="0.984" height="0.984"/>
<rect x="9.905" y="2.981" fill="#939598" width="0.984" height="0.984"/>
<rect x="6.938" y="0.028" fill="#939598" width="0.984" height="0.984"/>
<rect x="0.031" y="3.965" fill="#939598" width="0.984" height="0.984"/>
<rect x="0.031" y="4.95" fill="#939598" width="0.984" height="0.984"/>
<rect x="0.031" y="5.934" fill="#939598" width="0.984" height="0.984"/>
<rect x="0.031" y="6.918" fill="#939598" width="0.984" height="0.984"/>
<rect x="1.016" y="7.903" fill="#939598" width="0.984" height="0.984"/>
<rect x="2.984" y="9.872" fill="#939598" width="0.984" height="0.984"/>
<rect x="3.969" y="9.872" fill="#939598" width="0.984" height="0.984"/>
<rect x="4.953" y="9.872" fill="#939598" width="0.984" height="0.984"/>
<rect x="5.953" y="9.873" fill="#939598" width="0.984" height="0.984"/>
<rect x="6.938" y="9.873" fill="#939598" width="0.984" height="0.984"/>
<rect x="7.938" y="8.887" fill="#939598" width="0.984" height="0.984"/>
<rect x="9.905" y="6.918" fill="#939598" width="0.984" height="0.984"/>
<rect x="9.905" y="5.934" fill="#939598" width="0.984" height="0.984"/>
<rect x="9.905" y="4.95" fill="#939598" width="0.984" height="0.984"/>
<rect x="9.905" y="3.965" fill="#939598" width="0.984" height="0.984"/>
<rect x="2.984" y="2.861" fill="#939598" width="0.984" height="0.984"/>
<rect x="3.953" y="2.861" fill="#939598" width="0.984" height="0.984"/>
<rect x="5.953" y="2.861" fill="#939598" width="0.984" height="0.984"/>
<rect x="6.938" y="2.861" fill="#939598" width="0.984" height="0.984"/>
<rect x="2.984" y="5.934" fill="#939598" width="0.984" height="0.984"/>
<rect x="3.953" y="6.918" fill="#939598" width="0.984" height="0.984"/>
<rect x="4.954" y="6.918" fill="#939598" width="0.984" height="0.984"/>
<rect x="5.953" y="6.918" fill="#939598" width="0.984" height="0.984"/>
<rect x="6.938" y="5.934" fill="#939598" width="0.984" height="0.984"/>
<rect x="1.016" y="1.997" fill="#939598" width="0.984" height="0.984"/>
<rect x="2" y="8.887" fill="#939598" width="0.984" height="0.984"/>
<rect x="8.922" y="7.903" fill="#939598" width="0.984" height="0.984"/>
<rect x="7.922" y="1.012" fill="#939598" width="0.984" height="0.984"/>
</svg>
