<?xml version="1.0" encoding="utf-8"?>
<!-- Generator: Adobe Illustrator 15.1.0, SVG Export Plug-In . SVG Version: 6.00 Build 0)  -->
<!DOCTYPE svg PUBLIC "-//W3C//DTD SVG 1.1//EN" "http://www.w3.org/Graphics/SVG/1.1/DTD/svg11.dtd">
<svg version="1.1" id="Capa_1" xmlns="http://www.w3.org/2000/svg" xmlns:xlink="http://www.w3.org/1999/xlink" x="0px" y="0px"
	 width="29px" height="29px" viewBox="291.5 291.5 29 29" enable-background="new 291.5 291.5 29 29" xml:space="preserve">
<g>
	<g id="voicemail">
		<path d="M313.636,299.539c-3.524,0-6.461,2.937-6.461,6.461c0,1.527,0.588,2.938,1.527,4.111h-5.404
			c0.94-1.174,1.527-2.584,1.527-4.111c0-3.524-2.937-6.461-6.461-6.461c-3.524,0-6.461,2.937-6.461,6.461
			c0,3.523,2.937,6.461,6.461,6.461h15.271c3.523,0,6.461-2.938,6.461-6.461C320.097,302.476,317.159,299.539,313.636,299.539z
			 M298.364,310.111c-2.232,0-4.111-1.879-4.111-4.111c0-2.231,1.879-4.112,4.111-4.112s4.111,1.88,4.111,4.112
			C302.476,308.232,300.596,310.111,298.364,310.111z M313.636,310.111c-2.232,0-4.112-1.879-4.112-4.111
			c0-2.231,1.88-4.112,4.112-4.112c2.231,0,4.111,1.88,4.111,4.112C317.747,308.232,315.867,310.111,313.636,310.111z"/>
	</g>
</g>
</svg>
