<?xml version="1.0" encoding="utf-8"?>
<!-- Generator: Adobe Illustrator 15.1.0, SVG Export Plug-In . SVG Version: 6.00 Build 0)  -->
<!DOCTYPE svg PUBLIC "-//W3C//DTD SVG 1.1//EN" "http://www.w3.org/Graphics/SVG/1.1/DTD/svg11.dtd">
<svg version="1.1"
	 id="Layer_1" xmlns:dc="http://purl.org/dc/elements/1.1/" xmlns:cc="http://creativecommons.org/ns#" xmlns:rdf="http://www.w3.org/1999/02/22-rdf-syntax-ns#"
	 xmlns="http://www.w3.org/2000/svg" xmlns:xlink="http://www.w3.org/1999/xlink" x="0px" y="0px" width="24px" height="24px"
	 viewBox="0 0 24 24" enable-background="new 0 0 24 24" xml:space="preserve">
<path fill="#A8A8A8" d="M4,2.96c-1.105,0-2,0.9-2,2v8v2v1v6c0,1.11,0.895,2,2,2h2h12h2c1.105,0,2-0.89,2-2v-6v-1v-2v-4v-4
	c0-1.1-0.895-2-2-2h-2h-2h-2H6H4z"/>
<path fill="#DBDBDB" d="M4,2C2.895,2,2,2.895,2,4v8v2v1v6c0,1.105,0.895,2,2,2h2h12h2c1.105,0,2-0.895,2-2v-6v-1v-2V8V4
	c0-1.105-0.895-2-2-2h-2h-2h-2H6H4z"/>
<path fill="#ADADAD" d="M4,1C2.895,1,2,1.895,2,3v8v2v1v6c0,1.105,0.895,2,2,2h2h12h2c1.105,0,2-0.895,2-2v-6v-1v-2V7V3
	c0-1.105-0.895-2-2-2h-2h-2h-2H6H4z"/>
<path fill="#EDEDED" d="M4,0C2.895,0,2,0.895,2,2v8v2v1v6c0,1.105,0.895,2,2,2h2h12h2c1.105,0,2-0.895,2-2v-6v-1v-2V6V2
	c0-1.105-0.895-2-2-2h-2h-2h-2H6H4z"/>
<path fill="#C9C9C9" d="M17,12c-1.105,0-2,0.9-2,2v4c0,1.1,0.895,2,2,2s2-0.9,2-2v-4C19,12.9,18.105,12,17,12z M17,13
	c0.552,0,1,0.4,1,1c0,0.5-0.448,1-1,1s-1-0.5-1-1C16,13.4,16.448,13,17,13z M17,16c0.552,0,1,0.4,1,1v1c0,0.5-0.448,1-1,1
	s-1-0.5-1-1v-1C16,16.4,16.448,16,17,16z"/>
<path fill="#9B9B9B" d="M15,0v10c0,1.1,0.895,2,2,2s2-0.9,2-2V0H15z"/>
<path fill="#C4C4C4" d="M17,0v1h1V0H17z M17,1h-1v1h1V1z M17,2v1h1V2H17z M17,3h-1v1h1V3z M17,4v1h1V4H17z M17,5h-1v1h1V5z M17,6v1
	h1V6H17z M17,7h-1v1h1V7z M17,8v1h1V8H17z M17,9h-1v1h1V9z M17,10v1c0.552,0,1-0.5,1-1H17z"/>
<path fill="#ECF0F1" d="M16,0v1h1V0H16z M16,2v1h1V2H16z M16,4v1h1V4H16z M16,6v1h1V6H16z M16,8v1h1V8H16z M16,10c0,0.5,0.448,1,1,1
	v-1H16z"/>
<path fill="#ECF0F1" d="M17,11c-1.105,0-2,0.9-2,2v4c0,1.1,0.895,2,2,2s2-0.9,2-2v-4C19,11.9,18.105,11,17,11z M17,12
	c0.552,0,1,0.4,1,1c0,0.5-0.448,1-1,1s-1-0.5-1-1C16,12.4,16.448,12,17,12z M17,15c0.552,0,1,0.4,1,1v1c0,0.5-0.448,1-1,1
	s-1-0.5-1-1v-1C16,15.4,16.448,15,17,15z"/>
</svg>
