<?xml version="1.0" encoding="utf-8"?>
<!-- Generator: Adobe Illustrator 15.1.0, SVG Export Plug-In . SVG Version: 6.00 Build 0)  -->
<!DOCTYPE svg PUBLIC "-//W3C//DTD SVG 1.1//EN" "http://www.w3.org/Graphics/SVG/1.1/DTD/svg11.dtd">
<svg version="1.1" id="Layer_1" xmlns="http://www.w3.org/2000/svg" xmlns:xlink="http://www.w3.org/1999/xlink" x="0px" y="0px"
	 width="108px" height="28.08px" viewBox="180 8.46 108 28.08" enable-background="new 180 8.46 108 28.08" xml:space="preserve">
<g>
	<path id="path243" fill="#201C1D" d="M206.252,19c-1.41,0-2.983,0.543-3.313,2.332c-0.035,0.188,0.09,0.28,0.212,0.308l1.444,0.173
		c0.133-0.007,0.225-0.152,0.25-0.289c0.124-0.615,0.629-0.905,1.194-0.905c0.305,0,0.647,0.104,0.828,0.385
		c0.207,0.313,0.192,0.738,0.192,1.098v0.212c-0.858,0.099-1.989,0.158-2.792,0.52c-0.928,0.412-1.58,1.252-1.58,2.485
		c0,1.58,0.968,2.368,2.215,2.368c1.053,0,1.634-0.247,2.446-1.097c0.27,0.4,0.355,0.581,0.847,1.001
		c0.109,0.059,0.249,0.054,0.346-0.039v0.02c0.296-0.27,0.834-0.761,1.137-1.021c0.12-0.102,0.094-0.268,0-0.405
		c-0.271-0.383-0.559-0.692-0.559-1.405v-2.369c0-1.004,0.085-1.929-0.635-2.62C207.919,19.192,206.972,19,206.252,19z M225.666,19
		c-1.411,0-2.982,0.543-3.313,2.332c-0.035,0.188,0.09,0.28,0.212,0.308l1.445,0.173c0.133-0.007,0.225-0.152,0.25-0.289
		c0.125-0.615,0.63-0.905,1.194-0.905c0.307,0,0.648,0.104,0.829,0.385c0.207,0.313,0.173,0.738,0.173,1.098v0.212
		c-0.858,0.099-1.969,0.158-2.774,0.52c-0.928,0.412-1.579,1.252-1.579,2.485c0,1.58,0.968,2.368,2.214,2.368
		c1.052,0,1.635-0.247,2.447-1.097c0.268,0.4,0.355,0.581,0.847,1.001c0.11,0.059,0.249,0.054,0.346-0.039v0.02
		c0.296-0.27,0.834-0.761,1.137-1.021c0.121-0.102,0.093-0.268,0-0.405c-0.271-0.383-0.559-0.692-0.559-1.405v-2.369
		c0-1.004,0.065-1.929-0.654-2.62C227.313,19.192,226.386,19,225.666,19z M214.746,19.077c-0.911,0-1.586,0.459-1.945,1.445h-0.019
		v-1.021c-0.01-0.143-0.126-0.263-0.27-0.271h-1.387c-0.157,0-0.289,0.133-0.289,0.29v7.8c0.012,0.138,0.128,0.26,0.27,0.27h1.482
		c0.159,0,0.289-0.133,0.289-0.289V23.16c0-0.903-0.044-2.139,1.021-2.139c1.051,0,0.905,1.269,0.905,2.139v4.141
		c0,0.147,0.12,0.279,0.27,0.289h1.482c0.158,0,0.289-0.133,0.289-0.289V23.16c0-0.443-0.018-1.089,0.135-1.483
		c0.152-0.394,0.526-0.654,0.886-0.654c0.429,0,0.756,0.149,0.867,0.674c0.069,0.312,0.039,1.135,0.039,1.464v4.141
		c0,0.147,0.12,0.279,0.27,0.289h1.483c0.157,0,0.289-0.133,0.289-0.289v-4.93c0-0.837,0.084-1.789-0.385-2.446
		c-0.415-0.59-1.094-0.847-1.714-0.847c-0.872,0-1.683,0.459-2.042,1.445C216.257,19.538,215.672,19.077,214.746,19.077z
		 M239.957,19.077c-2.143,0-3.332,1.884-3.332,4.313c0,2.414,1.176,4.354,3.332,4.354c2.074,0,3.389-1.895,3.389-4.276
		C243.346,21.006,242.155,19.077,239.957,19.077z M248.412,19.077c-1.023,0-1.608,0.511-2.021,1.579h-0.021v-1.194
		c-0.025-0.121-0.141-0.205-0.269-0.211h-1.369c-0.148,0-0.274,0.108-0.288,0.251v7.799c0,0.147,0.121,0.28,0.27,0.289h1.465
		c0.157,0,0.285-0.132,0.289-0.289v-4.198c0-0.526,0.043-1.006,0.249-1.483c0.167-0.378,0.487-0.617,0.848-0.617
		c1.021,0,0.925,1.246,0.925,2.1v4.236c0.014,0.134,0.134,0.243,0.271,0.251h1.481c0.146,0,0.272-0.11,0.289-0.251v-4.911
		c0-0.754,0.002-1.804-0.386-2.427C249.732,19.328,249.074,19.077,248.412,19.077L248.412,19.077z M230.616,19.212
		c-0.15,0-0.269,0.119-0.27,0.289v1.117c0,0.167,0.116,0.288,0.27,0.289h2.543l-2.909,4.295c-0.178,0.277-0.192,0.592-0.192,0.771
		v1.136c0,0.163,0.178,0.342,0.346,0.25c1.659-0.903,3.645-0.824,5.143-0.02c0.182,0.1,0.367-0.086,0.367-0.25v-1.194
		c-0.016-0.158-0.077-0.313-0.271-0.424c-0.85-0.49-1.837-0.639-2.773-0.616l2.524-3.697c0.232-0.333,0.363-0.533,0.364-0.693
		v-0.963c0-0.166-0.113-0.29-0.27-0.29L230.616,19.212L230.616,19.212z M239.957,20.675c0.469,0,0.815,0.209,0.982,0.752
		c0.192,0.624,0.212,1.403,0.212,2.061c0,1-0.046,2.657-1.194,2.657c-1.159,0-1.156-2.051-1.156-3.004
		C238.801,22.19,238.865,20.675,239.957,20.675z M207.042,23.526v0.326c0,0.594,0.021,1.091-0.271,1.618
		c-0.234,0.429-0.605,0.694-1.021,0.694c-0.567,0-0.904-0.46-0.904-1.117C204.846,23.753,205.972,23.526,207.042,23.526z
		 M226.456,23.526v0.326c0,0.594,0.021,1.091-0.271,1.618c-0.234,0.429-0.603,0.694-1.021,0.694c-0.567,0-0.905-0.46-0.905-1.117
		C224.26,23.753,225.383,23.526,226.456,23.526z"/>
	<path id="path257" d="M236.065,27.841v1.117h0.752v-1.117H236.065z M214.284,28.032v7.955h0.693v-0.712
		c0.148,0.281,0.316,0.492,0.521,0.634c0.203,0.143,0.437,0.213,0.693,0.213c0.508,0,0.948-0.261,1.328-0.79
		c0.381-0.529,0.578-1.298,0.578-2.272c0-0.64-0.082-1.169-0.25-1.619c-0.168-0.447-0.393-0.781-0.674-1
		c-0.282-0.221-0.6-0.347-0.944-0.347c-0.245,0-0.474,0.064-0.674,0.192c-0.201,0.129-0.362,0.337-0.521,0.597v-2.851H214.284
		L214.284,28.032z M221.41,29.901c-0.522,0-0.938,0.154-1.233,0.462c-0.294,0.307-0.443,0.703-0.443,1.193
		c0,0.286,0.064,0.527,0.173,0.751c0.109,0.225,0.266,0.407,0.463,0.539c0.197,0.135,0.59,0.311,1.174,0.502
		c0.405,0.13,0.646,0.241,0.751,0.327c0.153,0.127,0.23,0.292,0.23,0.521c0,0.264-0.091,0.483-0.269,0.654
		c-0.179,0.172-0.426,0.25-0.751,0.25c-0.326,0-0.594-0.091-0.791-0.288c-0.196-0.198-0.301-0.499-0.346-0.905l-0.751,0.154
		c0.169,1.235,0.786,1.85,1.849,1.848c0.567,0,1.001-0.16,1.329-0.499c0.328-0.34,0.5-0.799,0.5-1.349
		c0-0.298-0.052-0.555-0.154-0.771c-0.102-0.215-0.242-0.374-0.424-0.501c-0.183-0.124-0.591-0.291-1.213-0.5
		c-0.453-0.158-0.718-0.275-0.809-0.347c-0.153-0.122-0.231-0.288-0.231-0.502c0-0.216,0.072-0.4,0.231-0.538
		c0.16-0.139,0.406-0.213,0.732-0.213c0.574,0,0.896,0.315,0.963,0.944l0.732-0.116c-0.051-0.396-0.138-0.711-0.271-0.924
		c-0.132-0.212-0.328-0.394-0.578-0.521C222.026,29.948,221.74,29.901,221.41,29.901z M226.013,29.901
		c-0.602,0-1.11,0.248-1.502,0.77c-0.393,0.522-0.578,1.28-0.578,2.273c0,0.956,0.189,1.707,0.578,2.214
		c0.389,0.509,0.893,0.751,1.521,0.751c0.5,0,0.915-0.148,1.252-0.462c0.339-0.313,0.584-0.771,0.713-1.386l-0.771-0.134
		c-0.222,0.786-0.629,1.172-1.194,1.173c-0.36,0-0.654-0.152-0.904-0.48c-0.252-0.33-0.394-0.817-0.424-1.464h3.313v-0.27
		c0-0.973-0.194-1.701-0.578-2.216C227.053,30.158,226.587,29.901,226.013,29.901z M230.577,29.901c-0.18,0-0.337,0.061-0.48,0.192
		c-0.145,0.132-0.308,0.404-0.481,0.81v-0.887h-0.674v5.759h0.75v-3.004c0-0.42,0.04-0.823,0.135-1.195
		c0.055-0.213,0.157-0.382,0.289-0.501c0.133-0.118,0.284-0.173,0.443-0.173c0.176,0,0.353,0.07,0.539,0.212l0.251-0.905
		C231.086,30,230.829,29.901,230.577,29.901z M239.783,29.901c-0.595,0-1.084,0.25-1.464,0.751c-0.378,0.5-0.577,1.252-0.577,2.254
		c0,0.993,0.202,1.745,0.577,2.252c0.376,0.509,0.846,0.751,1.426,0.751c0.479,0,0.891-0.177,1.232-0.538
		c0.343-0.361,0.55-0.892,0.636-1.579l-0.731-0.115c-0.055,0.49-0.183,0.844-0.386,1.077c-0.202,0.232-0.447,0.347-0.731,0.347
		c-0.363,0-0.673-0.17-0.905-0.52c-0.231-0.35-0.346-0.91-0.346-1.694c0-0.761,0.121-1.308,0.364-1.657
		c0.244-0.349,0.554-0.539,0.926-0.539c0.248,0,0.459,0.097,0.635,0.289c0.178,0.192,0.294,0.498,0.366,0.887l0.731-0.154
		c-0.088-0.607-0.282-1.064-0.597-1.369C240.625,30.04,240.243,29.901,239.783,29.901z M244.079,29.901
		c-0.603,0-1.11,0.248-1.502,0.77c-0.394,0.522-0.578,1.28-0.578,2.273c0,0.956,0.188,1.707,0.578,2.214
		c0.39,0.509,0.893,0.751,1.52,0.751c0.5,0,0.915-0.148,1.254-0.462c0.337-0.313,0.582-0.771,0.712-1.386l-0.77-0.134
		c-0.223,0.786-0.612,1.172-1.176,1.173c-0.359,0-0.673-0.152-0.925-0.48c-0.252-0.33-0.393-0.817-0.424-1.464h3.313v-0.27
		c0-0.973-0.193-1.701-0.577-2.216C245.121,30.158,244.653,29.901,244.079,29.901z M248.527,29.901
		c-0.522,0-0.938,0.154-1.232,0.462c-0.296,0.307-0.442,0.703-0.442,1.193c0,0.286,0.045,0.527,0.154,0.751
		c0.107,0.225,0.264,0.407,0.462,0.539c0.196,0.135,0.59,0.311,1.174,0.502c0.405,0.13,0.666,0.241,0.771,0.327
		c0.152,0.127,0.231,0.292,0.231,0.521c0,0.264-0.091,0.483-0.271,0.654c-0.177,0.172-0.426,0.25-0.751,0.25
		c-0.326,0-0.593-0.091-0.79-0.288c-0.195-0.198-0.321-0.499-0.365-0.905l-0.752,0.154c0.17,1.235,0.785,1.85,1.85,1.848
		c0.567,0,1.021-0.16,1.349-0.499c0.327-0.34,0.499-0.799,0.499-1.349c0-0.298-0.051-0.555-0.153-0.771
		c-0.101-0.215-0.259-0.374-0.442-0.501c-0.183-0.124-0.572-0.291-1.194-0.5c-0.453-0.158-0.736-0.275-0.828-0.347
		c-0.154-0.122-0.231-0.288-0.231-0.502c0-0.216,0.091-0.4,0.251-0.538c0.159-0.139,0.406-0.213,0.731-0.213
		c0.575,0,0.896,0.315,0.963,0.944l0.731-0.116c-0.049-0.396-0.136-0.711-0.27-0.924c-0.133-0.212-0.327-0.394-0.578-0.521
		C249.145,29.948,248.857,29.901,248.527,29.901z M231.348,30.017l1.675,5.759h0.713l1.675-5.759h-0.77l-0.983,3.524
		c-0.119,0.426-0.223,0.794-0.289,1.098c-0.081-0.382-0.16-0.785-0.269-1.174l-0.962-3.448H231.348z M236.065,30.017v5.759h0.752
		v-5.759H236.065z M211.375,30.095c-0.595,0-1.075,0.267-1.463,0.788c-0.388,0.523-0.597,1.279-0.597,2.273
		c0,0.957,0.193,1.688,0.578,2.196c0.385,0.507,0.899,0.77,1.521,0.77c0.494,0,0.898-0.169,1.232-0.481
		c0.333-0.313,0.565-0.772,0.693-1.387l-0.751-0.116c-0.219,0.788-0.616,1.174-1.174,1.176c-0.357,0-0.657-0.152-0.905-0.482
		c-0.249-0.328-0.394-0.817-0.423-1.464h3.274l0.019-0.269c0-0.973-0.198-1.722-0.578-2.234
		C212.42,30.352,211.943,30.095,211.375,30.095z M202.92,30.229l1.349,5.758h0.789l0.886-4.43l0.154,0.982l0.713,3.447h0.771
		l1.367-5.758h-0.713l-0.75,3.332l-0.251,1.118l-0.231-1.118l-0.655-3.332h-0.771l-0.694,3.37l-0.23,1.195l-0.27-1.233l-0.694-3.332
		H202.92z M250.858,30.286v0.27h0.731v1.926h0.289v-1.926h0.732v-0.27H250.858z M252.9,30.286v2.195h0.27v-1.867l0.635,1.867h0.27
		l0.636-1.829v1.829h0.289v-2.195h-0.404l-0.521,1.542c-0.053,0.153-0.089,0.265-0.116,0.346l-0.115-0.328l-0.52-1.56H252.9
		L252.9,30.286L252.9,30.286z M225.994,30.69c0.375,0,0.682,0.181,0.924,0.539c0.166,0.246,0.274,0.619,0.308,1.118h-2.484
		c0.024-0.507,0.167-0.896,0.404-1.195C225.383,30.854,225.657,30.69,225.994,30.69z M244.06,30.69c0.372,0,0.683,0.181,0.924,0.539
		c0.166,0.246,0.275,0.619,0.31,1.118h-2.485c0.022-0.507,0.165-0.896,0.404-1.195C243.448,30.854,243.723,30.69,244.06,30.69z
		 M211.375,30.903c0.371,0,0.667,0.181,0.905,0.537c0.165,0.247,0.274,0.62,0.308,1.118h-2.446c0.024-0.506,0.149-0.915,0.385-1.213
		C210.763,31.047,211.042,30.903,211.375,30.903z M216.152,30.903c0.333,0,0.618,0.185,0.847,0.537
		c0.229,0.356,0.328,0.902,0.328,1.658c0,0.737-0.109,1.284-0.347,1.655c-0.238,0.372-0.521,0.56-0.828,0.56
		c-0.226,0-0.431-0.075-0.616-0.231c-0.186-0.155-0.323-0.377-0.424-0.674c-0.101-0.296-0.154-0.752-0.154-1.348
		c0-0.701,0.125-1.229,0.366-1.6S215.845,30.903,216.152,30.903z"/>
	<path id="polygon287" fill="#F7A80D" d="M192.125,24.798l-2.87,1.231l2.657,1.137l3.083-1.137L192.125,24.798z M187.81,26.339
		l-0.096,5.547l4.198,1.848v-5.759L187.81,26.339z M196.439,26.339l-3.794,1.443v5.432l3.794-1.541V26.339z"/>
	<path id="polygon311" fill="#F7A80D" d="M200.964,9.082l-2.889,1.232l2.678,1.136l3.081-1.136L200.964,9.082z M196.959,10.718
		v5.547l3.583,1.04l0.115-5.045L196.959,10.718z M204.971,11.027l-3.389,1.444v5.451l3.389-1.541V11.027z"/>
	<path id="use3387" fill="#F7A80D" d="M187.396,16.888l-2.869,1.233l2.658,1.136l3.082-1.136L187.396,16.888z M183.082,18.429
		l-0.096,5.547l4.199,1.849v-5.758L183.082,18.429z M191.71,18.429l-3.794,1.444v5.432l3.794-1.541V18.429z"/>
	<path id="use3389" fill="#F7A80D" d="M196.641,16.683l-2.87,1.232l2.658,1.136l3.082-1.136L196.641,16.683z M192.327,18.223
		l-0.096,5.547l4.199,1.85v-5.759L192.327,18.223z M200.955,18.223l-3.794,1.445v5.432l3.794-1.543V18.223z"/>
	<path id="use3391" fill="#F7A80D" d="M209.995,9.082l-2.87,1.232l2.658,1.136l3.082-1.136L209.995,9.082z M205.681,10.622
		l-0.096,5.546l4.198,1.849V12.26L205.681,10.622z M214.309,10.622l-3.794,1.444v5.431l3.794-1.541V10.622z"/>
	<g>
		<path d="M285.531,25.134c-0.564-0.686-1.317-1.125-2.259-1.322c1.576-0.839,2.364-1.961,2.364-3.367
			c0-0.991-0.384-1.88-1.154-2.667c-0.933-0.962-2.173-1.444-3.718-1.444c-0.903,0-1.72,0.167-2.446,0.498
			c-0.729,0.332-1.297,0.788-1.703,1.366c-0.409,0.581-0.713,1.354-0.914,2.324l2.902,0.479c0.08-0.699,0.313-1.231,0.694-1.596
			c0.381-0.364,0.84-0.546,1.377-0.546c0.545,0,0.981,0.161,1.312,0.481c0.327,0.32,0.491,0.75,0.491,1.289
			c0,0.634-0.223,1.143-0.67,1.525c-0.449,0.382-1.099,0.563-1.951,0.541l-0.386,0.001V25.2c0,0,0.015-0.005,0.041-0.011
			L279.51,25.2c0.066-0.02,0.127-0.032,0.191-0.048c0.674-0.114,2.646-0.255,3.403,1.756c0.03,0.181,0.045,0.372,0.045,0.575
			c0,0.817-0.221,1.466-0.666,1.947c-0.444,0.48-0.99,0.721-1.641,0.721c-0.604,0-1.12-0.201-1.545-0.601
			c-0.426-0.401-0.688-0.98-0.785-1.738l-3.047,0.36c0.156,1.349,0.725,2.439,1.703,3.274c0.979,0.834,2.209,1.251,3.696,1.251
			c1.567,0,2.879-0.495,3.932-1.487c1.054-0.991,1.58-2.189,1.58-3.596C286.377,26.646,286.095,25.819,285.531,25.134z
			 M282.96,26.372c0.061,0.153,0.105,0.318,0.136,0.493L282.96,26.372z"/>
		<path d="M271.587,23.576c-0.771-0.396-1.967-0.782-3.578-1.153c-1.614-0.372-2.63-0.729-3.047-1.071
			c-0.328-0.271-0.493-0.595-0.493-0.973c0-0.416,0.176-0.747,0.527-0.995c0.545-0.386,1.299-0.58,2.262-0.58
			c0.934,0,1.634,0.181,2.102,0.541c0.463,0.36,0.767,0.948,0.909,1.765l3.105-1.465c-0.253-0.866-0.725-1.6-1.428-2.195
			c-1.042-0.882-2.593-1.324-4.654-1.324c-1.263,0-2.34,0.187-3.232,0.558c-0.893,0.372-1.575,0.913-2.05,1.623
			c-0.474,0.71-0.71,1.473-0.71,2.29c0,1.268,0.504,2.344,1.511,3.224c0.718,0.627,1.964,1.155,3.742,1.585
			c1.382,0.335,2.266,0.569,2.655,0.698c0.565,0.198,0.964,0.43,1.192,0.695c0.227,0.267,0.341,0.59,0.341,0.969
			c0,0.59-0.271,1.104-0.812,1.547c-0.541,0.439-1.346,0.66-2.414,0.66c-1.008,0-1.809-0.248-2.402-0.743s-0.987-1.271-1.182-2.328
			l-3.009,1.446c0.324,1.24,0.914,2.229,1.775,2.954c1.114,0.935,2.708,1.403,4.784,1.403c1.426,0,2.617-0.193,3.572-0.584
			c0.956-0.39,1.696-0.986,2.219-1.788c0.521-0.802,0.784-1.66,0.784-2.578c0-1.014-0.22-1.864-0.656-2.554
			C272.966,24.516,272.36,23.974,271.587,23.576z"/>
	</g>
	<rect x="256.957" y="11.885" fill="#201C1D" width="0.75" height="24.209"/>
</g>
</svg>
