<?xml version="1.0" encoding="utf-8"?>
<!-- Generator: Adobe Illustrator 15.1.0, SVG Export Plug-In . SVG Version: 6.00 Build 0)  -->
<!DOCTYPE svg PUBLIC "-//W3C//DTD SVG 1.1//EN" "http://www.w3.org/Graphics/SVG/1.1/DTD/svg11.dtd">
<svg version="1.1" id="Layer_1" xmlns="http://www.w3.org/2000/svg" xmlns:xlink="http://www.w3.org/1999/xlink" x="0px" y="0px"
	 width="800px" height="150px" viewBox="0 0 800 150" enable-background="new 0 0 800 150" xml:space="preserve">
<linearGradient id="SVGID_1_" gradientUnits="userSpaceOnUse" x1="429.127" y1="-149.623" x2="1036" y2="-149.623" gradientTransform="matrix(1 0 0 -1 -246 -80)">
	<stop  offset="0" style="stop-color:#DAEADC"/>
	<stop  offset="1" style="stop-color:#DAEADC;stop-opacity:0"/>
</linearGradient>
<polyline fill="url(#SVGID_1_)" points="790,97.012 218.391,97.012 183.127,68.74 218.391,42.234 790,42.234 "/>
<g>
	<g>
		<line fill="none" stroke="#39AB7D" stroke-width="2" stroke-miterlimit="10" x1="183.127" y1="68.74" x2="132.543" y2="82.986"/>
		<g>
			<circle fill="#39AB7D" cx="183.127" cy="68.74" r="7.519"/>
		</g>
	</g>
</g>
<g>
	
		<linearGradient id="SVGID_2_" gradientUnits="userSpaceOnUse" x1="428.5254" y1="-135.3872" x2="962.167" y2="-135.3872" gradientTransform="matrix(1 0 0 -1 -246 -80)">
		<stop  offset="0.1818" style="stop-color:#38AF7F"/>
		<stop  offset="0.1961" style="stop-color:#3EB081;stop-opacity:0.9826"/>
		<stop  offset="0.4748" style="stop-color:#86C5A2;stop-opacity:0.6419"/>
		<stop  offset="0.7113" style="stop-color:#B1D8BF;stop-opacity:0.3529"/>
		<stop  offset="0.8937" style="stop-color:#CBE6D2;stop-opacity:0.13"/>
		<stop  offset="1" style="stop-color:#D5EBD9;stop-opacity:0"/>
	</linearGradient>
	<polygon fill="url(#SVGID_2_)" points="183.728,69.54 182.526,67.939 218.057,41.234 716.167,41.234 716.167,43.234 
		218.725,43.234 	"/>
</g>
<linearGradient id="SVGID_3_" gradientUnits="userSpaceOnUse" x1="428.501" y1="-162.9858" x2="961.167" y2="-162.9858" gradientTransform="matrix(1 0 0 -1 -246 -80)">
	<stop  offset="0.1818" style="stop-color:#38AF7F"/>
	<stop  offset="0.1961" style="stop-color:#3EB081;stop-opacity:0.9826"/>
	<stop  offset="0.4748" style="stop-color:#86C5A2;stop-opacity:0.6419"/>
	<stop  offset="0.7113" style="stop-color:#B1D8BF;stop-opacity:0.3529"/>
	<stop  offset="0.8937" style="stop-color:#CBE6D2;stop-opacity:0.13"/>
	<stop  offset="1" style="stop-color:#D5EBD9;stop-opacity:0"/>
</linearGradient>
<polygon fill="url(#SVGID_3_)" points="715.167,98.012 218.039,98.012 182.501,69.521 183.753,67.96 218.742,96.012 715.167,96.012 
	"/>
<g id="layer1" transform="translate(0,-1020.3621)">
	<g id="g7126">
		<path id="rect4960" fill="#E6E7E8" d="M-95.539,975.375h79.979c2.77,0,4.999,2.229,4.999,4.999v79.979
			c0,2.77-2.229,4.998-4.999,4.998h-79.979c-2.769,0-4.999-2.229-4.999-4.998v-79.979
			C-100.537,977.604-98.308,975.375-95.539,975.375L-95.539,975.375z"/>
		<path id="path4962" fill="#C7C7C7" d="M-95.539,975.373c-2.766,0-4.999,2.229-4.999,4.999v8.332h89.976v-8.332
			c0-2.769-2.226-4.999-4.999-4.999H-95.539z M-100.537,1028.694v31.658c0,2.766,2.232,4.998,4.999,4.998h79.979
			c2.773,0,4.999-2.232,4.999-4.998v-31.658H-100.537z"/>
		<path id="path5745" fill="#F9F9F9" d="M-100.537,1015.362h56.651H-100.537z M-100.537,1028.694v31.658
			c0,2.766,2.232,4.998,4.999,4.998h46.654c2.772,0,4.429-2.291,4.999-4.998v-31.658H-100.537z"/>
		<path id="path4964" fill="#4F8DF5" d="M-10.561,988.704h-89.976v39.99h89.976V988.704z"/>
		<path id="path5030" fill="#376AD7" d="M-55.563,1028.694v36.656h40.002c2.773,0,4.999-2.232,4.999-4.998v-31.658H-55.563z"/>
		<path id="circle5036" fill="#FFFFFF" d="M-92.206,982.04c0,0.921-0.745,1.666-1.667,1.666c-0.92,0-1.666-0.745-1.666-1.666
			s0.746-1.666,1.666-1.666C-92.951,980.374-92.206,981.119-92.206,982.04z"/>
		<path id="circle5038" fill="#FFFFFF" d="M-85.542,982.04c0,0.921-0.745,1.666-1.666,1.666c-0.921,0-1.666-0.745-1.666-1.666
			s0.745-1.666,1.666-1.666C-86.286,980.374-85.542,981.119-85.542,982.04z"/>
		<path id="circle5040" fill="#FFFFFF" d="M-78.876,982.04c0,0.921-0.746,1.666-1.667,1.666s-1.666-0.745-1.666-1.666
			s0.745-1.666,1.666-1.666S-78.876,981.119-78.876,982.04z"/>
		<path id="path5046" fill="#C7C7C7" d="M-93.873,1040.354c-0.92-0.014-1.676,0.723-1.688,1.645
			c-0.013,0.92,0.722,1.676,1.643,1.688c0.013,0.004,0.029,0.004,0.045,0h7.915h12.08c0.921,0.014,1.676-0.723,1.689-1.643
			c0.013-0.918-0.723-1.676-1.644-1.689c-0.013,0-0.029,0-0.045,0h-12.08H-93.873z M-67.213,1040.354
			c-0.921-0.014-1.676,0.723-1.689,1.645c-0.013,0.92,0.723,1.676,1.644,1.688c0.013,0.004,0.029,0.004,0.045,0h3.333
			c0.921,0.014,1.676-0.723,1.689-1.643c0.013-0.918-0.723-1.676-1.643-1.689c-0.013,0-0.029,0-0.046,0H-67.213z"/>
		<path id="path5048" fill="#C7C7C7" d="M-93.873,1050.35c-0.92-0.012-1.676,0.725-1.688,1.645
			c-0.013,0.922,0.722,1.676,1.643,1.689c0.013,0.004,0.029,0.004,0.045,0h7.915h12.08c0.921,0.014,1.676-0.723,1.689-1.645
			c0.013-0.918-0.723-1.676-1.644-1.689c-0.013,0-0.029,0-0.045,0h-12.08H-93.873z M-67.213,1050.35
			c-0.921-0.012-1.676,0.725-1.689,1.645c-0.013,0.922,0.723,1.676,1.644,1.689c0.013,0.004,0.029,0.004,0.045,0h3.333
			c0.921,0.014,1.676-0.723,1.689-1.645c0.013-0.918-0.723-1.676-1.643-1.689c-0.013,0-0.029,0-0.046,0H-67.213z"/>
	</g>
</g>
<g>
	<path d="M115.92,43.491H84.893v9.008h-6.005v55.737h43.539v-9.008h6.005V52.874L115.92,43.491z M116.25,45.613l9.305,6.979h-9.362
		L116.25,45.613z M120.925,97.727v0.75v0.752v7.506H80.389V54h4.504h0.75h0.751h22.351l-0.072,9.102h12.251V97.727z M110.187,61.601
		l0.056-6.98l9.306,6.98H110.187z M126.93,97.727h-4.504V61.882l-12.511-9.383H86.395v-7.507h28.356l-0.072,9.102h12.251V97.727z"/>
	<polygon points="86.395,68.24 100.563,68.24 100.563,66.738 86.395,66.738 85.644,66.738 85.55,66.738 85.55,68.24 85.644,68.24 	
		"/>
	<polygon points="85.644,72.744 85.55,72.744 85.55,74.245 85.644,74.245 86.395,74.245 115.577,74.245 115.577,72.744 
		86.395,72.744 	"/>
	<polygon points="85.644,78.748 85.55,78.748 85.55,80.25 85.644,80.25 86.395,80.25 115.577,80.25 115.577,78.748 86.395,78.748 	
		"/>
	<polygon points="85.644,84.754 85.55,84.754 85.55,86.256 85.644,86.256 86.395,86.256 115.577,86.256 115.577,84.754 
		86.395,84.754 	"/>
	<polygon points="85.644,90.76 85.55,90.76 85.55,92.26 85.644,92.26 86.395,92.26 115.577,92.26 115.577,90.76 86.395,90.76 	"/>
</g>
<g>
	
		<circle fill="#FFFFFF" stroke="#149F00" stroke-linecap="round" stroke-linejoin="round" stroke-miterlimit="10" cx="75.689" cy="79.932" r="13.195"/>
	<path fill="#FFFFFF" stroke="#149F00" stroke-linecap="round" stroke-linejoin="round" stroke-miterlimit="10" d="M66.358,89.262
		l-6.718,6.717L66.358,89.262z"/>
	
		<rect x="51.691" y="93.691" transform="matrix(-0.7071 -0.7071 0.7071 -0.7071 20.6145 211.5426)" fill="#FFFFFF" stroke="#149F00" stroke-linecap="round" stroke-linejoin="round" stroke-miterlimit="10" width="4.856" height="15.623"/>
	<path fill="#FFFFFF" stroke="#149F00" stroke-linecap="round" stroke-linejoin="round" stroke-miterlimit="10" d="M79.426,71.355
		c4.095,1.53,6.174,6.092,4.643,10.188"/>
</g>
</svg>
