<?xml version="1.0" encoding="utf-8"?>
<!-- Generator: Adobe Illustrator 15.1.0, SVG Export Plug-In . SVG Version: 6.00 Build 0)  -->
<!DOCTYPE svg PUBLIC "-//W3C//DTD SVG 1.1//EN" "http://www.w3.org/Graphics/SVG/1.1/DTD/svg11.dtd">
<svg version="1.1" id="Layer_1" xmlns="http://www.w3.org/2000/svg" xmlns:xlink="http://www.w3.org/1999/xlink" x="0px" y="0px"
	 width="800px" height="150px" viewBox="0 0 800 150" enable-background="new 0 0 800 150" xml:space="preserve">
<path fill="#31AF7F" d="M632.277,257.589l-0.027-0.063l0.016-0.012l-0.197-0.378l-10.621-20.221
	c-0.289-0.528-1.299-2.078-3.24-2.078h-35.576c-2.166,0-3.25,2.134-3.273,2.184l-10.431,19.859l-0.004,0.009l-0.074,0.14
	c-0.175,0.346-0.563,1.286-0.178,2.215c2.649,4.301,7.374,7.188,12.797,7.188c5.302,0,9.927-2.766,12.606-6.908
	c0.41-0.941-0.16-2.119-0.16-2.119l-9.868-18.793l-0.097-0.182c-0.133-0.307-0.25-0.889,0.808-0.889h12.938
	c0.366,0.012,1.39,0.193,1.39,1.906v44.519c-0.024,0.44-0.191,1.334-1.108,1.899l-6.477,4.006c0,0-1.699,1.072,0,1.072h18.379
	c1.253,0,0-0.869,0-0.869l-6.672-4.084c-0.004-0.002-0.004-0.004-0.006-0.006c-1.098-0.672-1.303-1.518-1.332-1.945v-44.781
	c0-1.549,1.109-1.708,1.5-1.717h12.65c0.331,0.006,1.34,0.115,0.705,1.33l-9.906,18.858c0,0-0.311,0.742,0.039,1.556
	c2.652,4.278,7.358,7.146,12.764,7.146c5.416,0,10.139-2.874,12.789-7.166C632.675,258.574,632.377,257.806,632.277,257.589z
	 M590.71,256.994l0.001,0.002l0.136,0.261c0.21,0.434,0.526,1.26-0.136,1.26l-18.809-0.002c-0.623,0-0.5-0.571-0.301-1.032
	l0.299-0.566l0.002-0.004l8.967-17.072c0,0,0.457-0.708,0.83,0l0,0L590.71,256.994z M610.09,257.201l0.133-0.252
	c0-0.002,0.005-0.011,0.005-0.011l8.767-16.69c0.012-0.019,0.606-1.15,1.213,0.002l8.74,16.64c0.181,0.358,0.733,1.629-0.563,1.629
	l-17.455-0.003c-0.003,0-0.003,0-0.003,0C609.654,258.515,609.884,257.648,610.09,257.201z"/>
<linearGradient id="SVGID_1_" gradientUnits="userSpaceOnUse" x1="182.6133" y1="109.6123" x2="789.4863" y2="109.6123" gradientTransform="matrix(-1 0 0 1 800.9717 0)">
	<stop  offset="0" style="stop-color:#DAEADC"/>
	<stop  offset="1" style="stop-color:#DAEADC;stop-opacity:0"/>
</linearGradient>
<polyline fill="url(#SVGID_1_)" points="11.485,137 583.095,137 618.358,108.729 583.095,82.225 11.485,82.225 "/>
<g>
	<g>
		
			<line fill="none" stroke="#39AB7D" stroke-width="2" stroke-miterlimit="10" x1="618.358" y1="108.729" x2="668.514" y2="89.489"/>
		<g>
			<circle fill="#39AB7D" cx="618.358" cy="108.729" r="7.519"/>
		</g>
	</g>
</g>
<g>
	
		<linearGradient id="SVGID_2_" gradientUnits="userSpaceOnUse" x1="182.0127" y1="95.377" x2="715.6533" y2="95.377" gradientTransform="matrix(-1 0 0 1 800.9717 0)">
		<stop  offset="0.1818" style="stop-color:#38AF7F"/>
		<stop  offset="0.1961" style="stop-color:#3EB081;stop-opacity:0.9826"/>
		<stop  offset="0.4748" style="stop-color:#86C5A2;stop-opacity:0.6419"/>
		<stop  offset="0.7113" style="stop-color:#B1D8BF;stop-opacity:0.3529"/>
		<stop  offset="0.8937" style="stop-color:#CBE6D2;stop-opacity:0.13"/>
		<stop  offset="1" style="stop-color:#D5EBD9;stop-opacity:0"/>
	</linearGradient>
	<polygon fill="url(#SVGID_2_)" points="617.758,109.529 618.959,107.93 583.429,81.225 85.318,81.225 85.318,83.225 
		582.761,83.225 	"/>
</g>
<linearGradient id="SVGID_3_" gradientUnits="userSpaceOnUse" x1="181.9873" y1="122.9746" x2="714.6533" y2="122.9746" gradientTransform="matrix(-1 0 0 1 800.9717 0)">
	<stop  offset="0.1818" style="stop-color:#38AF7F"/>
	<stop  offset="0.1961" style="stop-color:#3EB081;stop-opacity:0.9826"/>
	<stop  offset="0.4748" style="stop-color:#86C5A2;stop-opacity:0.6419"/>
	<stop  offset="0.7113" style="stop-color:#B1D8BF;stop-opacity:0.3529"/>
	<stop  offset="0.8937" style="stop-color:#CBE6D2;stop-opacity:0.13"/>
	<stop  offset="1" style="stop-color:#D5EBD9;stop-opacity:0"/>
</linearGradient>
<polygon fill="url(#SVGID_3_)" points="86.318,138 583.446,138 618.984,109.51 617.732,107.949 582.743,136 86.318,136 "/>
<g>
	<path fill="#2DAF7F" d="M712.349,93.853c-20.454,0-21.066-1.052-21.432-1.681c-0.211-0.36-0.85-1.459-0.704-32.88
		c0.023-5.204,0.173-31.225,0.746-32.444c0.361-0.769,0.702-1.495,23.543-1.495c11.721,0,25.922,0.188,27.008,1.079
		c0.435,0.356,1.339,1.097,1.167,32.516c-0.113,20.796-0.611,31.886-1.478,32.959C739.83,93.601,722.535,93.853,712.349,93.853z
		 M692.813,90.86c1.63,0.4,8.133,0.798,19.535,0.798c14.604,0,25.117-0.616,27.11-1.217c1.07-4.887,1.451-56.181,0.479-62.254
		c-2.334-0.322-12.415-0.64-25.436-0.64c-12.461,0-19.604,0.292-21.553,0.593C692.512,34.205,692.034,85.294,692.813,90.86z"/>
	<path fill="#2DAF7F" d="M705.95,57.42c-0.59,0-1.077-0.469-1.096-1.063c-0.02-0.606,0.456-1.113,1.062-1.131l23.868-0.749
		c0.612-0.025,1.112,0.457,1.132,1.063c0.02,0.605-0.457,1.112-1.063,1.131l-23.868,0.749C705.974,57.42,705.962,57.42,705.95,57.42
		z"/>
	<path fill="#2DAF7F" d="M705.677,64.024c-0.593,0-1.081-0.472-1.097-1.067c-0.018-0.606,0.46-1.111,1.065-1.128l25.248-0.7
		c0.622-0.04,1.11,0.459,1.127,1.066c0.018,0.606-0.46,1.111-1.065,1.128l-25.248,0.7C705.696,64.024,705.687,64.024,705.677,64.024
		z"/>
	<path fill="#2DAF7F" d="M689.208,39.647c-0.362,0-0.719-0.18-0.927-0.51c-0.104-0.165-0.233-0.355-0.373-0.561
		c-0.525-0.777-1.121-1.657-1.355-2.437c-0.355-1.179-0.292-2.35,0.177-3.294c0.406-0.815,1.142-1.504,2.07-1.941
		c2.161-1.013,4.937-0.391,6.455,1.454c1.594,1.936,1.185,4.951-0.13,6.748c-0.358,0.489-1.047,0.595-1.534,0.237
		c-0.49-0.358-0.596-1.045-0.237-1.534c0.807-1.101,1.081-2.994,0.206-4.055c-0.886-1.077-2.567-1.455-3.826-0.863
		c-0.483,0.227-0.852,0.558-1.038,0.931c-0.217,0.437-0.231,1.051-0.041,1.685c0.139,0.46,0.678,1.257,1.071,1.839
		c0.153,0.226,0.295,0.436,0.409,0.616c0.325,0.512,0.173,1.19-0.339,1.515C689.613,39.592,689.41,39.647,689.208,39.647z"/>
	<path fill="#2DAF7F" d="M694.465,51.991c-0.238,0-0.478-0.077-0.679-0.236c-0.476-0.375-0.558-1.065-0.183-1.542
		c0.418-0.529,0.702-1.133,0.822-1.745c0.209-1.068-0.117-2.248-0.834-3.005c-0.725-0.766-1.868-1.122-2.856-0.887
		c-0.993,0.238-1.815,1.08-2,2.046c-0.183,0.957,0.299,2.028,1.119,2.491c0.528,0.298,0.715,0.968,0.417,1.496
		c-0.298,0.529-0.967,0.714-1.496,0.417c-1.629-0.92-2.553-2.945-2.196-4.815c0.347-1.816,1.813-3.331,3.646-3.77
		c1.751-0.419,3.698,0.175,4.963,1.513c1.206,1.276,1.739,3.168,1.392,4.936c-0.186,0.952-0.618,1.88-1.252,2.682
		C695.111,51.848,694.79,51.991,694.465,51.991z"/>
	<path fill="#2DAF7F" d="M694.124,63.796c-0.244,0-0.489-0.081-0.693-0.247c-0.47-0.384-0.539-1.075-0.156-1.544
		c0.719-0.881,0.809-1.867,0.798-2.802c-0.008-0.733-0.265-1.678-0.957-2.128c-0.544-0.353-1.327-0.385-2.039-0.384
		c-0.731,0.008-1.641,0.076-2.19,0.526c-0.485,0.397-0.73,1.186-0.611,1.964c0.116,0.75,0.514,1.523,1.216,2.366
		c0.388,0.466,0.325,1.158-0.141,1.546c-0.467,0.388-1.157,0.325-1.546-0.14c-0.965-1.158-1.521-2.282-1.699-3.438
		c-0.24-1.565,0.292-3.096,1.389-3.995c1.077-0.885,2.468-1.012,3.558-1.025c1.046-0.006,2.228,0.066,3.26,0.739
		c1.206,0.784,1.938,2.258,1.957,3.944c0.014,1.209-0.121,2.78-1.292,4.215C694.758,63.658,694.441,63.796,694.124,63.796z"/>
	<path fill="#2DAF7F" d="M688.659,74.727c-0.13,0-0.261-0.022-0.39-0.071c-1.864-0.706-2.166-2.238-2.408-3.472
		c-0.384-1.94,0.729-3.223,1.6-4.025c1.093-1.01,2.682-1.526,4.247-1.388c1.365,0.123,2.65,0.733,3.528,1.677
		c0.983,1.059,1.437,2.503,1.214,3.862c-0.221,1.356-1.128,2.572-2.367,3.171c-0.547,0.264-1.202,0.035-1.466-0.511
		c-0.264-0.545-0.035-1.202,0.512-1.466c0.595-0.287,1.049-0.896,1.155-1.549c0.112-0.686-0.139-1.457-0.656-2.013
		c-0.513-0.552-1.284-0.911-2.116-0.985c-0.964-0.092-1.918,0.218-2.563,0.813c-0.934,0.863-1.057,1.368-0.951,1.902
		c0.246,1.252,0.36,1.669,1.05,1.931c0.567,0.215,0.853,0.849,0.638,1.415C689.52,74.458,689.102,74.727,688.659,74.727z"/>
	<path fill="#2DAF7F" d="M688.749,86.938c-0.188,0-0.38-0.048-0.554-0.15c-2.08-1.221-2.335-4.08-1.518-6.151
		c0.805-2.044,2.833-3.838,5.148-3.321c0.401,0.09,2.446,0.582,3.29,1.447c1.176,1.205,1.908,2.76,1.957,4.157
		c0.042,1.167-0.097,2.832-1.774,3.821c-0.519,0.309-1.193,0.136-1.502-0.389c-0.308-0.521-0.135-1.194,0.388-1.503
		c0.483-0.284,0.737-0.665,0.696-1.851c-0.038-1.021-0.715-2.066-1.336-2.702c-0.204-0.206-1.209-0.618-2.199-0.84
		c-1.099-0.248-2.174,0.838-2.626,1.984c-0.481,1.22-0.359,2.897,0.586,3.453c0.523,0.307,0.698,0.979,0.393,1.502
		C689.493,86.745,689.127,86.938,688.749,86.938z"/>
	<path fill="#2DAF7F" d="M708.354,97.67c-2.843,0-7.611-0.396-10.688-1.061c-2.955-0.637-5.491-1.415-6.608-4.494
		c-0.207-0.569,0.088-1.199,0.657-1.406c0.57-0.207,1.199,0.089,1.406,0.658c0.68,1.871,2.094,2.468,5.008,3.098
		c2.896,0.624,7.558,1.01,10.226,1.01c0.006,0,0.01,0,0.014,0c9.149-0.004,18.384-0.671,27.447-1.981
		c0.788-0.114,1.681-0.245,2.337-0.642c0.585-0.354,0.851-0.647,0.98-1.556c0.085-0.6,0.646-1.011,1.241-0.931
		c0.601,0.085,1.019,0.642,0.932,1.242c-0.211,1.48-0.796,2.385-2.018,3.123c-1.036,0.627-2.213,0.797-3.157,0.935
		c-9.168,1.326-18.508,2.001-27.762,2.005C708.365,97.67,708.36,97.67,708.354,97.67z"/>
	<path fill="#2DAF7F" d="M685.917,115.762c-0.253,0-0.364-0.051-0.469-0.099c-0.864-0.394-1.32-1.429-5.676-14.769
		c-3.801-11.639-9.006-27.581-13.643-37.309c-1.217-2.55-2.402-5.495-1.082-8.164c1.056-2.133,3.276-3.136,5.462-3.98
		c3.075-1.189,5.758-2.122,8.352-3.024c2.574-0.895,5.236-1.82,8.273-2.994c0.564-0.214,1.201,0.063,1.42,0.628
		s-0.063,1.201-0.628,1.42c-3.073,1.188-5.753,2.119-8.344,3.02c-2.577,0.896-5.241,1.822-8.282,2.998
		c-1.855,0.717-3.579,1.479-4.285,2.906c-0.885,1.788,0.056,4.065,1.096,6.246c4.699,9.856,9.929,25.875,13.748,37.571
		c1.96,6.001,3.82,11.7,4.59,13.307c5.111-1.074,41.89-14.861,44.837-16.364c0.023-0.124-0.058-0.391-0.213-0.823
		c-0.114-0.32-0.225-0.641-0.285-0.949c-0.117-0.594,0.27-1.171,0.865-1.288c0.588-0.122,1.171,0.27,1.288,0.864
		c0.041,0.207,0.122,0.418,0.199,0.632c0.276,0.774,0.741,2.07-0.305,3.149c-0.836,0.864-19.52,7.774-23.257,9.15
		C690.971,114.746,687.043,115.762,685.917,115.762z"/>
	<path fill="#2DAF7F" d="M664.831,67.867c-0.284,0-0.568-0.109-0.783-0.328c-0.335-0.341-2.018-2.129-2.271-3.891
		c-0.178-1.234,0.094-2.587,0.765-3.81c1.129-2.055,3.988-2.789,6.095-2.311c2.329,0.527,3.991,2.027,4.444,4.013l0.046,0.179
		c0.206,0.76,0.633,2.343-1.413,4.355c-0.431,0.425-1.127,0.421-1.553-0.013c-0.425-0.433-0.419-1.128,0.014-1.553
		c1.132-1.112,0.987-1.649,0.833-2.217l-0.066-0.262c-0.262-1.142-1.303-2.024-2.789-2.361c-1.268-0.288-3.092,0.146-3.686,1.226
		c-0.443,0.808-0.627,1.674-0.517,2.44c0.094,0.65,0.809,1.796,1.663,2.666c0.425,0.432,0.419,1.127-0.013,1.552
		C665.387,67.762,665.108,67.867,664.831,67.867z"/>
	<path fill="#2DAF7F" d="M670.03,78.615c-0.067,0-0.137-0.007-0.206-0.02c-1.771-0.336-2.609-1.685-3.165-2.576
		c-0.81-1.301-0.971-2.716-0.468-4.011c0.422-1.088,1.363-1.936,2.876-2.594c1.078-0.469,1.993-0.69,2.876-0.695
		c1.791,0.057,3.58,0.978,4.521,2.52c0.94,1.54,1.01,3.57,0.175,5.173c-0.28,0.536-0.94,0.745-1.48,0.465
		c-0.537-0.279-0.746-0.942-0.466-1.48c0.479-0.919,0.438-2.13-0.101-3.014c-0.541-0.884-1.57-1.461-2.636-1.469
		c-0.575,0.004-1.216,0.167-2.013,0.514c-0.949,0.413-1.506,0.862-1.706,1.376c-0.315,0.813-0.027,1.553,0.27,2.029
		c0.551,0.885,0.959,1.46,1.728,1.605c0.595,0.113,0.986,0.688,0.874,1.283C671.008,78.248,670.548,78.615,670.03,78.615z"/>
	<path fill="#2DAF7F" d="M679.434,89.737c-0.205,0-0.412-0.058-0.597-0.177c-0.509-0.33-0.653-1.01-0.323-1.52
		c0.773-1.193,1.159-2.258,1.174-3.254c0.019-1.073-0.48-2.083-1.241-2.513c-0.726-0.408-1.651-0.336-2.3-0.205
		c-1.071,0.218-1.995,0.704-2.6,1.374c-0.637,0.701-0.927,1.64-0.762,2.445c0.164,0.789,0.824,1.452,1.537,1.542
		c0.602,0.074,1.028,0.623,0.953,1.225c-0.074,0.602-0.634,1.028-1.225,0.953c-1.655-0.206-3.06-1.554-3.415-3.276
		c-0.31-1.502,0.171-3.133,1.283-4.363c0.931-1.026,2.241-1.736,3.793-2.051c1.456-0.294,2.773-0.141,3.813,0.445
		c1.464,0.825,2.391,2.576,2.358,4.461c-0.022,1.418-0.522,2.861-1.527,4.412C680.145,89.561,679.793,89.737,679.434,89.737z"/>
	<path fill="#2DAF7F" d="M677.683,100.935c-0.209,0-0.419-0.059-0.606-0.183c-0.154-0.104-0.318-0.202-0.482-0.302
		c-0.734-0.447-1.647-1.001-2.11-1.993c-0.977-2.092-0.689-3.642-0.276-4.573c0.571-1.289,1.788-2.302,3.335-2.78
		c1.107-0.342,3.149-0.228,4.167,0.103c1.397,0.452,2.456,1.777,2.763,3.461c0.246,1.346,0.007,2.668-0.205,3.836
		c-0.107,0.598-0.685,0.995-1.274,0.884c-0.597-0.106-0.992-0.678-0.885-1.275c0.187-1.031,0.378-2.097,0.204-3.051
		c-0.13-0.716-0.575-1.539-1.278-1.767c-0.689-0.224-2.26-0.274-2.844-0.093c-0.94,0.291-1.661,0.864-1.976,1.573
		c-0.331,0.749-0.244,1.675,0.259,2.754c0.181,0.39,0.706,0.708,1.26,1.046c0.189,0.115,0.377,0.229,0.556,0.347
		c0.505,0.335,0.644,1.016,0.31,1.521C678.387,100.761,678.038,100.935,677.683,100.935z"/>
	<path fill="#2DAF7F" d="M681.066,111.591c-0.123,0-0.247-0.021-0.369-0.063c-1.774-0.635-2.49-2.354-2.874-3.591
		c-0.818-2.643,0.349-4.775,3.468-6.34c1.482-0.746,3.012-0.879,4.176-0.396c0.681,0.283,2.138,1.283,2.77,3.048
		c0.354,0.984,0.555,2.568-0.483,4.519c-0.285,0.535-0.952,0.735-1.485,0.453c-0.535-0.285-0.737-0.949-0.452-1.484
		c0.531-0.997,0.65-1.922,0.354-2.747c-0.387-1.081-1.331-1.673-1.544-1.761c-0.557-0.231-1.466-0.116-2.263,0.287
		c-1.665,0.834-3.043,1.834-2.442,3.771c0.398,1.285,0.852,1.936,1.516,2.172c0.571,0.204,0.869,0.832,0.665,1.403
		C681.94,111.312,681.518,111.591,681.066,111.591z"/>
	<path fill="#2DAF7F" d="M690.799,117.501c-2.324,0-4.417-0.525-5.917-1.961c-0.438-0.42-0.454-1.114-0.035-1.553
		c0.421-0.438,1.114-0.454,1.553-0.034c2.936,2.81,10.582,0.435,13.094-0.346c25.753-7.999,30.945-13.601,31.749-16.227
		c0.177-0.58,0.795-0.908,1.37-0.729c0.581,0.178,0.907,0.791,0.729,1.37c-1.653,5.403-12.822,11.352-33.197,17.681
		C697.16,116.63,693.788,117.501,690.799,117.501z"/>
</g>
</svg>
