<?xml version="1.0" encoding="utf-8"?>
<!-- Generator: Adobe Illustrator 15.1.0, SVG Export Plug-In . SVG Version: 6.00 Build 0)  -->
<!DOCTYPE svg PUBLIC "-//W3C//DTD SVG 1.1//EN" "http://www.w3.org/Graphics/SVG/1.1/DTD/svg11.dtd">
<svg version="1.1" id="Capa_1" xmlns="http://www.w3.org/2000/svg" xmlns:xlink="http://www.w3.org/1999/xlink" x="0px" y="0px"
	 width="32px" height="32px" viewBox="0 0 32 32" enable-background="new 0 0 32 32" xml:space="preserve">
<path fill="#3A5163" d="M18.133,21.331c-3.234,1.672-5.48,2.363-8.71,2.201c0.076,0.479,0.186,2.786,0.225,3.031
	c0.134,0.857,3.478,3.349,8.797,3.354c5.318-0.006,8.662-2.497,8.797-3.354c0.131-0.854,2.432-16.902,2.744-18.944
	c0.309-2.012-4.271-4.371-11.541-4.371c-7.272,0-11.85,2.358-11.542,4.371c0.088,0.576,0.333,2.881,0.643,4.849
	c-3.563,1.384-4.744,3.628-4.585,5.458c0.188,2.164,2.135,4.481,6.412,4.882c2.441,0.228,5.203-0.33,8.309-1.997
	C17.943,20.672,18.389,21.198,18.133,21.331z M5.025,17.746c-0.082-0.952,0.674-2.219,2.851-3.168
	c0.313,1.985,0.653,4.143,0.953,6.036C6.452,20.15,5.127,18.912,5.025,17.746z M18.444,10.694c-5.319-0.004-9.093-1.977-9.093-2.715
	c-0.003-0.732,3.773-2.652,9.093-2.649c5.318-0.003,9.094,1.917,9.092,2.649C27.536,8.717,23.763,10.69,18.444,10.694z"/>
</svg>
