<?xml version="1.0" encoding="utf-8"?>
<!-- Generator: Adobe Illustrator 15.1.0, SVG Export Plug-In . SVG Version: 6.00 Build 0)  -->
<!DOCTYPE svg PUBLIC "-//W3C//DTD SVG 1.1//EN" "http://www.w3.org/Graphics/SVG/1.1/DTD/svg11.dtd">
<svg version="1.1" id="Layer_1" xmlns="http://www.w3.org/2000/svg" xmlns:xlink="http://www.w3.org/1999/xlink" x="0px" y="0px"
	 width="65px" height="31px" viewBox="0 0 65 31" enable-background="new 0 0 65 31" xml:space="preserve">
<ellipse fill="#FFB300" stroke="#D98C00" stroke-miterlimit="10" cx="32.5" cy="15.5" rx="32.5" ry="15.5"/>
<g enable-background="new    ">
	<path d="M17.933,13.534c-0.324,0.156-1.091,0.348-2.063,0.348c-2.794,0-4.233-1.751-4.233-4.054c0-2.759,1.967-4.281,4.414-4.281
		c0.947,0,1.667,0.18,1.991,0.359l-0.384,1.439c-0.36-0.156-0.875-0.3-1.535-0.3c-1.439,0-2.566,0.875-2.566,2.675
		c0,1.618,0.959,2.638,2.579,2.638c0.563,0,1.163-0.107,1.535-0.264L17.933,13.534z"/>
	<path d="M24.653,10.752c0,2.146-1.523,3.13-3.094,3.13c-1.715,0-3.034-1.127-3.034-3.022c0-1.906,1.247-3.118,3.142-3.118
		C23.454,7.741,24.653,8.977,24.653,10.752z M20.408,10.812c0,1.008,0.42,1.763,1.199,1.763c0.72,0,1.164-0.707,1.164-1.774
		c0-0.863-0.336-1.751-1.164-1.751C20.744,9.049,20.408,9.948,20.408,10.812z"/>
	<path d="M25.784,9.756c0-0.731-0.024-1.343-0.048-1.871h1.547l0.072,0.792h0.036c0.252-0.384,0.779-0.936,1.775-0.936
		c0.768,0,1.355,0.396,1.607,1.008h0.024c0.228-0.313,0.48-0.552,0.768-0.72c0.324-0.18,0.684-0.288,1.116-0.288
		c1.128,0,1.979,0.792,1.979,2.555v3.454h-1.776v-3.19c0-0.852-0.276-1.343-0.863-1.343c-0.432,0-0.72,0.287-0.852,0.636
		c-0.036,0.132-0.06,0.312-0.06,0.468v3.43h-1.775v-3.298c0-0.731-0.264-1.235-0.852-1.235c-0.468,0-0.744,0.359-0.852,0.647
		c-0.06,0.144-0.072,0.312-0.072,0.468v3.418h-1.775V9.756z"/>
	<path d="M37.987,6.254c0,0.504-0.372,0.912-0.983,0.912c-0.576,0-0.947-0.408-0.947-0.912c0-0.516,0.383-0.911,0.971-0.911
		S37.975,5.738,37.987,6.254z M36.104,13.75V7.885h1.824v5.865H36.104z"/>
	<path d="M39.392,9.756c0-0.731-0.024-1.343-0.048-1.871h1.583l0.084,0.816h0.036c0.24-0.384,0.828-0.948,1.811-0.948
		c1.199,0,2.1,0.804,2.1,2.531v3.466h-1.823V10.5c0-0.756-0.265-1.271-0.924-1.271c-0.503,0-0.804,0.348-0.935,0.684
		c-0.049,0.12-0.061,0.288-0.061,0.456v3.382h-1.823V9.756z"/>
	<path d="M51.977,12.898c0,1.127-0.228,2.051-0.899,2.639c-0.636,0.552-1.511,0.72-2.374,0.72c-0.78,0-1.584-0.156-2.111-0.444
		l0.36-1.391c0.371,0.216,1.007,0.443,1.702,0.443c0.864,0,1.523-0.456,1.523-1.547v-0.372h-0.023
		c-0.349,0.479-0.912,0.756-1.584,0.756c-1.451,0-2.482-1.176-2.482-2.854c0-1.895,1.212-3.095,2.663-3.095
		c0.804,0,1.307,0.349,1.606,0.84h0.024l0.06-0.708h1.584c-0.024,0.384-0.049,0.876-0.049,1.752V12.898z M50.154,10.271
		c0-0.107-0.013-0.228-0.036-0.335c-0.132-0.48-0.479-0.804-0.983-0.804c-0.672,0-1.199,0.6-1.199,1.667
		c0,0.875,0.432,1.559,1.187,1.559c0.48,0,0.852-0.312,0.972-0.731c0.048-0.144,0.061-0.336,0.061-0.491V10.271z"/>
</g>
<g enable-background="new    ">
	<path d="M17.679,22.867c0.479,0.252,1.247,0.504,2.027,0.504c0.839,0,1.283-0.348,1.283-0.876c0-0.504-0.384-0.791-1.355-1.127
		c-1.343-0.48-2.231-1.224-2.231-2.399c0-1.379,1.164-2.422,3.058-2.422c0.924,0,1.583,0.18,2.063,0.407l-0.408,1.464
		c-0.312-0.156-0.899-0.385-1.679-0.385c-0.792,0-1.175,0.372-1.175,0.78c0,0.516,0.444,0.743,1.499,1.14
		c1.427,0.527,2.087,1.271,2.087,2.41c0,1.355-1.031,2.507-3.25,2.507c-0.923,0-1.835-0.252-2.291-0.504L17.679,22.867z"/>
	<path d="M29.916,21.752c0,2.146-1.523,3.13-3.094,3.13c-1.715,0-3.034-1.127-3.034-3.022c0-1.906,1.247-3.118,3.142-3.118
		C28.716,18.741,29.916,19.977,29.916,21.752z M25.67,21.812c0,1.008,0.42,1.763,1.199,1.763c0.72,0,1.164-0.707,1.164-1.774
		c0-0.863-0.336-1.751-1.164-1.751C26.006,20.049,25.67,20.948,25.67,21.812z"/>
	<path d="M36.875,21.752c0,2.146-1.523,3.13-3.094,3.13c-1.716,0-3.035-1.127-3.035-3.022c0-1.906,1.247-3.118,3.142-3.118
		C35.676,18.741,36.875,19.977,36.875,21.752z M32.629,21.812c0,1.008,0.419,1.763,1.199,1.763c0.721,0,1.164-0.707,1.164-1.774
		c0-0.863-0.336-1.751-1.164-1.751C32.965,20.049,32.629,20.948,32.629,21.812z"/>
	<path d="M38.006,20.756c0-0.731-0.023-1.343-0.047-1.871h1.582l0.084,0.816h0.037c0.239-0.384,0.827-0.948,1.811-0.948
		c1.199,0,2.099,0.804,2.099,2.531v3.466h-1.823V21.5c0-0.756-0.264-1.271-0.923-1.271c-0.504,0-0.804,0.348-0.936,0.684
		c-0.048,0.12-0.06,0.288-0.06,0.456v3.382h-1.824V20.756z"/>
	<path d="M45.89,24.882c-0.624,0-1.056-0.468-1.056-1.091c0-0.648,0.444-1.092,1.08-1.092c0.635,0,1.055,0.443,1.066,1.092
		c0,0.623-0.419,1.091-1.066,1.091H45.89z M45.23,22.1l-0.264-5.434h1.895L46.598,22.1H45.23z"/>
</g>
</svg>
