<?xml version="1.0" encoding="utf-8"?>
<!-- Generator: Adobe Illustrator 15.1.0, SVG Export Plug-In . SVG Version: 6.00 Build 0)  -->
<!DOCTYPE svg PUBLIC "-//W3C//DTD SVG 1.1//EN" "http://www.w3.org/Graphics/SVG/1.1/DTD/svg11.dtd">
<svg version="1.1" id="Capa_1" xmlns="http://www.w3.org/2000/svg" xmlns:xlink="http://www.w3.org/1999/xlink" x="0px" y="0px"
	 width="32px" height="32px" viewBox="44 34 32 32" enable-background="new 44 34 32 32" xml:space="preserve">
<polygon fill="#EDEADA" stroke="#9E8C78" stroke-width="0.25" stroke-miterlimit="10" points="71.167,42.555 64.219,35.607 
	48.833,35.607 48.833,64.393 71.167,64.393 "/>
<g>
	<path fill="#ADA18A" d="M53.796,47.022h12.408c0.273,0,0.496-0.222,0.496-0.496s-0.223-0.497-0.496-0.497H53.796
		c-0.274,0-0.496,0.222-0.496,0.497S53.522,47.022,53.796,47.022z"/>
	<path fill="#ADA18A" d="M53.796,43.052h4.963c0.274,0,0.496-0.222,0.496-0.497s-0.222-0.496-0.496-0.496h-4.963
		c-0.274,0-0.496,0.222-0.496,0.496S53.522,43.052,53.796,43.052z"/>
	<path fill="#ADA18A" d="M66.204,50H53.796c-0.274,0-0.496,0.222-0.496,0.497c0,0.274,0.222,0.496,0.496,0.496h12.408
		c0.273,0,0.496-0.222,0.496-0.496C66.7,50.222,66.478,50,66.204,50z"/>
	<path fill="#ADA18A" d="M66.204,53.971H53.796c-0.274,0-0.496,0.222-0.496,0.496s0.222,0.496,0.496,0.496h12.408
		c0.273,0,0.496-0.222,0.496-0.496S66.478,53.971,66.204,53.971z"/>
	<path fill="#ADA18A" d="M66.204,57.941H53.796c-0.274,0-0.496,0.222-0.496,0.496s0.222,0.496,0.496,0.496h12.408
		c0.273,0,0.496-0.222,0.496-0.496S66.478,57.941,66.204,57.941z"/>
</g>
<polygon fill="#ADA18A" points="64.219,35.607 64.219,42.555 71.167,42.555 "/>
</svg>
