<?xml version="1.0" encoding="utf-8"?>
<!-- Generator: Adobe Illustrator 15.1.0, SVG Export Plug-In . SVG Version: 6.00 Build 0)  -->
<!DOCTYPE svg PUBLIC "-//W3C//DTD SVG 1.1//EN" "http://www.w3.org/Graphics/SVG/1.1/DTD/svg11.dtd">
<svg version="1.1" id="Capa_1" xmlns="http://www.w3.org/2000/svg" xmlns:xlink="http://www.w3.org/1999/xlink" x="0px" y="0px"
	 width="32px" height="32px" viewBox="240 240 32 32" enable-background="new 240 240 32 32" xml:space="preserve">
<path fill="#EFCE4A" d="M264.973,267.666H241.79c-0.533,0-0.921-0.507-0.782-1.022l5.265-14.435c0.096-0.354,0.416-0.6,0.783-0.6
	h23.181c0.533,0,0.782,0.511,0.782,1.023l-5.265,14.434C265.659,267.421,265.339,267.666,264.973,267.666z"/>
<g>
	<path fill="#EBBA16" d="M267.016,246.948h-13.087l-2.59-3.625h-9.461c-0.495,0-0.897,0.401-0.897,0.897v22.13
		c0.036,0.001,0.072,0.002,0.107,0.005l5.187-14.146c0.096-0.354,0.416-0.6,0.782-0.6h20.857v-3.764
		C267.912,247.35,267.51,246.948,267.016,246.948z"/>
</g>
</svg>
