<?xml version="1.0" encoding="utf-8"?>
<!-- Generator: Adobe Illustrator 15.1.0, SVG Export Plug-In . SVG Version: 6.00 Build 0)  -->
<!DOCTYPE svg PUBLIC "-//W3C//DTD SVG 1.1//EN" "http://www.w3.org/Graphics/SVG/1.1/DTD/svg11.dtd">
<svg version="1.1" id="Google" xmlns="http://www.w3.org/2000/svg" xmlns:xlink="http://www.w3.org/1999/xlink" x="0px" y="0px"
	 width="82.5px" height="28px" viewBox="0 0 82.5 28" enable-background="new 0 0 82.5 28" xml:space="preserve">
<g display="none" opacity="0.77">
	<path display="inline" fill="#231F20" d="M21.289,10.496h-9.397v2.764h6.688c-0.327,3.877-3.552,5.532-6.597,5.532
		c-3.896,0-7.293-3.063-7.293-7.359c0-4.187,3.239-7.408,7.302-7.408c3.134,0,4.981,1.998,4.981,1.998l1.937-2.005
		c0,0-2.485-2.766-7.017-2.766c-5.77,0-10.234,4.87-10.234,10.129c0,5.155,4.2,10.18,10.381,10.18c5.438,0,9.417-3.723,9.417-9.23
		C21.457,11.166,21.289,10.496,21.289,10.496L21.289,10.496z"/>
	<path display="inline" fill="#231F20" d="M29.243,8.493c-3.822,0-6.563,2.989-6.563,6.474c0,3.537,2.656,6.582,6.606,6.582
		c3.577,0,6.506-2.734,6.506-6.506C35.794,10.72,32.388,8.493,29.243,8.493L29.243,8.493z M29.283,11.058
		c1.879,0,3.661,1.521,3.661,3.969c0,2.396-1.773,3.959-3.67,3.959c-2.084,0-3.728-1.668-3.728-3.979
		C25.547,12.748,27.169,11.058,29.283,11.058L29.283,11.058z"/>
	<path display="inline" fill="#231F20" d="M43.436,8.493c-3.823,0-6.563,2.989-6.563,6.474c0,3.537,2.658,6.582,6.606,6.582
		c3.576,0,6.504-2.734,6.504-6.506C49.984,10.72,46.579,8.493,43.436,8.493L43.436,8.493z M43.475,11.058
		c1.881,0,3.662,1.521,3.662,3.969c0,2.396-1.773,3.959-3.672,3.959c-2.081,0-3.728-1.668-3.728-3.979
		C39.737,12.748,41.36,11.058,43.475,11.058L43.475,11.058z"/>
	<path display="inline" fill="#231F20" d="M57.434,8.5c-3.51,0-6.267,3.072-6.267,6.523c0,3.931,3.196,6.533,6.208,6.533
		c1.857,0,2.85-0.736,3.579-1.584v1.285c0,2.252-1.368,3.6-3.433,3.6c-1.992,0-2.994-1.481-3.342-2.321l-2.509,1.049
		c0.89,1.883,2.683,3.847,5.87,3.847c3.488,0,6.148-2.197,6.148-6.808V8.731h-2.737V10C60.111,9.091,58.96,8.501,57.434,8.5
		L57.434,8.5z M57.688,11.058c1.722,0,3.487,1.469,3.487,3.977c0,2.551-1.762,3.955-3.524,3.955c-1.871,0-3.61-1.516-3.61-3.932
		C54.039,12.554,55.848,11.058,57.688,11.058L57.688,11.058z"/>
	<path display="inline" fill="#231F20" d="M75.618,8.486c-3.312,0-6.091,2.632-6.091,6.518c0,4.111,3.099,6.551,6.406,6.551
		c2.762,0,4.455-1.512,5.469-2.863l-2.258-1.502c-0.586,0.908-1.563,1.797-3.197,1.797c-1.834,0-2.68-1.004-3.199-1.977l8.752-3.633
		l-0.456-1.065C80.201,10.226,78.229,8.486,75.618,8.486L75.618,8.486z M75.73,10.996c1.191,0,2.052,0.633,2.416,1.396l-5.846,2.443
		C72.05,12.943,73.843,10.996,75.73,10.996L75.73,10.996z"/>
	<rect x="65.52" y="1.925" display="inline" fill="#231F20" width="2.679" height="19.243"/>
</g>
<g>
	<g>
		<path fill="#4285F4" d="M11.449,21.721c-6.721,0-10.881-5.544-10.881-10.681c0-5.761,4.916-10.629,10.734-10.629
			c4.701,0,7.281,2.812,7.389,2.932l0.312,0.347l-2.627,2.717l-0.36-0.385c-0.017-0.019-1.752-1.839-4.615-1.839
			c-3.814,0-6.802,3.035-6.802,6.909c0,3.848,2.984,6.859,6.793,6.859c2.485,0,5.469-1.2,6.031-4.531h-6.622V9.656h10.287
			l0.095,0.378c0.007,0.03,0.184,0.744,0.183,1.955C21.366,17.719,17.288,21.721,11.449,21.721z"/>
		<path fill="#FFFFFF" d="M11.302,0.911c4.532,0,7.017,2.766,7.017,2.766l-1.938,2.004c0,0-1.847-1.999-4.981-1.999
			c-4.063,0-7.302,3.222-7.302,7.409c0,4.298,3.397,7.359,7.293,7.359c3.044,0,6.27-1.654,6.597-5.531H11.3v-2.764h9.397
			c0,0,0.169,0.67,0.168,1.832c0,5.508-3.979,9.232-9.417,9.232c-6.181,0-10.381-5.025-10.381-10.181
			C1.068,5.781,5.532,0.911,11.302,0.911 M11.302-0.089c-6.09,0-11.234,5.096-11.234,11.129c0,5.377,4.352,11.181,11.381,11.181
			c6.036,0,10.417-4.304,10.417-10.231c0.001-1.25-0.178-1.996-0.198-2.077l-0.19-0.755h-0.779h-9.397h-1v1v2.764v1h1h5.495
			c-0.75,2.583-3.275,3.531-5.404,3.531c-3.529,0-6.293-2.793-6.293-6.359c0-3.594,2.768-6.409,6.302-6.409
			c2.629,0,4.186,1.613,4.25,1.681l0.719,0.76l0.731-0.748l1.938-2.004l0.647-0.67L19.064,3.01
			C18.95,2.882,16.223-0.089,11.302-0.089L11.302-0.089z"/>
	</g>
	<g>
		<path fill="#EA4335" d="M28.696,21.707c-4.052,0-7.107-3.044-7.107-7.08c0-3.911,3.102-6.974,7.063-6.974
			c1.759,0,3.504,0.648,4.786,1.779c1.034,0.911,2.266,2.565,2.265,5.271C35.702,18.631,32.625,21.707,28.696,21.707z
			 M28.692,11.219c-1.845,0-3.236,1.482-3.236,3.448c0,1.983,1.387,3.479,3.227,3.479c1.558,0,3.17-1.295,3.17-3.459
			C31.853,12.435,30.224,11.219,28.692,11.219z"/>
		<path fill="#FFFFFF" d="M28.651,8.153c3.146,0,6.553,2.228,6.551,6.55c0,3.771-2.93,6.504-6.506,6.504
			c-3.95,0-6.607-3.045-6.607-6.58C22.089,11.143,24.83,8.153,28.651,8.153 M28.683,18.646c1.897,0,3.67-1.564,3.67-3.959
			c0-2.448-1.781-3.97-3.66-3.97c-2.113,0-3.736,1.688-3.736,3.948C24.956,16.979,26.601,18.646,28.683,18.646 M28.651,7.153
			c-4.241,0-7.563,3.283-7.563,7.474c0,4.321,3.271,7.58,7.607,7.58c4.209,0,7.506-3.296,7.506-7.504
			c0.001-2.892-1.323-4.667-2.434-5.646C32.396,7.847,30.531,7.153,28.651,7.153L28.651,7.153z M28.683,17.646
			c-1.58,0-2.727-1.254-2.727-2.979c0-1.681,1.176-2.948,2.736-2.948c1.29,0,2.66,1.041,2.66,2.969
			C31.353,16.54,29.995,17.646,28.683,17.646L28.683,17.646z"/>
	</g>
	<g>
		<path fill="#FBBC05" d="M42.891,21.707c-4.053,0-7.107-3.044-7.107-7.08c0-3.911,3.102-6.974,7.063-6.974
			c3.418,0,7.049,2.471,7.049,7.05C49.895,18.631,46.816,21.707,42.891,21.707z M42.884,11.219c-1.846,0-3.238,1.482-3.238,3.448
			c0,1.983,1.388,3.479,3.229,3.479c1.559,0,3.17-1.295,3.17-3.459C46.044,12.435,44.416,11.219,42.884,11.219z"/>
		<path fill="#FFFFFF" d="M42.846,8.153c3.143,0,6.549,2.228,6.549,6.55c0,3.771-2.93,6.504-6.504,6.504
			c-3.95,0-6.607-3.045-6.607-6.58C36.282,11.143,39.022,8.153,42.846,8.153 M42.874,18.646c1.896,0,3.67-1.564,3.67-3.959
			c0-2.448-1.78-3.97-3.66-3.97c-2.113,0-3.738,1.688-3.738,3.948C39.146,16.979,40.792,18.646,42.874,18.646 M42.846,7.153
			c-4.242,0-7.563,3.283-7.563,7.474c0,4.321,3.271,7.58,7.606,7.58c4.209,0,7.504-3.296,7.504-7.504
			C50.395,9.799,46.504,7.153,42.846,7.153L42.846,7.153z M42.874,17.646c-1.581,0-2.729-1.254-2.729-2.979
			c0-1.681,1.177-2.948,2.738-2.948c1.29,0,2.66,1.041,2.66,2.969C45.544,16.54,44.188,17.646,42.874,17.646L42.874,17.646z"/>
	</g>
	<g>
		<path fill="#4285F4" d="M56.951,27.59c-3.801,0-5.592-2.589-6.322-4.132l-0.225-0.474l3.455-1.444l0.19,0.464
			c0.195,0.473,0.981,2.014,2.882,2.014c1.836,0,2.932-1.158,2.932-3.1v-0.123c-0.689,0.514-1.649,0.922-3.079,0.922
			c-3.239,0-6.708-2.826-6.708-7.033c0-3.807,3.099-7.022,6.767-7.022c1.147,0.001,2.158,0.304,3.021,0.902V7.891H63.6v12.393
			C63.6,24.79,61.052,27.59,56.951,27.59z M57.098,11.219c-0.797,0-1.584,0.333-2.16,0.913c-0.451,0.455-0.988,1.272-0.987,2.587
			c0,2.229,1.603,3.432,3.11,3.432c1.502,0,3.023-1.187,3.023-3.453C60.084,12.52,58.564,11.219,57.098,11.219z"/>
		<path fill="#FFFFFF" d="M56.843,8.16c1.526,0.001,2.679,0.592,3.521,1.499V8.391H63.1v11.893c0,4.608-2.658,6.807-6.147,6.807
			c-3.188,0-4.979-1.963-5.87-3.846l2.508-1.05c0.348,0.841,1.35,2.322,3.344,2.322c2.063,0,3.432-1.348,3.432-3.6v-1.285
			c-0.729,0.848-1.721,1.584-3.579,1.584c-3.013,0-6.208-2.604-6.208-6.533C50.576,11.233,53.333,8.16,56.843,8.16 M57.061,18.65
			c1.764,0,3.523-1.404,3.523-3.955c0-2.507-1.768-3.978-3.486-3.978c-1.842,0-3.648,1.496-3.647,4
			C53.449,17.135,55.188,18.65,57.061,18.65 M56.844,7.16L56.844,7.16c-3.939,0-7.268,3.445-7.268,7.523
			c0,2.976,1.625,5.306,3.73,6.545l-0.104,0.043l-2.509,1.049l-0.965,0.404l0.446,0.946c0.781,1.649,2.699,4.418,6.774,4.418
			c4.408,0,7.146-2.991,7.146-7.807V8.391v-1h-1h-2.736h-1v0.313C58.602,7.346,57.753,7.161,56.844,7.16L56.844,7.16z M57.061,17.65
			c-1.267,0-2.61-1.027-2.61-2.933c0-1.145,0.458-1.847,0.843-2.234c0.482-0.487,1.141-0.766,1.805-0.766
			c1.207,0,2.487,1.043,2.487,2.978C59.584,16.636,58.314,17.65,57.061,17.65L57.061,17.65z M56.784,22.217
			c1.032,0,1.85-0.205,2.5-0.505c-0.248,1.158-1.074,1.806-2.353,1.806c-1.591,0-2.254-1.305-2.42-1.705l-0.006-0.014
			C55.25,22.072,56.023,22.217,56.784,22.217L56.784,22.217z"/>
	</g>
	<g>
		<path fill="#EA4335" d="M75.343,21.715c-3.348,0-6.905-2.472-6.905-7.052c0-4,2.832-7.017,6.59-7.017
			c2.562,0,4.873,1.624,5.891,4.137l0.65,1.521l-8.685,3.606c0.457,0.667,1.154,1.236,2.474,1.236c1.172,0,2.106-0.527,2.779-1.568
			l0.273-0.426l3.117,2.076l-0.315,0.422C79.689,20.686,77.716,21.715,75.343,21.715z M75.143,11.155
			c-0.772,0-1.59,0.406-2.185,1.085c-0.397,0.456-0.651,0.978-0.737,1.499l4.581-1.915C76.457,11.456,75.904,11.155,75.143,11.155z"
			/>
		<path fill="#FFFFFF" d="M75.025,8.146c2.613,0,4.584,1.74,5.428,3.824l0.456,1.065l-8.752,3.634
			c0.52,0.974,1.364,1.978,3.198,1.978c1.636,0,2.613-0.89,3.199-1.797l2.256,1.502c-1.012,1.352-2.707,2.862-5.469,2.862
			c-3.308,0-6.406-2.438-6.406-6.552C68.938,10.778,71.716,8.146,75.025,8.146 M71.711,14.494l5.848-2.443
			c-0.365-0.762-1.226-1.396-2.416-1.396C73.251,10.655,71.458,12.604,71.711,14.494 M75.025,7.146c-4.041,0-7.09,3.231-7.09,7.517
			c0,4.905,3.815,7.552,7.406,7.552c2.539,0,4.648-1.099,6.27-3.264l0.634-0.848l-0.88-0.584l-2.256-1.502l-0.844-0.563
			l-0.551,0.853c-0.582,0.9-1.354,1.34-2.359,1.34c-0.758,0-1.269-0.219-1.64-0.541l7.576-3.146l0.935-0.387l-0.398-0.93
			l-0.456-1.065C80.287,8.893,77.793,7.146,75.025,7.146L75.025,7.146z M73.145,12.812c0.059-0.082,0.121-0.163,0.189-0.242
			c0.502-0.573,1.178-0.915,1.809-0.915c0.215,0,0.407,0.029,0.578,0.08L73.145,12.812L73.145,12.812z"/>
	</g>
	<g>
		<rect x="64.43" y="1.086" fill="#34A853" width="3.678" height="20.242"/>
		<path fill="#FFFFFF" d="M67.605,1.586v19.242h-2.678V1.586H67.605 M68.605,0.586h-1h-2.678h-1v1v19.242v1h1h2.678h1v-1V1.586
			V0.586L68.605,0.586z"/>
	</g>
</g>
</svg>
