<?xml version="1.0" encoding="utf-8"?>
<!-- Generator: Adobe Illustrator 15.1.0, SVG Export Plug-In . SVG Version: 6.00 Build 0)  -->
<!DOCTYPE svg PUBLIC "-//W3C//DTD SVG 1.1//EN" "http://www.w3.org/Graphics/SVG/1.1/DTD/svg11.dtd">
<svg version="1.1" id="Layer_1" xmlns="http://www.w3.org/2000/svg" xmlns:xlink="http://www.w3.org/1999/xlink" x="0px" y="0px"
	 width="120px" height="74.333px" viewBox="0 0.833 120 74.333" enable-background="new 0 0.833 120 74.333" xml:space="preserve">
<path fill="#E6E6E6" d="M38.804,10.09c0.781-0.779,1.432-1.902,2.372-2.253c1.195-0.445,2.623-0.261,3.95-0.349
	c-0.096,1.32,0.269,2.95-0.372,3.905c-2.046,3.045-4.67,5.702-6.704,8.755c-9.608,14.438-8.116,33.147,3.46,46.004
	c1.53,1.697,4.532,3.578,1.958,6.092c-2.688,2.626-4.335-0.63-5.852-2.248c-14.751-15.762-15.008-40.942-0.665-57.594
	c0.641-0.746,1.312-1.466,1.966-2.197C38.88,10.166,38.842,10.128,38.804,10.09z"/>
<path fill="#E6E6E6" d="M43.737,21.171c1.077-1.076,1.517-1.873,2.139-2.061c1.258-0.379,2.616-0.428,3.934-0.614
	c-0.054,1.424,0.342,3.086-0.26,4.217c-0.959,1.804-2.759,3.14-3.893,4.875c-5.819,8.902-5.146,19.285,1.742,28.53
	c0.292,0.393,0.856,0.719,0.916,1.129c0.216,1.505,0.949,3.612,0.249,4.431c-1.607,1.87-3.339,0.475-4.556-1.066
	c-3.953-5.002-6.844-10.514-7.477-16.961C35.667,34.834,38.384,27.176,43.737,21.171z"/>
<path fill="#E6E6E6" d="M51.638,28.944c0.605,0.003,2.363-0.48,3.261,0.189c0.646,0.484,0.722,2.979,0.07,3.757
	c-4.063,4.867-4.464,9.51-0.301,14.555c0.639,0.774,0.005,2.594-0.04,3.931c-1.391-0.276-3.224-0.078-4.106-0.901
	C44.783,45.126,45.036,35.309,51.638,28.944z"/>
<path fill="#E6E6E6" d="M86.133,10.205c0.654,0.731,1.325,1.451,1.967,2.197c14.342,16.651,14.086,41.833-0.666,57.594
	c-1.517,1.618-3.162,4.874-5.852,2.248c-2.574-2.514,0.428-4.395,1.958-6.092C95.115,53.295,96.607,34.585,87,20.148
	c-2.034-3.053-4.658-5.709-6.704-8.755c-0.641-0.955-0.274-2.584-0.372-3.905c1.327,0.088,2.755-0.096,3.95,0.349
	c0.938,0.351,1.591,1.474,2.372,2.253C86.208,10.128,86.17,10.166,86.133,10.205z"/>
<path fill="#E6E6E6" d="M88.521,43.649c-0.636,6.447-3.524,11.96-7.479,16.962c-1.217,1.541-2.948,2.938-4.556,1.065
	c-0.7-0.817,0.031-2.926,0.248-4.431c0.06-0.41,0.623-0.736,0.914-1.129c6.888-9.245,7.563-19.628,1.742-28.53
	c-1.134-1.736-2.934-3.071-3.894-4.875c-0.603-1.131-0.206-2.793-0.26-4.217c1.316,0.186,2.676,0.234,3.935,0.614
	c0.622,0.188,1.063,0.985,2.139,2.061C86.666,27.176,89.384,34.834,88.521,43.649z"/>
<path fill="#E6E6E6" d="M74.527,50.477c-0.883,0.822-2.715,0.625-4.105,0.9c-0.046-1.337-0.679-3.156-0.04-3.931
	c4.163-5.044,3.765-9.688-0.301-14.555c-0.649-0.779-0.576-3.273,0.071-3.757c0.896-0.669,2.654-0.186,3.26-0.189
	C80.016,35.309,80.268,45.126,74.527,50.477z"/>
<path fill="#00D18F" d="M36.804,8.09c0.781-0.779,1.432-1.902,2.372-2.253c1.195-0.445,2.623-0.261,3.95-0.349
	c-0.096,1.32,0.269,2.95-0.372,3.905c-2.046,3.045-4.67,5.702-6.704,8.755c-9.608,14.438-8.116,33.147,3.46,46.004
	c1.53,1.697,4.532,3.578,1.958,6.092c-2.688,2.626-4.335-0.63-5.852-2.248c-14.751-15.762-15.008-40.942-0.665-57.594
	c0.641-0.746,1.312-1.466,1.966-2.197C36.88,8.166,36.842,8.128,36.804,8.09z"/>
<path fill="#00D18F" d="M41.737,19.171c1.077-1.076,1.517-1.873,2.139-2.061c1.258-0.379,2.616-0.428,3.934-0.614
	c-0.054,1.424,0.342,3.086-0.26,4.217c-0.959,1.804-2.759,3.14-3.893,4.875c-5.819,8.902-5.146,19.285,1.742,28.53
	c0.292,0.393,0.856,0.719,0.916,1.129c0.216,1.505,0.949,3.612,0.249,4.431c-1.607,1.87-3.339,0.475-4.556-1.066
	c-3.953-5.002-6.844-10.514-7.477-16.961C33.667,32.834,36.384,25.176,41.737,19.171z"/>
<path fill="#00D18F" d="M49.638,26.944c0.605,0.003,2.363-0.48,3.26,0.189c0.647,0.484,0.722,2.979,0.071,3.757
	c-4.063,4.867-4.464,9.51-0.301,14.555c0.638,0.774,0.005,2.594-0.04,3.931c-1.391-0.276-3.224-0.078-4.106-0.901
	C42.783,43.126,43.036,33.309,49.638,26.944z"/>
<path fill="#00D18F" d="M84.133,8.205c0.654,0.731,1.325,1.451,1.967,2.197c14.342,16.651,14.086,41.833-0.666,57.594
	c-1.517,1.618-3.162,4.874-5.852,2.248c-2.574-2.514,0.428-4.395,1.958-6.092C93.115,51.295,94.607,32.585,85,18.148
	c-2.034-3.053-4.658-5.709-6.704-8.755c-0.641-0.955-0.274-2.584-0.372-3.905c1.327,0.088,2.755-0.096,3.95,0.349
	c0.938,0.351,1.591,1.474,2.372,2.253C84.208,8.128,84.17,8.166,84.133,8.205z"/>
<path fill="#00D18F" d="M86.521,41.649c-0.636,6.447-3.524,11.96-7.479,16.962c-1.217,1.541-2.948,2.938-4.556,1.065
	c-0.7-0.817,0.031-2.926,0.248-4.431c0.06-0.41,0.623-0.736,0.914-1.129c6.888-9.245,7.563-19.628,1.742-28.53
	c-1.134-1.736-2.934-3.071-3.894-4.875c-0.603-1.131-0.206-2.793-0.26-4.217c1.316,0.186,2.676,0.234,3.935,0.614
	c0.622,0.188,1.063,0.985,2.139,2.061C84.666,25.176,87.384,32.834,86.521,41.649z"/>
<path fill="#00D18F" d="M72.527,48.476c-0.883,0.823-2.715,0.625-4.105,0.901c-0.046-1.337-0.679-3.157-0.04-3.931
	c4.163-5.044,3.765-9.688-0.301-14.555c-0.649-0.779-0.576-3.273,0.071-3.757c0.896-0.669,2.654-0.186,3.26-0.189
	C78.016,33.309,78.268,43.126,72.527,48.476z"/>
</svg>
