<?xml version="1.0" encoding="utf-8"?>
<!-- Generator: Adobe Illustrator 15.1.0, SVG Export Plug-In . SVG Version: 6.00 Build 0)  -->
<!DOCTYPE svg PUBLIC "-//W3C//DTD SVG 1.1//EN" "http://www.w3.org/Graphics/SVG/1.1/DTD/svg11.dtd">
<svg version="1.1" id="Layer_1" xmlns="http://www.w3.org/2000/svg" xmlns:xlink="http://www.w3.org/1999/xlink" x="0px" y="0px"
	 width="120px" height="38.084px" viewBox="0 0 120 38.084" enable-background="new 0 0 120 38.084" xml:space="preserve">
<g>
	<path fill="#007545" d="M3.581,17.479c0-0.123,0.005-0.244,0.015-0.36C3.609,17,3.619,16.889,3.63,16.788c0-0.785,0-1.513,0-2.169
		c0-0.661,0-1.278,0-1.854c0-0.574,0-1.107,0-1.616c0-0.502,0-0.984,0-1.461c0-0.472,0.002-0.935,0.006-1.39
		C3.638,7.845,3.64,7.38,3.64,6.905C3.612,6.827,3.584,6.717,3.558,6.576C3.534,6.433,3.521,6.302,3.521,6.179
		c0-0.119,0.019-0.238,0.054-0.354c0.037-0.118,0.094-0.229,0.171-0.317c0.075-0.094,0.17-0.169,0.284-0.226
		c0.112-0.059,0.243-0.087,0.388-0.087c0.238,0,0.479,0.018,0.722,0.046c0.243,0.023,0.517,0.041,0.821,0.041
		c0.253,0,0.508-0.016,0.763-0.038c0.253-0.022,0.524-0.04,0.813-0.049c0.854,0,1.625,0.087,2.317,0.257
		c0.693,0.169,1.282,0.432,1.771,0.788c0.489,0.354,0.865,0.81,1.131,1.356c0.265,0.551,0.396,1.207,0.396,1.971
		c0,0.726-0.101,1.363-0.3,1.929c-0.2,0.563-0.458,1.053-0.772,1.471c-0.313,0.419-0.662,0.771-1.05,1.051
		c-0.387,0.275-0.764,0.488-1.131,0.639c0.051,0.306,0.132,0.593,0.242,0.859c0.109,0.27,0.252,0.506,0.424,0.707
		c0.171,0.2,0.374,0.361,0.606,0.479c0.229,0.114,0.49,0.179,0.778,0.179c0.215,0,0.411-0.029,0.588-0.104
		c0.179-0.064,0.333-0.197,0.462-0.396c0.079-0.109,0.176-0.212,0.288-0.3c0.113-0.088,0.258-0.134,0.432-0.134
		c0.306,0,0.542,0.088,0.712,0.257c0.169,0.169,0.253,0.384,0.253,0.646c0,0.239-0.068,0.477-0.207,0.691
		c-0.138,0.223-0.333,0.415-0.584,0.58c-0.251,0.168-0.556,0.3-0.911,0.396c-0.354,0.102-0.75,0.146-1.185,0.146
		c-0.403,0-0.765-0.06-1.09-0.174c-0.324-0.116-0.614-0.271-0.872-0.468c-0.257-0.192-0.484-0.418-0.681-0.67
		c-0.199-0.25-0.367-0.516-0.509-0.789c-0.143-0.271-0.257-0.545-0.348-0.813c-0.09-0.271-0.162-0.522-0.211-0.763
		c-0.068,0-0.159,0-0.271,0c-0.114,0-0.23,0-0.349,0c-0.118,0-0.235-0.004-0.352-0.006c-0.115-0.004-0.209-0.004-0.283-0.004
		c-0.163-0.006-0.365-0.013-0.605-0.015c-0.24-0.003-0.459-0.005-0.657-0.005v1.236c0.012,0.267,0.045,0.522,0.104,0.774
		c0.056,0.253,0.084,0.511,0.084,0.772c0,0.164-0.033,0.301-0.098,0.414c-0.066,0.111-0.148,0.207-0.25,0.281
		c-0.102,0.076-0.212,0.133-0.33,0.164c-0.12,0.035-0.233,0.055-0.339,0.055c-0.171,0-0.326-0.029-0.467-0.09
		c-0.14-0.063-0.262-0.145-0.364-0.246c-0.102-0.101-0.183-0.229-0.241-0.369C3.61,17.813,3.581,17.654,3.581,17.479z M5.564,13.143
		c0.146,0.006,0.317,0.016,0.517,0.021c0.196,0.006,0.387,0.012,0.566,0.021c0.181,0.006,0.342,0.01,0.483,0.015
		c0.141,0,0.229,0.002,0.271,0.002c0.762,0,1.387-0.104,1.876-0.313c0.488-0.209,0.871-0.486,1.148-0.83
		c0.277-0.346,0.466-0.74,0.573-1.188c0.103-0.445,0.154-0.902,0.154-1.371c0-0.413-0.063-0.762-0.193-1.049
		c-0.129-0.283-0.303-0.521-0.517-0.706c-0.215-0.189-0.458-0.335-0.729-0.44S9.166,7.118,8.887,7.067
		c-0.281-0.05-0.554-0.082-0.822-0.093C7.797,6.963,7.561,6.957,7.357,6.957c-0.289,0-0.582,0.004-0.877,0.012
		C6.184,6.979,5.864,6.985,5.519,6.99c-0.012,0.219-0.02,0.409-0.022,0.588C5.495,7.753,5.491,7.925,5.49,8.09
		C5.488,8.258,5.484,8.427,5.484,8.601c0,0.174,0,0.364,0,0.578c0,0.389,0.003,0.742,0.006,1.071
		c0.001,0.332,0.007,0.649,0.013,0.967c0.005,0.313,0.012,0.631,0.021,0.942C5.533,12.468,5.545,12.798,5.564,13.143z M9.536,14.77
		c-0.004,0-0.008,0.002-0.008,0.013L9.536,14.77z"/>
	<path fill="#007545" d="M17.475,17.742c0-0.288,0.021-0.572,0.063-0.854c0.043-0.279,0.064-0.578,0.064-0.896
		c0-1.438-0.013-2.892-0.039-4.348c-0.025-1.455-0.037-2.951-0.037-4.486c0-0.158-0.018-0.317-0.051-0.479
		c-0.034-0.16-0.051-0.334-0.051-0.521c0-0.146,0.02-0.285,0.06-0.415c0.038-0.13,0.107-0.244,0.204-0.345
		c0.096-0.1,0.228-0.176,0.398-0.231c0.169-0.056,0.38-0.085,0.637-0.085c0.253,0,0.453,0.098,0.601,0.288
		c0.146,0.19,0.22,0.448,0.22,0.771c0,0.099-0.01,0.189-0.025,0.283c-0.019,0.094-0.034,0.189-0.052,0.291
		c-0.01,0.486-0.019,1.01-0.026,1.568c-0.005,0.559-0.007,1.199-0.007,1.923c0,0.644,0.002,1.302,0.007,1.975
		c0.007,0.674,0.016,1.317,0.026,1.938c0.012,0.621,0.027,1.202,0.047,1.739c0.021,0.541,0.043,1.006,0.072,1.396v-0.01
		c0.012,0.085,0.021,0.165,0.03,0.242c0.009,0.074,0.013,0.152,0.013,0.23c0,0.137-0.017,0.262-0.047,0.377
		c-0.031,0.113-0.084,0.217-0.156,0.301c-0.075,0.086-0.176,0.147-0.305,0.192c-0.131,0.05-0.292,0.067-0.483,0.067
		c-0.226,0-0.414-0.021-0.563-0.063c-0.149-0.038-0.268-0.099-0.356-0.179c-0.088-0.079-0.151-0.176-0.187-0.292
		C17.493,18.021,17.475,17.889,17.475,17.742z"/>
	<path fill="#007545" d="M23.607,17.877c0-0.234,0.018-0.438,0.051-0.602c0.034-0.162,0.054-0.239,0.059-0.229
		c0.011-0.613,0.021-1.238,0.03-1.872c0.009-0.632,0.012-1.303,0.012-2.008c0-0.444,0-0.933,0-1.453c0-0.521-0.003-1.05-0.012-1.584
		c-0.008-0.533-0.021-1.059-0.038-1.574c-0.017-0.518-0.04-0.996-0.068-1.438c-0.022-0.13-0.039-0.246-0.051-0.352
		c-0.012-0.104-0.017-0.22-0.017-0.336c0-0.274,0.059-0.494,0.177-0.656c0.12-0.16,0.311-0.271,0.577-0.334
		c0.113-0.096,0.238-0.161,0.377-0.199c0.138-0.036,0.271-0.055,0.401-0.055c0.137,0,0.258,0.039,0.369,0.119
		c0.111,0.075,0.207,0.172,0.293,0.275c0.084,0.104,0.155,0.223,0.212,0.335c0.056,0.115,0.095,0.21,0.119,0.284
		c0.175,0.259,0.385,0.556,0.63,0.889c0.245,0.335,0.514,0.69,0.805,1.072c0.29,0.382,0.601,0.775,0.928,1.191
		c0.327,0.414,0.66,0.834,0.996,1.261c0.336,0.424,0.67,0.847,1.003,1.267c0.333,0.424,0.65,0.826,0.948,1.219
		c0.3,0.393,0.579,0.758,0.84,1.104c0.258,0.349,0.483,0.657,0.67,0.938c0-1.209-0.005-2.25-0.013-3.123
		c-0.009-0.874-0.019-1.616-0.03-2.229c-0.012-0.609-0.026-1.117-0.043-1.512c-0.017-0.396-0.031-0.728-0.042-0.982
		c-0.012-0.26-0.021-0.475-0.031-0.64c-0.007-0.167-0.013-0.327-0.013-0.479c0-0.228,0.025-0.412,0.073-0.557
		c0.049-0.145,0.116-0.256,0.204-0.334c0.088-0.079,0.196-0.135,0.326-0.162c0.13-0.025,0.279-0.042,0.45-0.042
		c0.22,0,0.391,0.046,0.516,0.138c0.125,0.09,0.217,0.203,0.283,0.342c0.065,0.142,0.105,0.295,0.12,0.47
		c0.013,0.172,0.02,0.34,0.02,0.504v9.717c0,0.203,0.013,0.408,0.035,0.613c0.022,0.206,0.034,0.426,0.034,0.655
		c0,0.223-0.018,0.4-0.051,0.545c-0.034,0.146-0.088,0.265-0.166,0.354c-0.075,0.09-0.175,0.152-0.297,0.188
		c-0.121,0.037-0.267,0.058-0.435,0.058c-0.318,0-0.57-0.079-0.76-0.237c-0.188-0.154-0.323-0.35-0.402-0.574
		c-0.536-0.73-1.08-1.457-1.63-2.176c-0.551-0.713-1.104-1.428-1.666-2.142c-0.558-0.716-1.121-1.437-1.685-2.161
		c-0.565-0.726-1.127-1.464-1.688-2.216l-0.509-0.795c0.006,0.861,0.01,1.634,0.017,2.308c0.006,0.677,0.012,1.273,0.018,1.809
		c0.004,0.524,0.011,0.992,0.017,1.396c0.006,0.399,0.009,0.771,0.013,1.085c0.003,0.32,0.005,0.605,0.008,0.872
		c0.002,0.267,0.004,0.521,0.004,0.771c0.007,0.146,0.015,0.305,0.029,0.471c0.015,0.168,0.021,0.33,0.021,0.486
		c0,0.146-0.013,0.289-0.038,0.426c-0.024,0.136-0.074,0.254-0.148,0.354c-0.072,0.104-0.176,0.184-0.309,0.241
		c-0.133,0.06-0.307,0.089-0.52,0.089c-0.29,0-0.533-0.068-0.729-0.211C23.707,18.313,23.607,18.12,23.607,17.877z"/>
	<path fill="#007545" d="M37.746,12.018c0-1.159,0.169-2.17,0.502-3.034c0.333-0.86,0.793-1.584,1.379-2.157
		c0.587-0.577,1.282-1.011,2.084-1.3c0.803-0.284,1.675-0.432,2.618-0.432c0.241,0,0.516,0.004,0.821,0.012
		c0.306,0.013,0.617,0.029,0.936,0.063c0.32,0.034,0.635,0.082,0.944,0.146c0.313,0.063,0.604,0.146,0.865,0.244
		c0.208,0.08,0.384,0.192,0.526,0.34c0.14,0.146,0.212,0.357,0.212,0.639c0,0.318-0.082,0.58-0.243,0.771
		c-0.16,0.195-0.349,0.293-0.564,0.293c-0.043,0-0.103-0.006-0.176-0.019c-0.074-0.011-0.135-0.03-0.187-0.06
		c-0.22-0.117-0.486-0.215-0.8-0.286c-0.314-0.075-0.638-0.136-0.97-0.181c-0.334-0.043-0.658-0.076-0.975-0.096
		c-0.315-0.017-0.586-0.021-0.813-0.021c-0.312,0-0.629,0.037-0.958,0.115c-0.328,0.072-0.646,0.191-0.961,0.355
		c-0.313,0.164-0.61,0.373-0.89,0.628c-0.279,0.254-0.524,0.558-0.734,0.906c-0.208,0.35-0.374,0.751-0.499,1.204
		c-0.124,0.453-0.187,0.968-0.187,1.527c0,0.66,0.078,1.246,0.233,1.755c0.156,0.51,0.369,0.95,0.639,1.325s0.591,0.69,0.958,0.948
		c0.368,0.257,0.763,0.465,1.188,0.623c0.427,0.156,0.873,0.271,1.336,0.338c0.463,0.066,0.925,0.104,1.388,0.104
		c0.205,0,0.434-0.004,0.691-0.013c0.258-0.01,0.514-0.034,0.766-0.082c0-0.553-0.001-1.021-0.003-1.414
		c-0.004-0.391-0.006-0.731-0.013-1.041c-0.006-0.306-0.011-0.584-0.021-0.841c-0.008-0.253-0.021-0.523-0.029-0.813
		c0-0.199-0.014-0.404-0.042-0.61s-0.042-0.431-0.042-0.665c0-0.085,0.017-0.176,0.055-0.273c0.038-0.101,0.096-0.189,0.177-0.277
		c0.083-0.09,0.192-0.161,0.327-0.223c0.136-0.061,0.305-0.092,0.508-0.092c0.333,0,0.592,0.078,0.775,0.234
		c0.183,0.152,0.277,0.363,0.277,0.631c0,0.109-0.003,0.225-0.01,0.326c-0.006,0.104-0.009,0.216-0.009,0.335
		c-0.004,0.181-0.012,0.397-0.02,0.653c-0.008,0.258-0.015,0.584-0.021,0.98c-0.007,0.396-0.013,0.882-0.018,1.449
		c-0.005,0.564-0.008,1.246-0.008,2.037c-0.005,0.318-0.049,0.57-0.126,0.754c-0.081,0.183-0.188,0.313-0.323,0.4
		c-0.134,0.088-0.292,0.142-0.47,0.154c-0.178,0.02-0.361,0.025-0.554,0.025c-0.164,0-0.336,0.008-0.517,0.022
		c-0.181,0.019-0.364,0.035-0.551,0.062c-0.188,0.021-0.369,0.044-0.546,0.062c-0.178,0.019-0.346,0.023-0.504,0.023
		c-1.203,0-2.266-0.181-3.189-0.532c-0.924-0.354-1.699-0.836-2.326-1.438c-0.628-0.604-1.101-1.299-1.424-2.095
		C37.908,13.732,37.746,12.896,37.746,12.018z"/>
	<path fill="#007545" d="M58.171,12.018c0-0.813,0.089-1.551,0.267-2.209c0.18-0.658,0.424-1.242,0.734-1.757
		c0.31-0.515,0.676-0.958,1.092-1.331c0.417-0.371,0.871-0.68,1.355-0.923c0.482-0.243,0.988-0.423,1.52-0.538
		c0.527-0.115,1.055-0.174,1.58-0.174c0.48,0,0.951,0.044,1.414,0.132c0.465,0.089,0.922,0.21,1.371,0.368
		c0.139,0.051,0.271,0.102,0.41,0.148c0.141,0.048,0.266,0.105,0.375,0.183c0.105,0.072,0.195,0.165,0.268,0.278
		c0.066,0.113,0.104,0.258,0.104,0.433c0,0.203-0.033,0.371-0.101,0.505c-0.063,0.133-0.146,0.237-0.25,0.317
		c-0.104,0.077-0.213,0.135-0.334,0.169c-0.123,0.033-0.237,0.051-0.354,0.051c-0.078,0-0.164-0.012-0.252-0.038
		c-0.097-0.024-0.188-0.058-0.279-0.098c-0.098-0.039-0.188-0.087-0.28-0.14c-0.09-0.058-0.17-0.106-0.246-0.155
		c-0.199-0.087-0.394-0.149-0.568-0.191c-0.182-0.043-0.352-0.073-0.514-0.094C65.316,6.933,65.158,6.922,65,6.92
		c-0.156-0.004-0.314-0.004-0.477-0.004c-0.354,0-0.711,0.04-1.066,0.122c-0.354,0.082-0.695,0.209-1.025,0.381
		s-0.643,0.389-0.93,0.648c-0.285,0.259-0.537,0.567-0.75,0.928c-0.211,0.357-0.379,0.766-0.5,1.223
		c-0.119,0.459-0.182,0.971-0.182,1.534c0,0.938,0.133,1.729,0.402,2.377c0.271,0.646,0.619,1.17,1.051,1.571
		c0.436,0.399,0.918,0.688,1.461,0.866c0.543,0.181,1.094,0.269,1.646,0.269c0.254,0,0.506-0.017,0.75-0.046
		c0.246-0.031,0.476-0.068,0.688-0.119c0.209-0.048,0.396-0.104,0.563-0.161c0.164-0.058,0.289-0.118,0.375-0.182
		c0.17-0.146,0.316-0.259,0.447-0.334c0.131-0.076,0.277-0.115,0.447-0.115c0.129,0,0.252,0.015,0.369,0.042
		c0.112,0.028,0.215,0.078,0.299,0.148c0.088,0.07,0.152,0.162,0.205,0.271c0.051,0.113,0.076,0.258,0.076,0.428
		c0,0.233-0.082,0.453-0.24,0.646c-0.162,0.192-0.422,0.378-0.775,0.547v-0.01c-0.115,0.063-0.293,0.146-0.521,0.229
		c-0.229,0.086-0.479,0.16-0.77,0.231c-0.285,0.067-0.588,0.13-0.9,0.177c-0.313,0.051-0.629,0.072-0.936,0.072
		c-0.691,0-1.334-0.083-1.928-0.249c-0.592-0.167-1.127-0.396-1.607-0.693c-0.48-0.299-0.91-0.651-1.283-1.063
		c-0.373-0.411-0.689-0.863-0.94-1.354c-0.252-0.489-0.446-1.015-0.577-1.569C58.238,13.174,58.171,12.604,58.171,12.018z"/>
	<path fill="#007545" d="M71.59,17.479c0-0.164,0.023-0.321,0.072-0.482s0.068-0.332,0.068-0.516L71.605,6.366
		c0.006-0.432,0.08-0.747,0.227-0.954c0.146-0.206,0.393-0.31,0.742-0.31c0.189,0,0.354,0.018,0.48,0.049
		c0.131,0.035,0.229,0.097,0.313,0.181c0.072,0.085,0.135,0.192,0.166,0.33c0.025,0.136,0.047,0.305,0.047,0.508v1.27
		c0,0.353-0.002,0.771-0.006,1.25c-0.002,0.482-0.01,0.998-0.01,1.55c0,0.548,0,1.11,0,1.693c0,0.586,0,1.154,0,1.711
		c0,0.562,0,1.084,0,1.58c0,0.498,0.01,0.938,0.016,1.31c0.654,0,1.217-0.001,1.672-0.009c0.455-0.002,0.83-0.01,1.123-0.021
		c0.158-0.012,0.313-0.03,0.475-0.055c0.158-0.025,0.33-0.038,0.51-0.038c0.373,0,0.656,0.084,0.853,0.253
		c0.195,0.17,0.293,0.42,0.293,0.746c0,0.221-0.043,0.397-0.127,0.53c-0.086,0.132-0.192,0.231-0.334,0.305
		c-0.142,0.07-0.295,0.117-0.467,0.139c-0.173,0.023-0.349,0.035-0.521,0.035h-4.5c-0.142,0-0.271-0.014-0.39-0.038
		s-0.226-0.071-0.31-0.14c-0.084-0.069-0.147-0.162-0.194-0.284C71.617,17.837,71.59,17.677,71.59,17.479z"/>
	<path fill="#007545" d="M80.445,11.87c0-1.004,0.145-1.922,0.426-2.752c0.287-0.83,0.689-1.545,1.211-2.145
		c0.523-0.602,1.152-1.063,1.893-1.396c0.736-0.331,1.56-0.496,2.453-0.496c0.947,0,1.783,0.165,2.512,0.496
		c0.73,0.33,1.336,0.795,1.83,1.396c0.494,0.6,0.867,1.313,1.125,2.145c0.252,0.83,0.379,1.748,0.379,2.752
		c0,0.955-0.137,1.847-0.414,2.673c-0.271,0.829-0.672,1.547-1.188,2.156c-0.516,0.609-1.137,1.091-1.865,1.439
		c-0.729,0.354-1.545,0.524-2.449,0.524c-0.598,0-1.155-0.079-1.686-0.237c-0.525-0.156-1.006-0.384-1.443-0.677
		c-0.438-0.294-0.83-0.646-1.174-1.056c-0.346-0.409-0.637-0.864-0.877-1.368c-0.24-0.502-0.422-1.044-0.547-1.626
		C80.506,13.119,80.445,12.509,80.445,11.87z M82.375,11.87c0,0.426,0.041,0.844,0.119,1.259c0.074,0.416,0.191,0.811,0.352,1.188
		c0.154,0.375,0.348,0.727,0.576,1.041c0.229,0.319,0.49,0.601,0.787,0.83c0.297,0.234,0.629,0.42,0.992,0.556
		c0.359,0.133,0.758,0.196,1.182,0.196c0.445,0,0.854-0.063,1.221-0.196c0.365-0.136,0.695-0.316,0.99-0.556
		c0.293-0.229,0.549-0.511,0.766-0.83c0.222-0.314,0.398-0.666,0.543-1.041c0.146-0.377,0.252-0.771,0.322-1.188
		c0.07-0.415,0.105-0.833,0.105-1.259c0-0.678-0.078-1.319-0.236-1.928c-0.158-0.605-0.4-1.145-0.725-1.604
		c-0.326-0.461-0.736-0.83-1.23-1.1c-0.492-0.272-1.08-0.408-1.758-0.408c-0.639,0-1.207,0.121-1.703,0.364
		c-0.496,0.242-0.916,0.585-1.258,1.025c-0.34,0.438-0.605,0.969-0.777,1.588C82.465,10.427,82.375,11.114,82.375,11.87z"/>
	<path fill="#007545" d="M95.211,17.877c0-0.234,0.016-0.438,0.051-0.602c0.033-0.162,0.053-0.239,0.057-0.229
		c0.017-0.613,0.023-1.238,0.031-1.872c0.008-0.632,0.014-1.303,0.014-2.008c0-0.444,0-0.933,0-1.453
		c0-0.521-0.006-1.05-0.014-1.584c-0.008-0.533-0.02-1.059-0.037-1.574c-0.018-0.518-0.041-0.996-0.065-1.438
		c-0.021-0.13-0.039-0.246-0.056-0.352c-0.01-0.104-0.016-0.22-0.016-0.336c0-0.274,0.059-0.494,0.178-0.656
		c0.119-0.16,0.313-0.271,0.574-0.334c0.115-0.096,0.24-0.161,0.379-0.199c0.144-0.036,0.273-0.055,0.402-0.055
		c0.137,0,0.26,0.039,0.369,0.119c0.105,0.075,0.207,0.172,0.293,0.275c0.084,0.104,0.15,0.223,0.211,0.335
		c0.057,0.115,0.096,0.21,0.119,0.284c0.174,0.259,0.385,0.556,0.631,0.889c0.246,0.335,0.514,0.69,0.805,1.072
		c0.291,0.382,0.6,0.775,0.928,1.191c0.326,0.414,0.658,0.834,0.994,1.261c0.336,0.424,0.672,0.847,1.006,1.267
		c0.334,0.424,0.648,0.826,0.947,1.219c0.301,0.393,0.58,0.758,0.838,1.104c0.262,0.349,0.482,0.657,0.67,0.938
		c0-1.209-0.002-2.25-0.012-3.123c-0.01-0.874-0.021-1.616-0.029-2.229c-0.008-0.614-0.022-1.117-0.045-1.512
		c-0.016-0.396-0.029-0.728-0.041-0.982c-0.01-0.26-0.02-0.475-0.024-0.64c-0.013-0.167-0.017-0.327-0.017-0.479
		c0-0.228,0.023-0.412,0.072-0.557c0.047-0.145,0.113-0.256,0.201-0.334c0.088-0.079,0.193-0.135,0.328-0.162
		c0.129-0.025,0.275-0.042,0.443-0.042c0.225,0,0.396,0.046,0.521,0.138c0.123,0.09,0.219,0.203,0.283,0.342
		c0.063,0.142,0.104,0.295,0.114,0.47c0.019,0.172,0.021,0.34,0.021,0.504v9.717c0,0.203,0.013,0.408,0.031,0.613
		c0.021,0.206,0.032,0.426,0.032,0.655c0,0.223-0.018,0.4-0.049,0.545c-0.035,0.146-0.094,0.265-0.166,0.354
		c-0.076,0.09-0.18,0.152-0.301,0.188c-0.119,0.037-0.266,0.058-0.438,0.058c-0.313,0-0.566-0.079-0.762-0.237
		c-0.188-0.154-0.316-0.35-0.396-0.574c-0.537-0.73-1.08-1.457-1.631-2.176c-0.557-0.713-1.104-1.428-1.664-2.142
		c-0.563-0.716-1.121-1.437-1.688-2.161c-0.563-0.726-1.128-1.464-1.688-2.216l-0.514-0.795c0.012,0.861,0.018,1.634,0.021,2.308
		c0.006,0.677,0.016,1.273,0.021,1.809c0.008,0.524,0.013,0.992,0.019,1.396c0.008,0.399,0.012,0.771,0.017,1.085
		c0.002,0.32,0.004,0.605,0.008,0.872s0.006,0.521,0.006,0.771c0.008,0.146,0.02,0.305,0.029,0.471
		c0.018,0.168,0.021,0.33,0.021,0.486c0,0.146-0.02,0.289-0.039,0.426c-0.023,0.136-0.074,0.254-0.146,0.354
		c-0.072,0.104-0.179,0.184-0.312,0.241c-0.136,0.062-0.31,0.089-0.521,0.089c-0.287,0-0.528-0.068-0.729-0.211
		C95.305,18.313,95.211,18.12,95.211,17.877z"/>
	<path fill="#007545" d="M109.773,17.462c0-0.096,0.014-0.194,0.037-0.305c0.022-0.107,0.053-0.207,0.08-0.298l0.073-0.271
		l-0.19-10.131c0-0.277,0.026-0.492,0.098-0.645c0.064-0.152,0.148-0.27,0.25-0.338c0.104-0.074,0.223-0.117,0.354-0.129
		c0.133-0.015,0.271-0.02,0.4-0.02h4.467c0.102-0.016,0.217-0.023,0.344-0.047s0.217-0.029,0.271-0.029
		c0.213,0,0.389,0.021,0.52,0.063c0.133,0.039,0.238,0.098,0.314,0.174c0.072,0.076,0.127,0.172,0.148,0.283
		c0.021,0.11,0.037,0.246,0.037,0.396c0,0.216-0.021,0.39-0.08,0.521c-0.056,0.131-0.127,0.229-0.222,0.302
		c-0.098,0.069-0.2,0.114-0.325,0.14c-0.123,0.021-0.259,0.034-0.396,0.034c-0.063,0-0.146-0.001-0.246-0.005
		c-0.104-0.003-0.211-0.012-0.318-0.021c-0.553,0-0.99,0-1.326,0s-0.604,0.002-0.809,0.004c-0.197,0.002-0.354,0.004-0.457,0.004
		s-0.193,0-0.273,0h-0.787v2.688c0.033,0,0.074,0.001,0.123,0.005c0.05,0.003,0.123,0.004,0.228,0.004s0.24,0,0.42,0
		c0.181,0,0.416,0,0.718,0c0.301,0,0.67,0,1.106,0c0.438,0,0.978,0,1.604,0c0.063,0,0.131-0.003,0.211-0.009
		c0.078-0.005,0.158-0.016,0.233-0.023c0.104-0.014,0.226-0.021,0.354-0.035c0.139-0.012,0.283-0.018,0.44-0.018
		c0.152,0,0.289,0.031,0.408,0.094c0.115,0.063,0.219,0.144,0.299,0.232c0.082,0.094,0.146,0.191,0.188,0.302
		c0.043,0.107,0.063,0.208,0.063,0.306c0,0.308-0.104,0.527-0.299,0.67c-0.203,0.143-0.461,0.211-0.771,0.211l-5.319,0.012v5.072
		c0.563,0,1.12,0.01,1.688,0.021c0.563,0.02,1.15,0.025,1.771,0.025c0.17,0,0.321-0.01,0.467-0.025
		c0.144-0.017,0.274-0.033,0.403-0.059c0.119-0.02,0.238-0.032,0.359-0.051c0.123-0.012,0.256-0.021,0.398-0.021
		c0.172,0,0.322,0.015,0.475,0.038c0.146,0.023,0.271,0.068,0.377,0.139c0.104,0.063,0.188,0.149,0.254,0.262
		c0.063,0.111,0.094,0.25,0.094,0.421c0,0.247-0.041,0.44-0.127,0.575c-0.084,0.139-0.196,0.233-0.342,0.304
		c-0.146,0.063-0.313,0.104-0.492,0.116c-0.186,0.016-0.373,0.021-0.569,0.021h-5.701c-0.146,0-0.278-0.021-0.399-0.052
		c-0.123-0.033-0.229-0.088-0.316-0.165c-0.091-0.075-0.158-0.176-0.211-0.296C109.799,17.785,109.773,17.639,109.773,17.462z"/>
</g>
<g>
	<path fill="#FFFFFF" d="M3.355,17.311c0-0.123,0.005-0.244,0.015-0.359c0.013-0.117,0.023-0.229,0.034-0.329
		c0-0.785,0-1.513,0-2.169c0-0.661,0-1.278,0-1.854c0-0.574,0-1.107,0-1.616c0-0.502,0-0.984,0-1.461
		c0-0.472,0.002-0.935,0.006-1.39c0.002-0.454,0.004-0.919,0.004-1.394C3.386,6.66,3.358,6.55,3.332,6.409
		C3.308,6.266,3.295,6.135,3.295,6.012c0-0.119,0.019-0.238,0.054-0.354C3.386,5.54,3.443,5.43,3.52,5.341
		c0.075-0.094,0.17-0.169,0.284-0.226c0.112-0.059,0.243-0.087,0.388-0.087c0.238,0,0.479,0.018,0.722,0.046
		c0.243,0.023,0.517,0.041,0.821,0.041c0.253,0,0.508-0.016,0.763-0.038c0.253-0.022,0.524-0.04,0.813-0.049
		c0.854,0,1.625,0.087,2.317,0.257c0.693,0.169,1.282,0.432,1.771,0.788c0.489,0.354,0.865,0.81,1.131,1.356
		c0.265,0.551,0.396,1.207,0.396,1.971c0,0.726-0.101,1.363-0.3,1.929c-0.2,0.563-0.458,1.053-0.772,1.471
		c-0.313,0.419-0.662,0.771-1.05,1.05c-0.387,0.276-0.764,0.489-1.131,0.64c0.051,0.306,0.132,0.593,0.242,0.858
		c0.109,0.271,0.252,0.506,0.424,0.707c0.171,0.201,0.374,0.362,0.606,0.48c0.229,0.115,0.49,0.179,0.778,0.179
		c0.215,0,0.411-0.03,0.588-0.104c0.179-0.063,0.333-0.196,0.462-0.396c0.079-0.11,0.176-0.212,0.288-0.3
		c0.113-0.088,0.258-0.135,0.432-0.135c0.306,0,0.542,0.089,0.712,0.258c0.169,0.169,0.253,0.384,0.253,0.646
		c0,0.238-0.068,0.476-0.207,0.69c-0.138,0.224-0.333,0.415-0.584,0.58c-0.251,0.168-0.556,0.3-0.911,0.396
		c-0.354,0.103-0.75,0.146-1.185,0.146c-0.403,0-0.765-0.059-1.09-0.174c-0.324-0.116-0.614-0.271-0.872-0.467
		c-0.257-0.193-0.484-0.418-0.681-0.67c-0.199-0.25-0.367-0.517-0.509-0.789c-0.143-0.271-0.257-0.545-0.348-0.814
		c-0.09-0.271-0.162-0.523-0.211-0.762c-0.068,0-0.159,0-0.271,0c-0.114,0-0.23,0-0.349,0c-0.118,0-0.235-0.004-0.352-0.006
		c-0.115-0.004-0.209-0.004-0.283-0.004C6.442,14.807,6.24,14.8,6,14.798c-0.24-0.003-0.459-0.005-0.657-0.005v1.236
		c0.012,0.267,0.045,0.522,0.104,0.775c0.056,0.252,0.084,0.51,0.084,0.771c0,0.164-0.033,0.301-0.098,0.415
		c-0.066,0.11-0.148,0.207-0.25,0.28c-0.102,0.076-0.212,0.133-0.33,0.164c-0.12,0.035-0.233,0.055-0.339,0.055
		c-0.171,0-0.326-0.029-0.467-0.09c-0.14-0.063-0.262-0.145-0.364-0.246c-0.102-0.1-0.183-0.229-0.241-0.369
		C3.384,17.646,3.355,17.486,3.355,17.311z M5.338,12.975c0.146,0.006,0.317,0.017,0.517,0.021c0.196,0.006,0.387,0.012,0.566,0.021
		c0.181,0.006,0.342,0.01,0.483,0.014c0.141,0.002,0.229,0.004,0.271,0.004c0.762,0,1.387-0.104,1.876-0.313
		c0.488-0.209,0.871-0.486,1.148-0.83c0.277-0.347,0.466-0.741,0.573-1.188c0.103-0.445,0.154-0.902,0.154-1.371
		c0-0.413-0.063-0.762-0.193-1.049C10.604,8,10.43,7.762,10.216,7.577C10.001,7.39,9.758,7.244,9.487,7.139S8.94,6.951,8.661,6.9
		C8.38,6.85,8.107,6.818,7.839,6.807C7.571,6.796,7.335,6.79,7.131,6.79c-0.289,0-0.582,0.004-0.877,0.012
		C5.958,6.813,5.638,6.818,5.293,6.823c-0.012,0.219-0.02,0.409-0.022,0.588C5.269,7.586,5.265,7.758,5.264,7.923
		C5.262,8.091,5.258,8.26,5.258,8.434c0,0.174,0,0.364,0,0.578c0,0.389,0.003,0.742,0.006,1.071
		c0.001,0.332,0.007,0.649,0.013,0.967c0.005,0.313,0.012,0.63,0.021,0.942C5.307,12.301,5.319,12.631,5.338,12.975z M9.31,14.602
		c-0.004,0-0.008,0.002-0.008,0.014L9.31,14.602z"/>
	<path fill="#FFFFFF" d="M17.249,17.575c0-0.288,0.021-0.572,0.063-0.853c0.043-0.279,0.064-0.578,0.064-0.896
		c0-1.438-0.013-2.891-0.039-4.348C17.312,10.023,17.3,8.527,17.3,6.992c0-0.158-0.018-0.317-0.051-0.479
		c-0.034-0.16-0.051-0.334-0.051-0.521c0-0.146,0.02-0.285,0.06-0.415c0.038-0.13,0.107-0.244,0.204-0.345
		c0.096-0.1,0.228-0.176,0.398-0.231c0.169-0.056,0.38-0.085,0.637-0.085c0.253,0,0.453,0.098,0.601,0.288
		c0.146,0.19,0.22,0.448,0.22,0.771c0,0.099-0.01,0.189-0.025,0.283c-0.019,0.094-0.034,0.189-0.052,0.291
		c-0.01,0.486-0.019,1.01-0.026,1.568c-0.005,0.559-0.007,1.199-0.007,1.923c0,0.644,0.002,1.302,0.007,1.974
		c0.007,0.674,0.016,1.318,0.026,1.939c0.012,0.621,0.027,1.201,0.047,1.74c0.021,0.541,0.043,1.005,0.072,1.396v-0.01
		c0.012,0.085,0.021,0.165,0.03,0.241c0.009,0.076,0.013,0.154,0.013,0.231c0,0.138-0.017,0.263-0.047,0.378
		c-0.031,0.112-0.084,0.217-0.156,0.301c-0.075,0.086-0.176,0.146-0.305,0.191c-0.131,0.051-0.292,0.067-0.483,0.067
		c-0.226,0-0.414-0.021-0.563-0.063c-0.149-0.039-0.268-0.099-0.356-0.179c-0.088-0.079-0.151-0.177-0.187-0.292
		C17.267,17.854,17.249,17.721,17.249,17.575z"/>
	<path fill="#FFFFFF" d="M23.381,17.71c0-0.235,0.018-0.437,0.051-0.601c0.034-0.164,0.054-0.24,0.059-0.229
		c0.011-0.614,0.021-1.239,0.03-1.872c0.009-0.632,0.012-1.303,0.012-2.008c0-0.445,0-0.932,0-1.453s-0.003-1.05-0.012-1.584
		C23.513,9.43,23.5,8.904,23.483,8.389c-0.017-0.518-0.04-0.996-0.068-1.438c-0.022-0.13-0.039-0.246-0.051-0.352
		c-0.012-0.104-0.017-0.22-0.017-0.336c0-0.274,0.059-0.494,0.177-0.656c0.12-0.16,0.311-0.271,0.577-0.334
		c0.113-0.096,0.238-0.161,0.377-0.199c0.138-0.036,0.271-0.055,0.401-0.055c0.137,0,0.258,0.039,0.369,0.119
		c0.111,0.075,0.207,0.172,0.293,0.275c0.084,0.104,0.155,0.223,0.212,0.335c0.056,0.115,0.095,0.21,0.119,0.284
		c0.175,0.259,0.385,0.556,0.63,0.889c0.245,0.335,0.514,0.69,0.805,1.072c0.29,0.382,0.601,0.775,0.928,1.191
		c0.327,0.414,0.66,0.834,0.996,1.261c0.336,0.424,0.67,0.847,1.003,1.267c0.333,0.424,0.65,0.826,0.948,1.22
		c0.3,0.392,0.579,0.758,0.84,1.104c0.258,0.349,0.483,0.658,0.67,0.938c0-1.209-0.005-2.25-0.013-3.123
		c-0.009-0.873-0.019-1.615-0.03-2.229c-0.012-0.609-0.026-1.117-0.043-1.512c-0.017-0.396-0.031-0.728-0.042-0.982
		c-0.012-0.26-0.021-0.475-0.031-0.64C32.526,6.32,32.52,6.16,32.52,6.008c0-0.228,0.025-0.412,0.073-0.557
		c0.049-0.145,0.116-0.256,0.204-0.334c0.088-0.079,0.196-0.135,0.326-0.162c0.13-0.025,0.279-0.042,0.45-0.042
		c0.22,0,0.391,0.046,0.516,0.138c0.125,0.09,0.217,0.203,0.283,0.342c0.065,0.142,0.105,0.295,0.12,0.47
		c0.013,0.172,0.02,0.34,0.02,0.504v9.717c0,0.203,0.013,0.408,0.035,0.613c0.022,0.207,0.034,0.426,0.034,0.654
		c0,0.224-0.018,0.401-0.051,0.545c-0.034,0.146-0.088,0.266-0.166,0.354c-0.075,0.09-0.175,0.153-0.297,0.188
		c-0.121,0.037-0.267,0.057-0.435,0.057c-0.318,0-0.57-0.079-0.76-0.237c-0.188-0.155-0.323-0.35-0.402-0.575
		c-0.536-0.729-1.08-1.457-1.63-2.175c-0.551-0.713-1.104-1.428-1.666-2.142c-0.558-0.715-1.121-1.436-1.685-2.161
		c-0.565-0.726-1.127-1.464-1.688-2.216l-0.509-0.795c0.006,0.861,0.01,1.634,0.017,2.308c0.006,0.677,0.012,1.274,0.018,1.808
		c0.004,0.525,0.011,0.992,0.017,1.396c0.006,0.4,0.009,0.77,0.013,1.085c0.003,0.319,0.005,0.606,0.008,0.872
		c0.002,0.266,0.004,0.521,0.004,0.77c0.007,0.146,0.015,0.306,0.029,0.471c0.015,0.169,0.021,0.33,0.021,0.486
		c0,0.146-0.013,0.289-0.038,0.426c-0.024,0.137-0.074,0.254-0.148,0.354c-0.072,0.104-0.176,0.185-0.309,0.241
		c-0.133,0.061-0.307,0.089-0.52,0.089c-0.29,0-0.533-0.067-0.729-0.211C23.481,18.145,23.381,17.953,23.381,17.71z"/>
	<path fill="#FFFFFF" d="M37.52,11.85c0-1.158,0.169-2.169,0.502-3.033c0.333-0.86,0.793-1.584,1.379-2.157
		c0.587-0.577,1.282-1.011,2.084-1.3c0.803-0.284,1.675-0.432,2.618-0.432c0.241,0,0.516,0.004,0.821,0.012
		c0.306,0.013,0.617,0.029,0.936,0.063c0.32,0.034,0.635,0.082,0.944,0.146c0.313,0.063,0.604,0.146,0.865,0.244
		c0.208,0.08,0.384,0.192,0.526,0.34c0.14,0.146,0.212,0.357,0.212,0.639c0,0.318-0.082,0.58-0.243,0.771
		c-0.16,0.195-0.349,0.293-0.564,0.293c-0.043,0-0.103-0.006-0.176-0.019c-0.074-0.011-0.135-0.03-0.187-0.06
		c-0.22-0.117-0.486-0.215-0.8-0.286c-0.314-0.075-0.638-0.136-0.97-0.181c-0.334-0.043-0.658-0.076-0.975-0.096
		c-0.315-0.017-0.586-0.021-0.813-0.021c-0.312,0-0.629,0.037-0.958,0.115c-0.328,0.072-0.646,0.191-0.961,0.355
		c-0.313,0.164-0.61,0.373-0.89,0.628c-0.279,0.254-0.524,0.558-0.734,0.906c-0.208,0.35-0.374,0.751-0.499,1.204
		c-0.124,0.453-0.187,0.968-0.187,1.527c0,0.66,0.078,1.246,0.233,1.754c0.156,0.51,0.369,0.951,0.639,1.326
		s0.591,0.691,0.958,0.948c0.368,0.257,0.763,0.465,1.188,0.623c0.427,0.157,0.873,0.271,1.336,0.338
		c0.463,0.067,0.925,0.103,1.388,0.103c0.205,0,0.434-0.004,0.691-0.012c0.258-0.01,0.514-0.035,0.766-0.082
		c0-0.553-0.001-1.021-0.003-1.414c-0.004-0.391-0.006-0.732-0.013-1.041c-0.006-0.306-0.011-0.584-0.021-0.841
		c-0.008-0.253-0.021-0.524-0.029-0.813c0-0.198-0.014-0.403-0.042-0.609s-0.042-0.431-0.042-0.665c0-0.085,0.017-0.176,0.055-0.273
		c0.038-0.101,0.096-0.189,0.177-0.277c0.083-0.09,0.192-0.161,0.327-0.223c0.136-0.061,0.305-0.092,0.508-0.092
		c0.333,0,0.592,0.078,0.775,0.234c0.183,0.152,0.277,0.363,0.277,0.631c0,0.109-0.003,0.225-0.01,0.326
		c-0.006,0.104-0.009,0.216-0.009,0.335c-0.004,0.181-0.012,0.396-0.02,0.652c-0.008,0.26-0.015,0.584-0.021,0.981
		c-0.007,0.397-0.013,0.882-0.018,1.449c-0.005,0.565-0.008,1.247-0.008,2.036c-0.005,0.32-0.049,0.572-0.126,0.755
		c-0.081,0.183-0.188,0.313-0.323,0.401c-0.134,0.088-0.292,0.141-0.47,0.153c-0.178,0.021-0.361,0.024-0.554,0.024
		c-0.164,0-0.336,0.009-0.517,0.023c-0.181,0.02-0.364,0.035-0.551,0.061c-0.188,0.021-0.369,0.045-0.546,0.063
		c-0.178,0.02-0.346,0.023-0.504,0.023c-1.203,0-2.266-0.182-3.189-0.532c-0.924-0.354-1.699-0.836-2.326-1.438
		c-0.628-0.604-1.101-1.299-1.424-2.094C37.682,13.566,37.52,12.729,37.52,11.85z"/>
	<path fill="#FFFFFF" d="M57.945,11.85c0-0.813,0.089-1.55,0.267-2.208c0.179-0.658,0.423-1.242,0.735-1.757
		c0.31-0.515,0.674-0.958,1.09-1.331c0.419-0.371,0.871-0.68,1.355-0.923c0.48-0.243,0.986-0.423,1.521-0.538
		c0.526-0.115,1.054-0.174,1.58-0.174c0.479,0,0.95,0.044,1.414,0.132c0.464,0.089,0.921,0.21,1.37,0.368
		c0.139,0.051,0.271,0.102,0.41,0.148c0.142,0.048,0.266,0.105,0.375,0.183c0.104,0.072,0.193,0.165,0.268,0.278
		c0.066,0.113,0.104,0.258,0.104,0.433c0,0.203-0.033,0.371-0.099,0.505c-0.063,0.133-0.147,0.237-0.25,0.317
		c-0.103,0.077-0.214,0.135-0.335,0.169c-0.122,0.033-0.238,0.051-0.354,0.051c-0.078,0-0.164-0.012-0.252-0.038
		c-0.098-0.024-0.188-0.058-0.278-0.098c-0.099-0.039-0.19-0.087-0.281-0.14c-0.09-0.058-0.171-0.106-0.246-0.155
		c-0.202-0.087-0.394-0.149-0.571-0.191c-0.18-0.043-0.35-0.073-0.512-0.094c-0.165-0.021-0.324-0.031-0.482-0.033
		C64.62,6.75,64.461,6.75,64.298,6.75c-0.354,0-0.712,0.04-1.067,0.122c-0.354,0.082-0.692,0.209-1.022,0.381
		S61.563,7.641,61.275,7.9c-0.284,0.259-0.537,0.567-0.75,0.928c-0.209,0.357-0.376,0.766-0.5,1.223
		c-0.119,0.459-0.181,0.971-0.181,1.534c0,0.938,0.133,1.729,0.402,2.377c0.271,0.646,0.617,1.17,1.05,1.571
		c0.437,0.4,0.919,0.689,1.462,0.867c0.542,0.18,1.094,0.268,1.646,0.268c0.256,0,0.508-0.016,0.75-0.046
		c0.246-0.031,0.477-0.069,0.688-0.119c0.21-0.048,0.398-0.103,0.563-0.161c0.164-0.058,0.289-0.119,0.375-0.182
		c0.172-0.146,0.316-0.258,0.447-0.334c0.131-0.076,0.277-0.115,0.446-0.115c0.13,0,0.253,0.014,0.369,0.042
		c0.116,0.028,0.215,0.078,0.3,0.149c0.088,0.07,0.152,0.162,0.204,0.271c0.052,0.113,0.076,0.257,0.076,0.427
		c0,0.234-0.081,0.453-0.24,0.646c-0.161,0.191-0.421,0.378-0.774,0.547v-0.009c-0.113,0.063-0.293,0.146-0.521,0.229
		c-0.229,0.086-0.481,0.16-0.771,0.231c-0.284,0.067-0.588,0.13-0.899,0.177c-0.315,0.051-0.628,0.072-0.937,0.072
		c-0.69,0-1.334-0.083-1.93-0.249c-0.591-0.167-1.127-0.396-1.605-0.693c-0.479-0.299-0.909-0.651-1.282-1.063
		c-0.372-0.412-0.688-0.864-0.94-1.355c-0.252-0.489-0.446-1.015-0.577-1.569C58.012,13.007,57.945,12.436,57.945,11.85z"/>
	<path fill="#FFFFFF" d="M71.363,17.311c0-0.164,0.023-0.32,0.072-0.481s0.066-0.332,0.066-0.517L71.38,6.199
		c0.005-0.432,0.08-0.747,0.226-0.954c0.146-0.206,0.396-0.31,0.742-0.31c0.19,0,0.354,0.018,0.481,0.049
		c0.13,0.035,0.231,0.097,0.313,0.181c0.072,0.085,0.135,0.192,0.166,0.33c0.024,0.136,0.047,0.305,0.047,0.508v1.271
		c0,0.353-0.002,0.771-0.006,1.25c-0.002,0.482-0.01,0.998-0.01,1.55c0,0.548,0,1.11,0,1.693c0,0.586,0,1.154,0,1.711
		c0,0.562,0,1.084,0,1.58c0,0.498,0.01,0.938,0.016,1.31c0.653,0,1.217-0.001,1.672-0.009c0.455-0.002,0.83-0.01,1.123-0.021
		c0.158-0.012,0.313-0.03,0.474-0.055c0.159-0.025,0.329-0.038,0.51-0.038c0.372,0,0.656,0.084,0.851,0.253
		c0.195,0.17,0.293,0.42,0.293,0.746c0,0.221-0.043,0.397-0.127,0.53c-0.086,0.132-0.19,0.231-0.334,0.305
		c-0.141,0.07-0.295,0.117-0.467,0.139c-0.172,0.023-0.347,0.035-0.521,0.035h-4.5c-0.142,0-0.271-0.014-0.39-0.038
		c-0.119-0.024-0.227-0.071-0.312-0.14c-0.084-0.068-0.146-0.162-0.192-0.284C71.391,17.67,71.363,17.51,71.363,17.311z"/>
	<path fill="#FFFFFF" d="M80.219,11.703c0-1.004,0.145-1.922,0.426-2.752c0.287-0.83,0.689-1.545,1.211-2.145
		c0.524-0.602,1.153-1.063,1.896-1.396c0.732-0.331,1.559-0.496,2.453-0.496c0.943,0,1.779,0.165,2.512,0.496
		c0.729,0.33,1.336,0.795,1.829,1.396c0.495,0.6,0.868,1.313,1.125,2.145c0.252,0.83,0.38,1.748,0.38,2.752
		c0,0.955-0.138,1.847-0.414,2.673c-0.271,0.829-0.673,1.547-1.188,2.156c-0.517,0.61-1.138,1.091-1.864,1.44
		c-0.729,0.354-1.544,0.523-2.447,0.523c-0.6,0-1.158-0.079-1.688-0.237c-0.523-0.155-1.007-0.384-1.442-0.677
		c-0.438-0.294-0.829-0.646-1.173-1.057c-0.349-0.408-0.64-0.863-0.878-1.367c-0.239-0.502-0.423-1.044-0.548-1.626
		C80.279,12.952,80.219,12.342,80.219,11.703z M82.148,11.703c0,0.426,0.041,0.844,0.119,1.259c0.072,0.416,0.188,0.81,0.352,1.187
		c0.154,0.375,0.348,0.728,0.576,1.041c0.229,0.32,0.49,0.602,0.787,0.83c0.297,0.235,0.629,0.42,0.992,0.557
		c0.357,0.133,0.758,0.195,1.182,0.195c0.445,0,0.854-0.063,1.221-0.195c0.365-0.137,0.696-0.316,0.99-0.557
		c0.293-0.229,0.549-0.51,0.767-0.83c0.218-0.313,0.397-0.666,0.542-1.041c0.146-0.377,0.252-0.771,0.322-1.187
		c0.07-0.415,0.105-0.833,0.105-1.259c0-0.678-0.078-1.319-0.236-1.928c-0.158-0.605-0.4-1.145-0.725-1.604
		c-0.326-0.461-0.735-0.83-1.229-1.1c-0.493-0.272-1.081-0.408-1.759-0.408c-0.639,0-1.206,0.121-1.702,0.364
		c-0.496,0.242-0.916,0.585-1.259,1.025c-0.34,0.438-0.604,0.969-0.777,1.588C82.238,10.26,82.148,10.947,82.148,11.703z"/>
	<path fill="#FFFFFF" d="M94.984,17.71c0-0.235,0.016-0.437,0.051-0.601c0.033-0.164,0.053-0.24,0.058-0.229
		c0.013-0.614,0.022-1.239,0.031-1.872c0.008-0.632,0.013-1.303,0.013-2.008c0-0.445,0-0.932,0-1.453s-0.005-1.05-0.013-1.584
		c-0.009-0.533-0.021-1.059-0.038-1.574c-0.018-0.518-0.04-0.996-0.068-1.438c-0.021-0.13-0.039-0.246-0.052-0.352
		c-0.01-0.104-0.017-0.22-0.017-0.336c0-0.274,0.06-0.494,0.179-0.656c0.118-0.16,0.312-0.271,0.574-0.334
		c0.114-0.096,0.239-0.161,0.378-0.199c0.141-0.036,0.273-0.055,0.402-0.055c0.137,0,0.26,0.039,0.369,0.119
		c0.104,0.075,0.207,0.172,0.293,0.275c0.084,0.104,0.148,0.223,0.211,0.335c0.058,0.115,0.097,0.21,0.119,0.284
		c0.174,0.259,0.385,0.556,0.631,0.889c0.246,0.335,0.514,0.69,0.805,1.072c0.292,0.382,0.6,0.775,0.928,1.191
		c0.327,0.414,0.659,0.834,0.995,1.261c0.336,0.424,0.672,0.847,1.005,1.267c0.334,0.424,0.648,0.826,0.948,1.22
		c0.3,0.392,0.579,0.758,0.838,1.104c0.261,0.349,0.481,0.658,0.669,0.938c0-1.209-0.002-2.25-0.012-3.123s-0.021-1.615-0.029-2.229
		c-0.008-0.614-0.025-1.117-0.044-1.512c-0.017-0.396-0.03-0.728-0.042-0.982c-0.01-0.26-0.02-0.475-0.027-0.64
		c-0.01-0.167-0.013-0.327-0.013-0.479c0-0.228,0.022-0.412,0.071-0.557c0.047-0.145,0.113-0.256,0.201-0.334
		c0.088-0.079,0.19-0.135,0.328-0.162c0.129-0.025,0.273-0.042,0.441-0.042c0.227,0,0.396,0.046,0.521,0.138
		c0.123,0.09,0.221,0.203,0.283,0.342c0.063,0.142,0.104,0.295,0.114,0.47c0.019,0.172,0.021,0.34,0.021,0.504v9.717
		c0,0.203,0.014,0.408,0.031,0.613c0.021,0.207,0.031,0.426,0.031,0.654c0,0.224-0.016,0.401-0.049,0.545
		c-0.035,0.146-0.092,0.266-0.166,0.354c-0.076,0.09-0.178,0.153-0.298,0.188c-0.121,0.037-0.269,0.057-0.438,0.057
		c-0.313,0-0.566-0.079-0.761-0.237c-0.188-0.155-0.319-0.35-0.399-0.575c-0.537-0.729-1.08-1.457-1.631-2.175
		c-0.554-0.713-1.104-1.428-1.664-2.142c-0.563-0.715-1.121-1.436-1.688-2.161c-0.563-0.726-1.127-1.464-1.688-2.216l-0.514-0.795
		c0.011,0.861,0.018,1.634,0.021,2.308c0.008,0.677,0.015,1.274,0.021,1.808c0.008,0.525,0.013,0.992,0.019,1.396
		c0.008,0.4,0.012,0.77,0.017,1.085c0.002,0.319,0.004,0.606,0.009,0.872c0.003,0.266,0.005,0.521,0.005,0.77
		c0.007,0.146,0.019,0.306,0.029,0.471c0.016,0.169,0.021,0.33,0.021,0.486c0,0.146-0.019,0.289-0.039,0.426
		c-0.023,0.137-0.074,0.254-0.146,0.354c-0.072,0.104-0.179,0.185-0.312,0.241c-0.136,0.063-0.311,0.089-0.521,0.089
		c-0.287,0-0.529-0.067-0.729-0.211C95.079,18.145,94.984,17.953,94.984,17.71z"/>
	<path fill="#FFFFFF" d="M109.547,17.295c0-0.096,0.014-0.195,0.037-0.305c0.025-0.107,0.053-0.207,0.081-0.297l0.076-0.271
		l-0.194-10.131c0-0.277,0.03-0.492,0.098-0.645c0.064-0.152,0.148-0.27,0.25-0.338c0.104-0.074,0.226-0.117,0.354-0.129
		c0.133-0.015,0.269-0.02,0.399-0.02h4.468c0.102-0.016,0.216-0.023,0.343-0.047s0.217-0.029,0.271-0.029
		c0.213,0,0.389,0.021,0.521,0.063c0.133,0.039,0.237,0.098,0.313,0.174c0.072,0.076,0.127,0.172,0.146,0.283
		c0.021,0.11,0.037,0.246,0.037,0.396c0,0.216-0.021,0.39-0.079,0.521c-0.054,0.131-0.127,0.229-0.22,0.302
		c-0.101,0.069-0.202,0.114-0.327,0.14c-0.124,0.021-0.257,0.034-0.396,0.034c-0.063,0-0.146-0.001-0.246-0.005
		c-0.104-0.003-0.211-0.012-0.318-0.021c-0.553,0-0.99,0-1.326,0s-0.604,0.002-0.809,0.004c-0.197,0.002-0.354,0.004-0.455,0.004
		c-0.104,0-0.195,0-0.274,0h-0.788v2.688c0.034,0,0.075,0.001,0.123,0.005c0.051,0.003,0.123,0.004,0.229,0.004
		c0.104,0,0.24,0,0.42,0c0.181,0,0.416,0,0.719,0c0.3,0,0.67,0,1.105,0c0.438,0,0.979,0,1.604,0c0.063,0,0.131-0.003,0.211-0.009
		c0.078-0.005,0.158-0.016,0.23-0.023c0.104-0.014,0.228-0.021,0.354-0.035c0.136-0.012,0.283-0.018,0.44-0.018
		c0.152,0,0.289,0.031,0.408,0.094c0.112,0.063,0.219,0.144,0.299,0.232c0.082,0.094,0.146,0.191,0.188,0.302
		c0.043,0.107,0.063,0.208,0.063,0.306c0,0.308-0.102,0.527-0.299,0.67c-0.203,0.143-0.461,0.211-0.771,0.211l-5.319,0.012v5.072
		c0.563,0,1.12,0.01,1.688,0.021c0.563,0.019,1.149,0.025,1.771,0.025c0.17,0,0.321-0.009,0.467-0.025
		c0.144-0.017,0.274-0.034,0.403-0.059c0.119-0.019,0.238-0.032,0.359-0.05c0.123-0.012,0.256-0.021,0.397-0.021
		c0.172,0,0.324,0.016,0.476,0.038c0.146,0.022,0.271,0.069,0.377,0.14c0.104,0.063,0.188,0.148,0.254,0.262
		c0.063,0.111,0.094,0.25,0.094,0.42c0,0.248-0.042,0.441-0.127,0.576c-0.084,0.138-0.196,0.232-0.343,0.303
		c-0.146,0.063-0.313,0.104-0.492,0.117c-0.186,0.015-0.373,0.021-0.568,0.021h-5.701c-0.146,0-0.278-0.021-0.399-0.052
		c-0.122-0.033-0.229-0.088-0.317-0.165c-0.091-0.075-0.158-0.176-0.211-0.296C109.573,17.618,109.547,17.471,109.547,17.295z"/>
</g>
<g>
	<path fill="#FFCE8D" d="M4.732,31.024L3.72,34.088h-1.3l3.323-9.739h1.503l3.324,9.739H9.226l-1.04-3.063H4.732L4.732,31.024z
		 M7.94,30.042l-0.968-2.805c-0.217-0.635-0.361-1.213-0.506-1.776H6.437c-0.145,0.563-0.289,1.171-0.491,1.763l-0.954,2.818H7.94z"
		/>
	<path fill="#FFCE8D" d="M17.633,32.166c0,0.737,0.014,1.373,0.058,1.922h-1.127l-0.072-1.142h-0.029
		c-0.318,0.563-1.069,1.301-2.312,1.301c-1.098,0-2.413-0.622-2.413-3.063v-4.092h1.271v3.858c0,1.329,0.419,2.239,1.561,2.239
		c0.853,0,1.445-0.594,1.676-1.172c0.072-0.174,0.116-0.402,0.116-0.648v-4.277h1.271V32.166z"/>
	<path fill="#FFCE8D" d="M21.271,25.418v1.676h1.821v0.97h-1.821v3.771c0,0.867,0.246,1.357,0.954,1.357
		c0.347,0,0.549-0.028,0.737-0.088l0.058,0.97c-0.246,0.087-0.636,0.174-1.127,0.174c-0.593,0-1.069-0.202-1.373-0.535
		c-0.347-0.392-0.491-1.011-0.491-1.835v-3.813h-1.083v-0.971h1.083v-1.3L21.271,25.418z"/>
	<path fill="#FFCE8D" d="M30.764,30.533c0,2.587-1.806,3.714-3.482,3.714c-1.878,0-3.352-1.389-3.352-3.6
		c0-2.326,1.546-3.698,3.468-3.698C29.406,26.949,30.764,28.409,30.764,30.533z M25.229,30.604c0,1.53,0.867,2.688,2.11,2.688
		c1.214,0,2.124-1.143,2.124-2.717c0-1.186-0.592-2.674-2.095-2.674C25.88,27.903,25.229,29.29,25.229,30.604z"/>
	<path fill="#FFCE8D" d="M32.365,28.987c0-0.737-0.029-1.315-0.058-1.896h1.113l0.058,1.144h0.043
		c0.39-0.664,1.041-1.286,2.211-1.286c0.939,0,1.662,0.577,1.965,1.401h0.029c0.217-0.404,0.505-0.693,0.794-0.91
		c0.419-0.317,0.867-0.491,1.532-0.491c0.939,0,2.312,0.606,2.312,3.034v4.104h-1.243v-3.943c0-1.357-0.506-2.152-1.517-2.152
		c-0.737,0-1.286,0.533-1.518,1.142c-0.058,0.188-0.101,0.404-0.101,0.636v4.32h-1.243v-4.189c0-1.111-0.491-1.906-1.459-1.906
		c-0.78,0-1.373,0.636-1.575,1.271c-0.072,0.174-0.102,0.403-0.102,0.62v4.205h-1.243v-5.103H32.365L32.365,28.987z"/>
	<path fill="#FFCE8D" d="M49.325,32.412c0,0.606,0.029,1.198,0.101,1.676h-1.142l-0.101-0.882H48.14
		c-0.391,0.55-1.142,1.041-2.139,1.041c-1.417,0-2.139-0.997-2.139-2.01c0-1.689,1.503-2.614,4.205-2.6v-0.146
		c0-0.563-0.159-1.619-1.59-1.604c-0.665,0-1.344,0.188-1.835,0.521l-0.289-0.854c0.578-0.361,1.431-0.605,2.312-0.605
		c2.139,0,2.659,1.46,2.659,2.847L49.325,32.412L49.325,32.412z M48.097,30.519c-1.387-0.026-2.962,0.217-2.962,1.575
		c0,0.839,0.549,1.214,1.185,1.214c0.925,0,1.517-0.578,1.719-1.17c0.043-0.146,0.058-0.289,0.058-0.404V30.519z"/>
	<path fill="#FFCE8D" d="M52.849,25.418v1.676h1.821v0.97h-1.821v3.771c0,0.867,0.246,1.357,0.954,1.357
		c0.347,0,0.549-0.028,0.737-0.088l0.058,0.97c-0.246,0.087-0.636,0.174-1.127,0.174c-0.593,0-1.069-0.202-1.373-0.535
		c-0.347-0.392-0.491-1.011-0.491-1.835v-3.813h-1.083v-0.971h1.083v-1.3L52.849,25.418z"/>
	<path fill="#FFCE8D" d="M57.515,25.129c0,0.435-0.304,0.78-0.81,0.78c-0.462,0-0.766-0.348-0.766-0.78s0.318-0.795,0.794-0.795
		C57.196,24.334,57.515,24.681,57.515,25.129z M56.098,34.088v-6.994h1.272v6.994H56.098z"/>
	<path fill="#FFCE8D" d="M64.464,33.842c-0.332,0.159-1.069,0.405-2.009,0.405c-2.109,0-3.482-1.432-3.482-3.568
		c0-2.154,1.474-3.729,3.755-3.729c0.752,0,1.418,0.188,1.765,0.376l-0.289,0.968c-0.304-0.158-0.78-0.332-1.476-0.332
		c-1.604,0-2.472,1.199-2.472,2.646c0,1.617,1.041,2.615,2.429,2.615c0.724,0,1.198-0.175,1.562-0.332L64.464,33.842z"/>
	<path fill="#FFCE8D" d="M70.63,31.024l-1.011,3.063h-1.301l3.322-9.738h1.504l3.321,9.738h-1.344l-1.04-3.063H70.63z
		 M73.838,30.042l-0.968-2.805c-0.218-0.635-0.361-1.213-0.507-1.776h-0.028c-0.146,0.563-0.288,1.171-0.491,1.763l-0.953,2.818
		H73.838z"/>
	<path fill="#FFCE8D" d="M77.811,29.276c0-0.824-0.016-1.532-0.059-2.185h1.111l0.06,1.39h0.043c0.317-0.939,1.099-1.532,1.95-1.532
		c0.131,0,0.23,0.015,0.348,0.028v1.198c-0.131-0.028-0.261-0.028-0.434-0.028c-0.896,0-1.532,0.666-1.705,1.619
		c-0.029,0.174-0.044,0.391-0.044,0.592v3.729h-1.271V29.276L77.811,29.276z"/>
	<path fill="#FFCE8D" d="M87.374,33.842c-0.332,0.159-1.069,0.405-2.009,0.405c-2.109,0-3.482-1.432-3.482-3.568
		c0-2.154,1.475-3.729,3.758-3.729c0.752,0,1.416,0.188,1.764,0.376l-0.288,0.968c-0.306-0.158-0.78-0.332-1.476-0.332
		c-1.604,0-2.472,1.199-2.472,2.646c0,1.617,1.041,2.615,2.429,2.615c0.723,0,1.198-0.175,1.562-0.332L87.374,33.842z"/>
	<path fill="#FFCE8D" d="M88.859,23.828h1.271v4.379h0.029c0.2-0.36,0.521-0.694,0.909-0.911c0.375-0.216,0.824-0.347,1.302-0.347
		c0.938,0,2.44,0.577,2.44,2.977v4.162H93.54v-4.019c0-1.127-0.419-2.064-1.618-2.064c-0.822,0-1.459,0.577-1.705,1.258
		c-0.07,0.188-0.087,0.375-0.087,0.605v4.22h-1.271V23.828z"/>
	<path fill="#FFCE8D" d="M98.293,25.129c0,0.435-0.303,0.78-0.809,0.78c-0.463,0-0.769-0.348-0.769-0.78s0.318-0.795,0.796-0.795
		C97.977,24.334,98.293,24.681,98.293,25.129z M96.877,34.088v-6.994h1.271v6.994H96.877z"/>
	<path fill="#FFCE8D" d="M100.748,27.094l1.373,3.916c0.23,0.65,0.419,1.229,0.563,1.808h0.043c0.16-0.577,0.361-1.155,0.594-1.808
		l1.357-3.916h1.329l-2.745,6.994h-1.214l-2.659-6.994H100.748z"/>
	<path fill="#FFCE8D" d="M107.77,30.821c0.028,1.721,1.112,2.429,2.398,2.429c0.91,0,1.475-0.159,1.936-0.36l0.231,0.909
		c-0.448,0.202-1.229,0.448-2.341,0.448c-2.153,0-3.439-1.432-3.439-3.54c0-2.11,1.243-3.758,3.28-3.758
		c2.298,0,2.892,1.993,2.892,3.28c0,0.261-0.016,0.446-0.045,0.592H107.77L107.77,30.821z M111.497,29.912
		c0.015-0.795-0.333-2.052-1.763-2.052c-1.301,0-1.852,1.17-1.951,2.052H111.497z"/>
	<path fill="#FFCE8D" d="M114.298,29.276c0-0.824-0.015-1.532-0.058-2.185h1.111l0.06,1.39h0.043
		c0.317-0.939,1.098-1.532,1.95-1.532c0.131,0,0.229,0.015,0.348,0.028v1.198c-0.131-0.028-0.261-0.028-0.434-0.028
		c-0.896,0-1.532,0.666-1.705,1.619c-0.029,0.174-0.045,0.391-0.045,0.592v3.729h-1.271L114.298,29.276L114.298,29.276z"/>
</g>
</svg>
