<?xml version="1.0" encoding="utf-8"?>
<!-- Generator: Adobe Illustrator 15.1.0, SVG Export Plug-In . SVG Version: 6.00 Build 0)  -->
<!DOCTYPE svg PUBLIC "-//W3C//DTD SVG 1.1//EN" "http://www.w3.org/Graphics/SVG/1.1/DTD/svg11.dtd">
<svg version="1.1" id="Capa_1" xmlns="http://www.w3.org/2000/svg" xmlns:xlink="http://www.w3.org/1999/xlink" x="0px" y="0px"
	 width="32px" height="32px" viewBox="0 0 32 32" enable-background="new 0 0 32 32" xml:space="preserve">
<g>
	<path d="M16.604,1.447c-7.914,0-14.331,6.417-14.331,14.331c0,7.917,6.417,14.339,14.331,14.339
		c7.916,0,14.339-6.422,14.339-14.339C30.942,7.864,24.52,1.447,16.604,1.447L16.604,1.447z M19.59,23.665
		c-0.74,0.29-1.326,0.509-1.765,0.663s-0.948,0.231-1.53,0.231c-0.895,0-1.592-0.22-2.085-0.658c-0.497-0.433-0.74-0.989-0.74-1.658
		c0-0.263,0.018-0.527,0.053-0.801c0.036-0.272,0.096-0.574,0.177-0.919l0.925-3.264c0.082-0.313,0.153-0.61,0.207-0.882
		c0.055-0.286,0.084-0.539,0.084-0.771c0-0.415-0.088-0.707-0.262-0.871c-0.171-0.166-0.497-0.243-0.982-0.243
		c-0.236,0-0.485,0.036-0.736,0.107c-0.249,0.077-0.461,0.148-0.638,0.213l0.242-1.001c0.604-0.249,1.185-0.456,1.735-0.634
		c0.552-0.179,1.072-0.267,1.565-0.267c0.887,0,1.57,0.218,2.049,0.646c0.479,0.427,0.724,0.983,0.724,1.671
		c0,0.142-0.019,0.391-0.049,0.745c-0.034,0.363-0.094,0.687-0.184,0.985l-0.918,3.251c-0.076,0.263-0.142,0.563-0.207,0.896
		c-0.059,0.331-0.088,0.586-0.088,0.758c0,0.432,0.1,0.729,0.289,0.883c0.196,0.16,0.528,0.235,1.008,0.235
		c0.225,0,0.475-0.04,0.758-0.118c0.279-0.075,0.485-0.146,0.616-0.206L19.59,23.665z M19.431,10.464
		c-0.432,0.397-0.947,0.599-1.554,0.599c-0.598,0-1.118-0.202-1.551-0.599C15.9,10.067,15.68,9.582,15.68,9.013
		c0-0.564,0.22-1.049,0.646-1.453c0.433-0.396,0.954-0.597,1.551-0.597c0.606,0,1.122,0.202,1.554,0.597
		c0.426,0.404,0.641,0.889,0.641,1.453C20.071,9.582,19.856,10.067,19.431,10.464L19.431,10.464z M19.431,10.464"/>
</g>
</svg>
