<?xml version="1.0" encoding="utf-8"?>
<!-- Generator: Adobe Illustrator 15.1.0, SVG Export Plug-In . SVG Version: 6.00 Build 0)  -->
<!DOCTYPE svg PUBLIC "-//W3C//DTD SVG 1.1//EN" "http://www.w3.org/Graphics/SVG/1.1/DTD/svg11.dtd">
<svg version="1.1" id="Capa_1" xmlns="http://www.w3.org/2000/svg" xmlns:xlink="http://www.w3.org/1999/xlink" x="0px" y="0px"
	 width="29px" height="29px" viewBox="45.5 35.5 29 29" enable-background="new 45.5 35.5 29 29" xml:space="preserve">
<path d="M71.201,38.8c-3.372-3.4-8.854-3.4-12.221,0c-3.253,3.254-3.372,8.444-0.349,11.844l0.056,0.057
	c-0.321,0.703-0.906,1.581-1.79,2.021c-0.292,0.146-0.236,0.585,0.09,0.647c0.996,0.146,2.403,0,3.692-0.996l0.028,0.027
	c3.31,1.937,7.649,1.498,10.492-1.351C74.573,47.654,74.573,42.172,71.201,38.8z M65.105,51.55c-3.665,0-6.626-2.961-6.626-6.625
	s2.961-6.62,6.626-6.62c3.664,0,6.625,2.961,6.625,6.625S68.77,51.55,65.105,51.55z"/>
<path d="M62.493,56.476c-0.676-0.704-1.554-0.704-2.257,0c-0.529,0.528-1.053,1.053-1.582,1.581
	c-0.146,0.146-0.265,0.175-0.439,0.091c-0.321-0.203-0.704-0.35-1.024-0.558c-1.525-0.968-2.814-2.201-3.957-3.603
	c-0.557-0.704-1.053-1.436-1.407-2.285c-0.056-0.175-0.056-0.265,0.09-0.411c0.558-0.501,1.053-1.025,1.582-1.554
	c0.732-0.732,0.732-1.582,0-2.313c-0.439-0.439-0.85-0.85-1.261-1.261c-0.439-0.439-0.85-0.878-1.289-1.289
	c-0.676-0.675-1.554-0.675-2.257,0c-0.529,0.529-1.053,1.053-1.582,1.582c-0.501,0.501-0.76,1.086-0.822,1.756
	c-0.09,1.086,0.174,2.139,0.557,3.163c0.794,2.14,1.993,3.985,3.428,5.714c1.965,2.348,4.306,4.193,7.036,5.511
	c1.233,0.585,2.494,1.053,3.839,1.143c0.969,0.057,1.79-0.202,2.46-0.939c0.439-0.529,0.969-0.969,1.436-1.464
	c0.704-0.731,0.704-1.609,0-2.313C64.193,58.175,63.344,57.325,62.493,56.476z"/>
<path d="M69.693,42.369c0,0.228-0.166,0.413-0.37,0.413h-8.402c-0.205,0-0.371-0.185-0.371-0.413l0,0
	c0-0.228,0.166-0.413,0.371-0.413h8.402C69.527,41.956,69.693,42.141,69.693,42.369L69.693,42.369z"/>
<path d="M70.656,44.087c0,0.228-0.201,0.413-0.449,0.413H60.036c-0.248,0-0.449-0.185-0.449-0.413l0,0
	c0-0.228,0.201-0.413,0.449-0.413h10.171C70.455,43.675,70.656,43.859,70.656,44.087L70.656,44.087z"/>
<path d="M70.381,45.875c0,0.228-0.19,0.413-0.426,0.413h-9.667c-0.235,0-0.426-0.185-0.426-0.413l0,0
	c0-0.228,0.191-0.413,0.426-0.413h9.667C70.19,45.462,70.381,45.647,70.381,45.875L70.381,45.875z"/>
<path d="M69.35,47.594c0,0.228-0.153,0.413-0.343,0.413h-7.771c-0.189,0-0.343-0.185-0.343-0.413l0,0
	c0-0.228,0.153-0.413,0.343-0.413h7.771C69.196,47.181,69.35,47.366,69.35,47.594L69.35,47.594z"/>
</svg>
