<?xml version="1.0" encoding="utf-8"?>
<!-- Generator: Adobe Illustrator 15.1.0, SVG Export Plug-In . SVG Version: 6.00 Build 0)  -->
<!DOCTYPE svg PUBLIC "-//W3C//DTD SVG 1.1//EN" "http://www.w3.org/Graphics/SVG/1.1/DTD/svg11.dtd">
<svg version="1.1" id="Capa_1" xmlns="http://www.w3.org/2000/svg" xmlns:xlink="http://www.w3.org/1999/xlink" x="0px" y="0px"
	 width="32px" height="32px" viewBox="0 0 32 32" enable-background="new 0 0 32 32" xml:space="preserve">
<g transform="matrix(1,0,0,-1,197.42373,1300.6102)">
	<path d="M-167.734,1275.026c0-1.541-0.469-2.758-1.405-3.648c-0.938-0.893-2.182-1.338-3.735-1.338h-16.826
		c-1.553,0-2.798,0.445-3.735,1.338c-0.937,0.891-1.405,2.107-1.405,3.648c0,0.68,0.022,1.344,0.067,1.992
		c0.045,0.646,0.135,1.348,0.27,2.098c0.135,0.752,0.305,1.447,0.51,2.09c0.205,0.641,0.481,1.266,0.828,1.877
		c0.346,0.607,0.744,1.128,1.193,1.559c0.449,0.43,0.998,0.772,1.646,1.03c0.648,0.256,1.364,0.385,2.146,0.385
		c0.116,0,0.385-0.139,0.809-0.414c0.424-0.275,0.902-0.584,1.435-0.924s1.226-0.648,2.079-0.925c0.854-0.275,1.71-0.412,2.57-0.412
		s1.716,0.137,2.57,0.412c0.854,0.277,1.547,0.585,2.08,0.925c0.532,0.34,1.011,0.648,1.434,0.924
		c0.424,0.275,0.693,0.414,0.809,0.414c0.783,0,1.498-0.129,2.146-0.385c0.648-0.258,1.197-0.601,1.646-1.03
		c0.449-0.431,0.847-0.952,1.193-1.559c0.347-0.611,0.622-1.236,0.828-1.877c0.205-0.643,0.375-1.338,0.51-2.09
		c0.135-0.75,0.225-1.451,0.27-2.098C-167.757,1276.37-167.734,1275.706-167.734,1275.026z M-173.894,1292.218
		c0-2.041-0.722-3.783-2.166-5.227c-1.444-1.443-3.187-2.166-5.227-2.166c-2.041,0-3.783,0.723-5.227,2.166
		c-1.444,1.444-2.166,3.186-2.166,5.227c0,2.041,0.722,3.783,2.166,5.227c1.444,1.444,3.186,2.166,5.227,2.166
		c2.041,0,3.783-0.722,5.227-2.166C-174.616,1296-173.894,1294.258-173.894,1292.218z"/>
</g>
</svg>
