<?xml version="1.0" encoding="utf-8"?>
<!-- Generator: Adobe Illustrator 15.1.0, SVG Export Plug-In . SVG Version: 6.00 Build 0)  -->
<!DOCTYPE svg PUBLIC "-//W3C//DTD SVG 1.1//EN" "http://www.w3.org/Graphics/SVG/1.1/DTD/svg11.dtd">
<svg version="1.1" id="Capa_1" xmlns="http://www.w3.org/2000/svg" xmlns:xlink="http://www.w3.org/1999/xlink" x="0px" y="0px"
	 width="32px" height="32px" viewBox="0 0 32 32" enable-background="new 0 0 32 32" xml:space="preserve">
<g>
	<g>
		<path fill="#E0C900" d="M31.107,27.563L17.736,4.398c-0.775-1.342-2.716-1.342-3.491,0L0.873,27.563
			c-0.775,1.342,0.195,3.024,1.746,3.024h26.744C30.913,30.588,31.884,28.904,31.107,27.563L31.107,27.563z M16.01,11.532
			c0.856,0,1.551,0.712,1.524,1.569l-0.252,8.797c-0.019,0.691-0.587,1.24-1.279,1.24c-0.693,0-1.26-0.555-1.279-1.24l-0.246-8.797
			C14.459,12.244,15.146,11.532,16.01,11.532L16.01,11.532z M15.991,27.443c-0.876,0-1.588-0.713-1.588-1.588
			c0-0.877,0.712-1.588,1.588-1.588c0.875,0,1.587,0.711,1.587,1.588C17.578,26.73,16.866,27.443,15.991,27.443L15.991,27.443z"/>
	</g>
</g>
</svg>
